<?xml version="1.0" encoding="UTF-8" standalone="no"?>
<!DOCTYPE svg PUBLIC "-//W3C//DTD SVG 1.1//EN"
 "http://www.w3.org/Graphics/SVG/1.1/DTD/svg11.dtd">
<!-- Generated by graphviz version 13.1.0 (20250701.0955)
 -->
<!-- Pages: 1 -->
<svg width="471pt" height="324pt"
 viewBox="0.00 0.00 471.00 324.00" xmlns="http://www.w3.org/2000/svg" xmlns:xlink="http://www.w3.org/1999/xlink">
<g id="graph0" class="graph" transform="scale(1 1) rotate(0) translate(4 320.01)">
<polygon fill="white" stroke="none" points="-4,4 -4,-320.01 466.67,-320.01 466.67,4 -4,4"/>
<!-- block0 -->
<g id="node1" class="node">
<title>block0</title>
<ellipse fill="lightgreen" stroke="black" cx="27" cy="-239.94" rx="27" ry="18"/>
<text xml:space="preserve" text-anchor="middle" x="27" y="-234.89" font-family="Times,serif" font-size="14.00">B_0</text>
</g>
<!-- cut10 -->
<g id="node11" class="node">
<title>cut10</title>
<polygon fill="lightcoral" stroke="black" points="136.25,-237.54 71.5,-237.54 71.5,-201.54 136.25,-201.54 136.25,-237.54"/>
<text xml:space="preserve" text-anchor="middle" x="103.87" y="-214.49" font-family="Times,serif" font-size="14.00">C_3 (10)</text>
</g>
<!-- block0&#45;&#45;cut10 -->
<g id="edge1" class="edge">
<title>block0&#45;&#45;cut10</title>
<path fill="none" stroke="black" d="M52.17,-233.26C58.21,-231.66 64.75,-229.92 71.09,-228.24"/>
</g>
<!-- block1 -->
<g id="node2" class="node">
<title>block1</title>
<ellipse fill="lightgreen" stroke="black" cx="117.94" cy="-298.01" rx="27" ry="18"/>
<text xml:space="preserve" text-anchor="middle" x="117.94" y="-292.96" font-family="Times,serif" font-size="14.00">B_1</text>
</g>
<!-- block1&#45;&#45;cut10 -->
<g id="edge2" class="edge">
<title>block1&#45;&#45;cut10</title>
<path fill="none" stroke="black" d="M114.68,-279.81C112.42,-267.22 109.43,-250.54 107.17,-237.91"/>
</g>
<!-- block2 -->
<g id="node3" class="node">
<title>block2</title>
<ellipse fill="lightgreen" stroke="black" cx="48.18" cy="-18" rx="27" ry="18"/>
<text xml:space="preserve" text-anchor="middle" x="48.18" y="-12.95" font-family="Times,serif" font-size="14.00">B_2</text>
</g>
<!-- cut9 -->
<g id="node10" class="node">
<title>cut9</title>
<polygon fill="lightcoral" stroke="black" points="123.89,-96.38 65.89,-96.38 65.89,-60.38 123.89,-60.38 123.89,-96.38"/>
<text xml:space="preserve" text-anchor="middle" x="94.89" y="-73.33" font-family="Times,serif" font-size="14.00">C_2 (8)</text>
</g>
<!-- block2&#45;&#45;cut9 -->
<g id="edge3" class="edge">
<title>block2&#45;&#45;cut9</title>
<path fill="none" stroke="black" d="M60.69,-34.18C66.85,-42.15 74.31,-51.78 80.68,-60.02"/>
</g>
<!-- block3 -->
<g id="node4" class="node">
<title>block3</title>
<ellipse fill="lightgreen" stroke="black" cx="142.44" cy="-145.39" rx="27" ry="18"/>
<text xml:space="preserve" text-anchor="middle" x="142.44" y="-140.34" font-family="Times,serif" font-size="14.00">B_3</text>
</g>
<!-- cut8 -->
<g id="node9" class="node">
<title>cut8</title>
<polygon fill="lightcoral" stroke="black" points="251.23,-150.13 193.23,-150.13 193.23,-114.13 251.23,-114.13 251.23,-150.13"/>
<text xml:space="preserve" text-anchor="middle" x="222.23" y="-127.08" font-family="Times,serif" font-size="14.00">C_1 (7)</text>
</g>
<!-- block3&#45;&#45;cut8 -->
<g id="edge4" class="edge">
<title>block3&#45;&#45;cut8</title>
<path fill="none" stroke="black" d="M169.01,-140.97C176.63,-139.71 184.98,-138.32 192.76,-137.03"/>
</g>
<!-- block3&#45;&#45;cut9 -->
<g id="edge6" class="edge">
<title>block3&#45;&#45;cut9</title>
<path fill="none" stroke="black" d="M130.69,-128.82C123.76,-119.06 114.98,-106.69 107.84,-96.64"/>
</g>
<!-- block3&#45;&#45;cut10 -->
<g id="edge5" class="edge">
<title>block3&#45;&#45;cut10</title>
<path fill="none" stroke="black" d="M133.5,-162.59C127.49,-174.14 119.58,-189.34 113.44,-201.14"/>
</g>
<!-- block4 -->
<g id="node5" class="node">
<title>block4</title>
<ellipse fill="lightgreen" stroke="black" cx="297.77" cy="-118.69" rx="27" ry="18"/>
<text xml:space="preserve" text-anchor="middle" x="297.77" y="-113.64" font-family="Times,serif" font-size="14.00">B_4</text>
</g>
<!-- cut7 -->
<g id="node8" class="node">
<title>cut7</title>
<polygon fill="lightcoral" stroke="black" points="403.33,-121.52 345.33,-121.52 345.33,-85.52 403.33,-85.52 403.33,-121.52"/>
<text xml:space="preserve" text-anchor="middle" x="374.33" y="-98.47" font-family="Times,serif" font-size="14.00">C_0 (2)</text>
</g>
<!-- block4&#45;&#45;cut7 -->
<g id="edge8" class="edge">
<title>block4&#45;&#45;cut7</title>
<path fill="none" stroke="black" d="M324.12,-113.47C330.87,-112.13 338.17,-110.68 345.05,-109.32"/>
</g>
<!-- block4&#45;&#45;cut8 -->
<g id="edge7" class="edge">
<title>block4&#45;&#45;cut8</title>
<path fill="none" stroke="black" d="M271.35,-123.39C264.97,-124.53 258.11,-125.75 251.61,-126.91"/>
</g>
<!-- block5 -->
<g id="node6" class="node">
<title>block5</title>
<ellipse fill="lightgreen" stroke="black" cx="435.67" cy="-153.69" rx="27" ry="18"/>
<text xml:space="preserve" text-anchor="middle" x="435.67" y="-148.64" font-family="Times,serif" font-size="14.00">B_5</text>
</g>
<!-- block5&#45;&#45;cut7 -->
<g id="edge9" class="edge">
<title>block5&#45;&#45;cut7</title>
<path fill="none" stroke="black" d="M418.26,-139.45C411.6,-134 403.91,-127.71 396.84,-121.93"/>
</g>
<!-- block6 -->
<g id="node7" class="node">
<title>block6</title>
<ellipse fill="lightgreen" stroke="black" cx="411.93" cy="-33.79" rx="27" ry="18"/>
<text xml:space="preserve" text-anchor="middle" x="411.93" y="-28.74" font-family="Times,serif" font-size="14.00">B_6</text>
</g>
<!-- block6&#45;&#45;cut7 -->
<g id="edge10" class="edge">
<title>block6&#45;&#45;cut7</title>
<path fill="none" stroke="black" d="M402.64,-51.03C396.99,-61.51 389.77,-74.88 384.05,-85.51"/>
</g>
</g>
</svg>
