<?xml version="1.0" encoding="UTF-8" standalone="no"?>
<!DOCTYPE svg PUBLIC "-//W3C//DTD SVG 1.1//EN"
 "http://www.w3.org/Graphics/SVG/1.1/DTD/svg11.dtd">
<!-- Generated by graphviz version 13.1.0 (20250701.0955)
 -->
<!-- Pages: 1 -->
<svg width="486pt" height="419pt"
 viewBox="0.00 0.00 486.00 419.00" xmlns="http://www.w3.org/2000/svg" xmlns:xlink="http://www.w3.org/1999/xlink">
<g id="graph0" class="graph" transform="scale(1 1) rotate(0) translate(4 415.28)">
<polygon fill="white" stroke="none" points="-4,4 -4,-415.28 482.35,-415.28 482.35,4 -4,4"/>
<!-- 0 -->
<g id="node1" class="node">
<title>0</title>
<ellipse fill="lightblue" stroke="black" cx="90.39" cy="-18" rx="18" ry="18"/>
<text xml:space="preserve" text-anchor="middle" x="90.39" y="-12.95" font-family="Times,serif" font-size="14.00">1</text>
</g>
<!-- 1 -->
<g id="node2" class="node">
<title>1</title>
<ellipse fill="lightblue" stroke="black" cx="93.63" cy="-103.14" rx="18" ry="18"/>
<text xml:space="preserve" text-anchor="middle" x="93.63" y="-98.09" font-family="Times,serif" font-size="14.00">2</text>
</g>
<!-- 0&#45;&#45;1 -->
<g id="edge1" class="edge">
<title>0&#45;&#45;1</title>
<path fill="none" stroke="black" d="M91.09,-36.47C91.63,-50.76 92.39,-70.43 92.93,-84.7"/>
</g>
<!-- 2 -->
<g id="node3" class="node">
<title>2</title>
<ellipse fill="lightblue" stroke="black" cx="21.04" cy="-78.6" rx="18" ry="18"/>
<text xml:space="preserve" text-anchor="middle" x="21.04" y="-73.55" font-family="Times,serif" font-size="14.00">3</text>
</g>
<!-- 1&#45;&#45;2 -->
<g id="edge2" class="edge">
<title>1&#45;&#45;2</title>
<path fill="none" stroke="black" d="M76.43,-97.33C64.86,-93.41 49.66,-88.28 38.12,-84.38"/>
</g>
<!-- 3 -->
<g id="node4" class="node">
<title>3</title>
<ellipse fill="lightblue" stroke="black" cx="18" cy="-139.15" rx="18" ry="18"/>
<text xml:space="preserve" text-anchor="middle" x="18" y="-134.1" font-family="Times,serif" font-size="14.00">4</text>
</g>
<!-- 1&#45;&#45;3 -->
<g id="edge4" class="edge">
<title>1&#45;&#45;3</title>
<path fill="none" stroke="black" d="M77.22,-110.95C64.62,-116.95 47.3,-125.2 34.64,-131.23"/>
</g>
<!-- 4 -->
<g id="node5" class="node">
<title>4</title>
<ellipse fill="lightblue" stroke="black" cx="144.84" cy="-166.52" rx="18" ry="18"/>
<text xml:space="preserve" text-anchor="middle" x="144.84" y="-161.47" font-family="Times,serif" font-size="14.00">5</text>
</g>
<!-- 1&#45;&#45;4 -->
<g id="edge5" class="edge">
<title>1&#45;&#45;4</title>
<path fill="none" stroke="black" d="M105.25,-117.52C113.63,-127.9 124.9,-141.84 133.27,-152.2"/>
</g>
<!-- 5 -->
<g id="node6" class="node">
<title>5</title>
<ellipse fill="lightblue" stroke="black" cx="173.16" cy="-119.35" rx="18" ry="18"/>
<text xml:space="preserve" text-anchor="middle" x="173.16" y="-114.3" font-family="Times,serif" font-size="14.00">6</text>
</g>
<!-- 1&#45;&#45;5 -->
<g id="edge6" class="edge">
<title>1&#45;&#45;5</title>
<path fill="none" stroke="black" d="M111.68,-106.82C124.69,-109.47 142.19,-113.03 155.19,-115.68"/>
</g>
<!-- 2&#45;&#45;3 -->
<g id="edge3" class="edge">
<title>2&#45;&#45;3</title>
<path fill="none" stroke="black" d="M20.13,-96.77C19.74,-104.43 19.3,-113.34 18.91,-121"/>
</g>
<!-- 4&#45;&#45;5 -->
<g id="edge7" class="edge">
<title>4&#45;&#45;5</title>
<path fill="none" stroke="black" d="M154.27,-150.81C157.3,-145.77 160.65,-140.19 163.68,-135.15"/>
</g>
<!-- 6 -->
<g id="node7" class="node">
<title>6</title>
<ellipse fill="lightblue" stroke="black" cx="224.31" cy="-183.18" rx="18" ry="18"/>
<text xml:space="preserve" text-anchor="middle" x="224.31" y="-178.13" font-family="Times,serif" font-size="14.00">7</text>
</g>
<!-- 4&#45;&#45;6 -->
<g id="edge8" class="edge">
<title>4&#45;&#45;6</title>
<path fill="none" stroke="black" d="M162.88,-170.3C175.88,-173.03 193.36,-176.69 206.35,-179.41"/>
</g>
<!-- 5&#45;&#45;6 -->
<g id="edge9" class="edge">
<title>5&#45;&#45;6</title>
<path fill="none" stroke="black" d="M184.51,-133.51C192.99,-144.09 204.52,-158.48 212.99,-169.05"/>
</g>
<!-- 7 -->
<g id="node8" class="node">
<title>7</title>
<ellipse fill="lightblue" stroke="black" cx="270.78" cy="-251.46" rx="18" ry="18"/>
<text xml:space="preserve" text-anchor="middle" x="270.78" y="-246.41" font-family="Times,serif" font-size="14.00">8</text>
</g>
<!-- 6&#45;&#45;7 -->
<g id="edge10" class="edge">
<title>6&#45;&#45;7</title>
<path fill="none" stroke="black" d="M234.63,-198.33C242.33,-209.65 252.8,-225.04 260.49,-236.35"/>
</g>
<!-- 10 -->
<g id="node11" class="node">
<title>10</title>
<ellipse fill="lightblue" stroke="black" cx="300.89" cy="-179.91" rx="20.13" ry="20.13"/>
<text xml:space="preserve" text-anchor="middle" x="300.89" y="-174.86" font-family="Times,serif" font-size="14.00">11</text>
</g>
<!-- 6&#45;&#45;10 -->
<g id="edge11" class="edge">
<title>6&#45;&#45;10</title>
<path fill="none" stroke="black" d="M242.46,-182.4C253.87,-181.92 268.62,-181.29 280.44,-180.78"/>
</g>
<!-- 8 -->
<g id="node9" class="node">
<title>8</title>
<ellipse fill="lightblue" stroke="black" cx="349.01" cy="-219.88" rx="18" ry="18"/>
<text xml:space="preserve" text-anchor="middle" x="349.01" y="-214.83" font-family="Times,serif" font-size="14.00">9</text>
</g>
<!-- 7&#45;&#45;8 -->
<g id="edge18" class="edge">
<title>7&#45;&#45;8</title>
<path fill="none" stroke="black" d="M287.75,-244.6C300.88,-239.31 318.96,-232.01 332.07,-226.71"/>
</g>
<!-- 7&#45;&#45;10 -->
<g id="edge19" class="edge">
<title>7&#45;&#45;10</title>
<path fill="none" stroke="black" d="M277.91,-234.5C282.43,-223.76 288.29,-209.85 292.96,-198.76"/>
</g>
<!-- 11 -->
<g id="node12" class="node">
<title>11</title>
<ellipse fill="lightblue" stroke="black" cx="263.89" cy="-324.56" rx="20.13" ry="20.13"/>
<text xml:space="preserve" text-anchor="middle" x="263.89" y="-319.51" font-family="Times,serif" font-size="14.00">12</text>
</g>
<!-- 7&#45;&#45;11 -->
<g id="edge12" class="edge">
<title>7&#45;&#45;11</title>
<path fill="none" stroke="black" d="M269.07,-269.53C268.09,-280.01 266.84,-293.25 265.81,-304.12"/>
</g>
<!-- 13 -->
<g id="node14" class="node">
<title>13</title>
<ellipse fill="lightblue" stroke="black" cx="215.65" cy="-319.43" rx="20.13" ry="20.13"/>
<text xml:space="preserve" text-anchor="middle" x="215.65" y="-314.38" font-family="Times,serif" font-size="14.00">14</text>
</g>
<!-- 7&#45;&#45;13 -->
<g id="edge14" class="edge">
<title>7&#45;&#45;13</title>
<path fill="none" stroke="black" d="M259.36,-265.54C250.4,-276.59 237.93,-291.96 228.61,-303.46"/>
</g>
<!-- 14 -->
<g id="node15" class="node">
<title>14</title>
<ellipse fill="lightblue" stroke="black" cx="315.33" cy="-327.63" rx="20.13" ry="20.13"/>
<text xml:space="preserve" text-anchor="middle" x="315.33" y="-322.58" font-family="Times,serif" font-size="14.00">15</text>
</g>
<!-- 7&#45;&#45;14 -->
<g id="edge13" class="edge">
<title>7&#45;&#45;14</title>
<path fill="none" stroke="black" d="M280.01,-267.24C287.3,-279.7 297.46,-297.08 305.02,-310"/>
</g>
<!-- 9 -->
<g id="node10" class="node">
<title>9</title>
<ellipse fill="lightblue" stroke="black" cx="379.63" cy="-149.22" rx="20.13" ry="20.13"/>
<text xml:space="preserve" text-anchor="middle" x="379.63" y="-144.17" font-family="Times,serif" font-size="14.00">10</text>
</g>
<!-- 8&#45;&#45;9 -->
<g id="edge21" class="edge">
<title>8&#45;&#45;9</title>
<path fill="none" stroke="black" d="M356.27,-203.13C360.83,-192.6 366.73,-178.99 371.46,-168.08"/>
</g>
<!-- 8&#45;&#45;10 -->
<g id="edge20" class="edge">
<title>8&#45;&#45;10</title>
<path fill="none" stroke="black" d="M334.83,-208.1C329.07,-203.31 322.38,-197.76 316.48,-192.86"/>
</g>
<!-- 9&#45;&#45;10 -->
<g id="edge22" class="edge">
<title>9&#45;&#45;10</title>
<path fill="none" stroke="black" d="M360.57,-156.65C348.28,-161.44 332.35,-167.65 320.05,-172.44"/>
</g>
<!-- 15 -->
<g id="node16" class="node">
<title>15</title>
<ellipse fill="lightblue" stroke="black" cx="389.39" cy="-66.32" rx="20.13" ry="20.13"/>
<text xml:space="preserve" text-anchor="middle" x="389.39" y="-61.27" font-family="Times,serif" font-size="14.00">16</text>
</g>
<!-- 9&#45;&#45;15 -->
<g id="edge23" class="edge">
<title>9&#45;&#45;15</title>
<path fill="none" stroke="black" d="M381.99,-129.15C383.51,-116.31 385.46,-99.69 386.98,-86.78"/>
</g>
<!-- 16 -->
<g id="node17" class="node">
<title>16</title>
<ellipse fill="lightblue" stroke="black" cx="451.99" cy="-120.64" rx="20.13" ry="20.13"/>
<text xml:space="preserve" text-anchor="middle" x="451.99" y="-115.59" font-family="Times,serif" font-size="14.00">17</text>
</g>
<!-- 9&#45;&#45;16 -->
<g id="edge24" class="edge">
<title>9&#45;&#45;16</title>
<path fill="none" stroke="black" d="M398.64,-141.71C409.19,-137.54 422.28,-132.37 432.85,-128.2"/>
</g>
<!-- 17 -->
<g id="node18" class="node">
<title>17</title>
<ellipse fill="lightblue" stroke="black" cx="458.22" cy="-179.63" rx="20.13" ry="20.13"/>
<text xml:space="preserve" text-anchor="middle" x="458.22" y="-174.58" font-family="Times,serif" font-size="14.00">18</text>
</g>
<!-- 9&#45;&#45;17 -->
<g id="edge25" class="edge">
<title>9&#45;&#45;17</title>
<path fill="none" stroke="black" d="M398.65,-156.58C410.92,-161.33 426.81,-167.48 439.09,-172.23"/>
</g>
<!-- 12 -->
<g id="node13" class="node">
<title>12</title>
<ellipse fill="lightblue" stroke="black" cx="261.04" cy="-391.15" rx="20.13" ry="20.13"/>
<text xml:space="preserve" text-anchor="middle" x="261.04" y="-386.1" font-family="Times,serif" font-size="14.00">13</text>
</g>
<!-- 11&#45;&#45;12 -->
<g id="edge16" class="edge">
<title>11&#45;&#45;12</title>
<path fill="none" stroke="black" d="M263.02,-344.9C262.66,-353.16 262.26,-362.68 261.9,-370.93"/>
</g>
<!-- 13&#45;&#45;12 -->
<g id="edge15" class="edge">
<title>13&#45;&#45;12</title>
<path fill="none" stroke="black" d="M226.64,-336.79C233.78,-348.07 243.04,-362.71 250.15,-373.95"/>
</g>
<!-- 14&#45;&#45;12 -->
<g id="edge17" class="edge">
<title>14&#45;&#45;12</title>
<path fill="none" stroke="black" d="M302.19,-343.01C293.78,-352.85 282.9,-365.58 274.44,-375.48"/>
</g>
<!-- 16&#45;&#45;17 -->
<g id="edge26" class="edge">
<title>16&#45;&#45;17</title>
<path fill="none" stroke="black" d="M454.13,-140.94C454.76,-146.94 455.46,-153.5 456.09,-159.49"/>
</g>
</g>
</svg>
