<?xml version="1.0" encoding="UTF-8" standalone="no"?>
<!DOCTYPE svg PUBLIC "-//W3C//DTD SVG 1.1//EN"
 "http://www.w3.org/Graphics/SVG/1.1/DTD/svg11.dtd">
<!-- Generated by graphviz version 13.1.0 (20250701.0955)
 -->
<!-- Pages: 1 -->
<svg width="338pt" height="794pt"
 viewBox="0.00 0.00 338.00 794.00" xmlns="http://www.w3.org/2000/svg" xmlns:xlink="http://www.w3.org/1999/xlink">
<g id="graph0" class="graph" transform="scale(1 1) rotate(0) translate(4 789.84)">
<polygon fill="white" stroke="none" points="-4,4 -4,-789.84 334.1,-789.84 334.1,4 -4,4"/>
<!-- 0 -->
<g id="node1" class="node">
<title>0</title>
<ellipse fill="lightblue" stroke="black" cx="271.13" cy="-767.84" rx="18" ry="18"/>
<text xml:space="preserve" text-anchor="middle" x="271.13" y="-762.79" font-family="Times,serif" font-size="14.00">1</text>
</g>
<!-- 1 -->
<g id="node2" class="node">
<title>1</title>
<ellipse fill="lightcoral" stroke="black" cx="271.13" cy="-695.84" rx="18" ry="18"/>
<text xml:space="preserve" text-anchor="middle" x="271.13" y="-690.79" font-family="Times,serif" font-size="14.00">2</text>
</g>
<!-- 0&#45;&gt;1 -->
<g id="edge1" class="edge">
<title>0&#45;&gt;1</title>
<path fill="none" stroke="black" d="M271.13,-749.53C271.13,-742.24 271.13,-733.56 271.13,-725.37"/>
<polygon fill="black" stroke="black" points="274.63,-725.45 271.13,-715.45 267.63,-725.45 274.63,-725.45"/>
</g>
<!-- 3 -->
<g id="node4" class="node">
<title>3</title>
<ellipse fill="lightblue" stroke="black" cx="202.13" cy="-623.84" rx="18" ry="18"/>
<text xml:space="preserve" text-anchor="middle" x="202.13" y="-618.79" font-family="Times,serif" font-size="14.00">4</text>
</g>
<!-- 1&#45;&gt;3 -->
<g id="edge4" class="edge">
<title>1&#45;&gt;3</title>
<path fill="none" stroke="black" d="M258.8,-682.32C248.69,-672.07 234.18,-657.35 222.38,-645.38"/>
<polygon fill="black" stroke="black" points="224.94,-642.98 215.42,-638.32 219.95,-647.9 224.94,-642.98"/>
</g>
<!-- 5 -->
<g id="node6" class="node">
<title>5</title>
<ellipse fill="lightblue" stroke="black" cx="294.13" cy="-623.84" rx="18" ry="18"/>
<text xml:space="preserve" text-anchor="middle" x="294.13" y="-618.79" font-family="Times,serif" font-size="14.00">6</text>
</g>
<!-- 1&#45;&gt;5 -->
<g id="edge6" class="edge">
<title>1&#45;&gt;5</title>
<path fill="none" stroke="black" d="M276.58,-678.25C279.16,-670.4 282.3,-660.83 285.22,-651.97"/>
<polygon fill="black" stroke="black" points="288.45,-653.34 288.25,-642.74 281.8,-651.15 288.45,-653.34"/>
</g>
<!-- 2 -->
<g id="node3" class="node">
<title>2</title>
<ellipse fill="lightblue" stroke="black" cx="202.13" cy="-551.84" rx="18" ry="18"/>
<text xml:space="preserve" text-anchor="middle" x="202.13" y="-546.79" font-family="Times,serif" font-size="14.00">3</text>
</g>
<!-- 2&#45;&gt;1 -->
<g id="edge2" class="edge">
<title>2&#45;&gt;1</title>
<path fill="none" stroke="black" stroke-dasharray="5,2" d="M210.05,-568.08C215.5,-578.64 222.86,-593.04 229.13,-605.84 239.43,-626.82 250.71,-650.8 258.99,-668.57"/>
<polygon fill="black" stroke="black" points="255.82,-670.04 263.2,-677.64 262.16,-667.09 255.82,-670.04"/>
</g>
<!-- 3&#45;&gt;2 -->
<g id="edge3" class="edge">
<title>3&#45;&gt;2</title>
<path fill="none" stroke="black" d="M202.13,-605.53C202.13,-598.24 202.13,-589.56 202.13,-581.37"/>
<polygon fill="black" stroke="black" points="205.63,-581.45 202.13,-571.45 198.63,-581.45 205.63,-581.45"/>
</g>
<!-- 4 -->
<g id="node5" class="node">
<title>4</title>
<ellipse fill="lightblue" stroke="black" cx="302.13" cy="-477.7" rx="18" ry="18"/>
<text xml:space="preserve" text-anchor="middle" x="302.13" y="-472.65" font-family="Times,serif" font-size="14.00">5</text>
</g>
<!-- 4&#45;&gt;1 -->
<g id="edge5" class="edge">
<title>4&#45;&gt;1</title>
<path fill="none" stroke="black" stroke-dasharray="5,2" d="M308.89,-494.65C320.55,-524.64 341.34,-590.96 321.13,-641.84 315.64,-655.66 304.65,-667.96 294.37,-677.23"/>
<polygon fill="black" stroke="black" points="292.22,-674.46 286.83,-683.57 296.73,-679.81 292.22,-674.46"/>
</g>
<!-- 4&#45;&gt;5 -->
<g id="edge7" class="edge">
<title>4&#45;&gt;5</title>
<path fill="none" stroke="black" stroke-dasharray="5,2" d="M301.16,-496.15C299.81,-520.53 297.34,-565.09 295.71,-594.33"/>
<polygon fill="black" stroke="black" points="292.24,-593.76 295.18,-603.94 299.23,-594.15 292.24,-593.76"/>
</g>
<!-- 6 -->
<g id="node7" class="node">
<title>6</title>
<ellipse fill="lightcoral" stroke="black" cx="256.13" cy="-551.84" rx="18" ry="18"/>
<text xml:space="preserve" text-anchor="middle" x="256.13" y="-546.79" font-family="Times,serif" font-size="14.00">7</text>
</g>
<!-- 5&#45;&gt;6 -->
<g id="edge9" class="edge">
<title>5&#45;&gt;6</title>
<path fill="none" stroke="black" d="M285.89,-607.65C281.16,-598.93 275.1,-587.78 269.69,-577.8"/>
<polygon fill="black" stroke="black" points="272.93,-576.44 265.08,-569.33 266.78,-579.78 272.93,-576.44"/>
</g>
<!-- 6&#45;&gt;4 -->
<g id="edge8" class="edge">
<title>6&#45;&gt;4</title>
<path fill="none" stroke="black" d="M265.44,-536.24C271.51,-526.72 279.58,-514.07 286.61,-503.05"/>
<polygon fill="black" stroke="black" points="289.44,-505.12 291.86,-494.8 283.54,-501.35 289.44,-505.12"/>
</g>
<!-- 10 -->
<g id="node11" class="node">
<title>10</title>
<ellipse fill="lightblue" stroke="black" cx="194.13" cy="-477.7" rx="20.13" ry="20.13"/>
<text xml:space="preserve" text-anchor="middle" x="194.13" y="-472.65" font-family="Times,serif" font-size="14.00">11</text>
</g>
<!-- 6&#45;&gt;10 -->
<g id="edge11" class="edge">
<title>6&#45;&gt;10</title>
<path fill="none" stroke="black" d="M244.76,-537.61C236.23,-527.69 224.35,-513.86 214.23,-502.09"/>
<polygon fill="black" stroke="black" points="217.09,-500.04 207.91,-494.74 211.78,-504.61 217.09,-500.04"/>
</g>
<!-- 7 -->
<g id="node8" class="node">
<title>7</title>
<ellipse fill="lightcoral" stroke="black" cx="218.13" cy="-248.92" rx="18" ry="18"/>
<text xml:space="preserve" text-anchor="middle" x="218.13" y="-243.87" font-family="Times,serif" font-size="14.00">8</text>
</g>
<!-- 7&#45;&gt;6 -->
<g id="edge10" class="edge">
<title>7&#45;&gt;6</title>
<path fill="none" stroke="black" stroke-dasharray="5,2" d="M220.31,-267.14C226.59,-316.92 244.82,-461.29 252.58,-522.68"/>
<polygon fill="black" stroke="black" points="249.06,-522.81 253.79,-532.29 256.01,-521.93 249.06,-522.81"/>
</g>
<!-- 7&#45;&gt;10 -->
<g id="edge19" class="edge">
<title>7&#45;&gt;10</title>
<path fill="none" stroke="black" stroke-dasharray="5,2" d="M216.29,-267.32C212.23,-305.67 202.47,-397.87 197.37,-446.11"/>
<polygon fill="black" stroke="black" points="193.91,-445.55 196.34,-455.86 200.87,-446.29 193.91,-445.55"/>
</g>
<!-- 13 -->
<g id="node14" class="node">
<title>13</title>
<ellipse fill="lightblue" stroke="black" cx="218.13" cy="-172.66" rx="20.13" ry="20.13"/>
<text xml:space="preserve" text-anchor="middle" x="218.13" y="-167.61" font-family="Times,serif" font-size="14.00">14</text>
</g>
<!-- 7&#45;&gt;13 -->
<g id="edge14" class="edge">
<title>7&#45;&gt;13</title>
<path fill="none" stroke="black" d="M218.13,-230.69C218.13,-222.89 218.13,-213.42 218.13,-204.45"/>
<polygon fill="black" stroke="black" points="221.63,-204.66 218.13,-194.66 214.63,-204.66 221.63,-204.66"/>
</g>
<!-- 8 -->
<g id="node9" class="node">
<title>8</title>
<ellipse fill="lightblue" stroke="black" cx="172.13" cy="-325.18" rx="18" ry="18"/>
<text xml:space="preserve" text-anchor="middle" x="172.13" y="-320.13" font-family="Times,serif" font-size="14.00">9</text>
</g>
<!-- 8&#45;&gt;7 -->
<g id="edge18" class="edge">
<title>8&#45;&gt;7</title>
<path fill="none" stroke="black" d="M181.22,-309.51C187.42,-299.5 195.77,-286.02 202.96,-274.4"/>
<polygon fill="black" stroke="black" points="205.82,-276.44 208.11,-266.1 199.87,-272.76 205.82,-276.44"/>
</g>
<!-- 8&#45;&gt;10 -->
<g id="edge20" class="edge">
<title>8&#45;&gt;10</title>
<path fill="none" stroke="black" stroke-dasharray="5,2" d="M174.61,-343.16C178.27,-368.15 185.15,-415.24 189.69,-446.3"/>
<polygon fill="black" stroke="black" points="186.17,-446.45 191.08,-455.84 193.1,-445.44 186.17,-446.45"/>
</g>
<!-- 9 -->
<g id="node10" class="node">
<title>9</title>
<ellipse fill="lightcoral" stroke="black" cx="116.13" cy="-401.44" rx="20.13" ry="20.13"/>
<text xml:space="preserve" text-anchor="middle" x="116.13" y="-396.39" font-family="Times,serif" font-size="14.00">10</text>
</g>
<!-- 9&#45;&gt;8 -->
<g id="edge21" class="edge">
<title>9&#45;&gt;8</title>
<path fill="none" stroke="black" d="M128.01,-384.69C135.83,-374.32 146.21,-360.56 154.93,-348.99"/>
<polygon fill="black" stroke="black" points="157.64,-351.21 160.87,-341.12 152.05,-346.99 157.64,-351.21"/>
</g>
<!-- 15 -->
<g id="node16" class="node">
<title>15</title>
<ellipse fill="lightblue" stroke="black" cx="116.13" cy="-325.18" rx="20.13" ry="20.13"/>
<text xml:space="preserve" text-anchor="middle" x="116.13" y="-320.13" font-family="Times,serif" font-size="14.00">16</text>
</g>
<!-- 9&#45;&gt;15 -->
<g id="edge23" class="edge">
<title>9&#45;&gt;15</title>
<path fill="none" stroke="black" d="M116.13,-380.93C116.13,-373.6 116.13,-365.07 116.13,-356.96"/>
<polygon fill="black" stroke="black" points="119.63,-357.07 116.13,-347.07 112.63,-357.07 119.63,-357.07"/>
</g>
<!-- 17 -->
<g id="node18" class="node">
<title>17</title>
<ellipse fill="lightblue" stroke="black" cx="20.13" cy="-325.18" rx="20.13" ry="20.13"/>
<text xml:space="preserve" text-anchor="middle" x="20.13" y="-320.13" font-family="Times,serif" font-size="14.00">18</text>
</g>
<!-- 9&#45;&gt;17 -->
<g id="edge25" class="edge">
<title>9&#45;&gt;17</title>
<path fill="none" stroke="black" d="M100.71,-388.51C85.54,-376.78 62.16,-358.69 44.49,-345.02"/>
<polygon fill="black" stroke="black" points="47.08,-342.61 37.03,-339.25 42.8,-348.14 47.08,-342.61"/>
</g>
<!-- 10&#45;&gt;9 -->
<g id="edge22" class="edge">
<title>10&#45;&gt;9</title>
<path fill="none" stroke="black" d="M179.82,-463.08C168.28,-452.09 151.83,-436.43 138.54,-423.78"/>
<polygon fill="black" stroke="black" points="141.1,-421.38 131.44,-417.02 136.27,-426.45 141.1,-421.38"/>
</g>
<!-- 11 -->
<g id="node12" class="node">
<title>11</title>
<ellipse fill="lightblue" stroke="black" cx="189.13" cy="-20.13" rx="20.13" ry="20.13"/>
<text xml:space="preserve" text-anchor="middle" x="189.13" y="-15.08" font-family="Times,serif" font-size="14.00">12</text>
</g>
<!-- 11&#45;&gt;7 -->
<g id="edge12" class="edge">
<title>11&#45;&gt;7</title>
<path fill="none" stroke="black" stroke-dasharray="5,2" d="M186.15,-40.54C181.86,-72.74 175.84,-138.97 189.13,-192.79 191.81,-203.62 197.04,-214.67 202.33,-224.01"/>
<polygon fill="black" stroke="black" points="199.24,-225.68 207.41,-232.43 205.23,-222.06 199.24,-225.68"/>
</g>
<!-- 12 -->
<g id="node13" class="node">
<title>12</title>
<ellipse fill="lightblue" stroke="black" cx="218.13" cy="-96.39" rx="20.13" ry="20.13"/>
<text xml:space="preserve" text-anchor="middle" x="218.13" y="-91.34" font-family="Times,serif" font-size="14.00">13</text>
</g>
<!-- 12&#45;&gt;11 -->
<g id="edge16" class="edge">
<title>12&#45;&gt;11</title>
<path fill="none" stroke="black" d="M211.11,-77.42C207.92,-69.24 204.06,-59.35 200.47,-50.16"/>
<polygon fill="black" stroke="black" points="203.74,-48.91 196.84,-40.87 197.22,-51.46 203.74,-48.91"/>
</g>
<!-- 14 -->
<g id="node15" class="node">
<title>14</title>
<ellipse fill="lightblue" stroke="black" cx="256.13" cy="-20.13" rx="20.13" ry="20.13"/>
<text xml:space="preserve" text-anchor="middle" x="256.13" y="-15.08" font-family="Times,serif" font-size="14.00">15</text>
</g>
<!-- 12&#45;&gt;14 -->
<g id="edge17" class="edge">
<title>12&#45;&gt;14</title>
<path fill="none" stroke="black" d="M226.94,-78.17C231.42,-69.42 236.97,-58.58 242.02,-48.71"/>
<polygon fill="black" stroke="black" points="245.1,-50.36 246.54,-39.87 238.87,-47.17 245.1,-50.36"/>
</g>
<!-- 13&#45;&gt;12 -->
<g id="edge15" class="edge">
<title>13&#45;&gt;12</title>
<path fill="none" stroke="black" d="M218.13,-152.14C218.13,-144.81 218.13,-136.28 218.13,-128.17"/>
<polygon fill="black" stroke="black" points="221.63,-128.29 218.13,-118.29 214.63,-128.29 221.63,-128.29"/>
</g>
<!-- 14&#45;&gt;7 -->
<g id="edge13" class="edge">
<title>14&#45;&gt;7</title>
<path fill="none" stroke="black" stroke-dasharray="5,2" d="M257.78,-40.61C259.93,-72.9 261.85,-139.27 247.13,-192.79 244.17,-203.55 238.89,-214.59 233.63,-223.94"/>
<polygon fill="black" stroke="black" points="230.72,-221.98 228.61,-232.37 236.74,-225.56 230.72,-221.98"/>
</g>
<!-- 16 -->
<g id="node17" class="node">
<title>16</title>
<ellipse fill="lightblue" stroke="black" cx="44.13" cy="-248.92" rx="20.13" ry="20.13"/>
<text xml:space="preserve" text-anchor="middle" x="44.13" y="-243.87" font-family="Times,serif" font-size="14.00">17</text>
</g>
<!-- 16&#45;&gt;9 -->
<g id="edge24" class="edge">
<title>16&#45;&gt;9</title>
<path fill="none" stroke="black" stroke-dasharray="5,2" d="M51.89,-268C60.27,-287.3 74.15,-318.7 87.13,-345.31 91.58,-354.43 96.67,-364.28 101.32,-373.08"/>
<polygon fill="black" stroke="black" points="98.21,-374.69 106,-381.86 104.39,-371.39 98.21,-374.69"/>
</g>
<!-- 17&#45;&gt;16 -->
<g id="edge26" class="edge">
<title>17&#45;&gt;16</title>
<path fill="none" stroke="black" d="M26.06,-305.82C28.64,-297.85 31.72,-288.31 34.61,-279.39"/>
<polygon fill="black" stroke="black" points="37.89,-280.61 37.63,-270.02 31.23,-278.46 37.89,-280.61"/>
</g>
</g>
</svg>
