<?xml version="1.0" encoding="UTF-8" standalone="no"?>
<!DOCTYPE svg PUBLIC "-//W3C//DTD SVG 1.1//EN"
 "http://www.w3.org/Graphics/SVG/1.1/DTD/svg11.dtd">
<!-- Generated by graphviz version 13.1.0 (20250701.0955)
 -->
<!-- Pages: 1 -->
<svg width="820pt" height="875pt"
 viewBox="0.00 0.00 820.00 875.00" xmlns="http://www.w3.org/2000/svg" xmlns:xlink="http://www.w3.org/1999/xlink">
<g id="graph0" class="graph" transform="scale(1 1) rotate(0) translate(4 871.02)">
<polygon fill="white" stroke="none" points="-4,4 -4,-871.02 815.9,-871.02 815.9,4 -4,4"/>
<g id="clust1" class="cluster">
<title>cluster_0</title>
<polygon fill="lightgreen" stroke="lightgreen" points="241.43,-736.05 241.43,-850.55 353.31,-850.55 353.31,-736.05 241.43,-736.05"/>
</g>
<g id="clust2" class="cluster">
<title>cluster_1</title>
<polygon fill="lightgreen" stroke="lightgreen" points="436.99,-756.73 436.99,-867.02 513.36,-867.02 513.36,-756.73 436.99,-756.73"/>
</g>
<g id="clust3" class="cluster">
<title>cluster_2</title>
<polygon fill="lightgreen" stroke="lightgreen" points="645.36,-381.4 645.36,-537.05 811.9,-537.05 811.9,-381.4 645.36,-381.4"/>
</g>
<g id="clust4" class="cluster">
<title>cluster_3</title>
<polygon fill="lightgreen" stroke="lightgreen" points="402.37,-452.94 402.37,-649.6 519.66,-649.6 519.66,-452.94 402.37,-452.94"/>
</g>
<g id="clust5" class="cluster">
<title>cluster_4</title>
<polygon fill="lightgreen" stroke="lightgreen" points="215.75,-216.58 215.75,-365.74 344.28,-365.74 344.28,-216.58 215.75,-216.58"/>
</g>
<g id="clust6" class="cluster">
<title>cluster_5</title>
<polygon fill="lightgreen" stroke="lightgreen" points="139.43,0 139.43,-108.02 240.64,-108.02 240.64,0 139.43,0"/>
</g>
<g id="clust7" class="cluster">
<title>cluster_6</title>
<polygon fill="lightgreen" stroke="lightgreen" points="0,-161.31 0,-201.43 113.88,-201.43 113.88,-161.31 0,-161.31"/>
</g>
<!-- b_0_10 -->
<g id="node1" class="node">
<title>b_0_10</title>
<ellipse fill="lightblue" stroke="lightblue" cx="333.18" cy="-756.18" rx="20.13" ry="20.13"/>
<text xml:space="preserve" text-anchor="middle" x="333.18" y="-751.13" font-family="Times,serif" font-size="14.00">10</text>
</g>
<!-- b_0_17 -->
<g id="node2" class="node">
<title>b_0_17</title>
<ellipse fill="lightblue" stroke="lightblue" cx="261.56" cy="-785.37" rx="20.13" ry="20.13"/>
<text xml:space="preserve" text-anchor="middle" x="261.56" y="-780.32" font-family="Times,serif" font-size="14.00">17</text>
</g>
<!-- b_0_10&#45;&#45;b_0_17 -->
<g id="edge3" class="edge">
<title>b_0_10&#45;&#45;b_0_17</title>
<path fill="none" stroke="black" d="M314.36,-763.85C303.92,-768.11 290.96,-773.39 280.5,-777.65"/>
</g>
<!-- b_0_18 -->
<g id="node3" class="node">
<title>b_0_18</title>
<ellipse fill="lightblue" stroke="lightblue" cx="307.34" cy="-830.42" rx="20.13" ry="20.13"/>
<text xml:space="preserve" text-anchor="middle" x="307.34" y="-825.37" font-family="Times,serif" font-size="14.00">18</text>
</g>
<!-- b_0_10&#45;&#45;b_0_18 -->
<g id="edge1" class="edge">
<title>b_0_10&#45;&#45;b_0_18</title>
<path fill="none" stroke="black" d="M326.53,-775.3C322.7,-786.3 317.9,-800.08 314.06,-811.11"/>
</g>
<!-- cut10 -->
<g id="node28" class="node">
<title>cut10</title>
<ellipse fill="lightcoral" stroke="black" cx="403.42" cy="-711.63" rx="20.13" ry="20.13"/>
<text xml:space="preserve" text-anchor="middle" x="403.42" y="-706.58" font-family="Times,serif" font-size="14.00">10</text>
</g>
<!-- b_0_10&#45;&#45;cut10 -->
<g id="edge27" class="edge">
<title>b_0_10&#45;&#45;cut10</title>
<path fill="none" stroke="black" stroke-width="3" stroke-dasharray="5,2" d="M350.54,-745.17C361.43,-738.26 375.41,-729.4 386.26,-722.51"/>
</g>
<!-- b_0_17&#45;&#45;b_0_18 -->
<g id="edge2" class="edge">
<title>b_0_17&#45;&#45;b_0_18</title>
<path fill="none" stroke="black" d="M276.04,-799.63C281.39,-804.88 287.44,-810.84 292.79,-816.11"/>
</g>
<!-- b_1_10 -->
<g id="node4" class="node">
<title>b_1_10</title>
<ellipse fill="lightblue" stroke="lightblue" cx="457.13" cy="-776.86" rx="20.13" ry="20.13"/>
<text xml:space="preserve" text-anchor="middle" x="457.13" y="-771.81" font-family="Times,serif" font-size="14.00">10</text>
</g>
<!-- b_1_16 -->
<g id="node5" class="node">
<title>b_1_16</title>
<ellipse fill="lightblue" stroke="lightblue" cx="493.23" cy="-846.89" rx="20.13" ry="20.13"/>
<text xml:space="preserve" text-anchor="middle" x="493.23" y="-841.84" font-family="Times,serif" font-size="14.00">16</text>
</g>
<!-- b_1_10&#45;&#45;b_1_16 -->
<g id="edge4" class="edge">
<title>b_1_10&#45;&#45;b_1_16</title>
<path fill="none" stroke="black" d="M466.42,-794.9C471.77,-805.27 478.47,-818.27 483.84,-828.67"/>
</g>
<!-- b_1_10&#45;&#45;cut10 -->
<g id="edge28" class="edge">
<title>b_1_10&#45;&#45;cut10</title>
<path fill="none" stroke="black" stroke-width="3" stroke-dasharray="5,2" d="M444.13,-761.07C435.68,-750.81 424.72,-737.5 416.3,-727.27"/>
</g>
<!-- b_2_8 -->
<g id="node6" class="node">
<title>b_2_8</title>
<ellipse fill="lightblue" stroke="lightblue" cx="663.36" cy="-470.05" rx="18" ry="18"/>
<text xml:space="preserve" text-anchor="middle" x="663.36" y="-465" font-family="Times,serif" font-size="14.00">8</text>
</g>
<!-- b_2_12 -->
<g id="node7" class="node">
<title>b_2_12</title>
<ellipse fill="lightblue" stroke="lightblue" cx="730.04" cy="-458.37" rx="20.13" ry="20.13"/>
<text xml:space="preserve" text-anchor="middle" x="730.04" y="-453.32" font-family="Times,serif" font-size="14.00">12</text>
</g>
<!-- b_2_8&#45;&#45;b_2_12 -->
<g id="edge10" class="edge">
<title>b_2_8&#45;&#45;b_2_12</title>
<path fill="none" stroke="black" d="M681.58,-466.86C690.37,-465.32 700.94,-463.47 709.97,-461.89"/>
</g>
<!-- b_2_14 -->
<g id="node9" class="node">
<title>b_2_14</title>
<ellipse fill="lightblue" stroke="lightblue" cx="737.67" cy="-516.91" rx="20.13" ry="20.13"/>
<text xml:space="preserve" text-anchor="middle" x="737.67" y="-511.86" font-family="Times,serif" font-size="14.00">14</text>
</g>
<!-- b_2_8&#45;&#45;b_2_14 -->
<g id="edge5" class="edge">
<title>b_2_8&#45;&#45;b_2_14</title>
<path fill="none" stroke="black" d="M678.76,-479.76C690.91,-487.43 707.87,-498.12 720.47,-506.07"/>
</g>
<!-- b_2_15 -->
<g id="node10" class="node">
<title>b_2_15</title>
<ellipse fill="lightblue" stroke="lightblue" cx="717.11" cy="-401.54" rx="20.13" ry="20.13"/>
<text xml:space="preserve" text-anchor="middle" x="717.11" y="-396.49" font-family="Times,serif" font-size="14.00">15</text>
</g>
<!-- b_2_8&#45;&#45;b_2_15 -->
<g id="edge8" class="edge">
<title>b_2_8&#45;&#45;b_2_15</title>
<path fill="none" stroke="black" d="M674.76,-455.52C683.51,-444.37 695.59,-428.98 704.6,-417.48"/>
</g>
<!-- cut8 -->
<g id="node27" class="node">
<title>cut8</title>
<ellipse fill="lightcoral" stroke="black" cx="582.92" cy="-483.66" rx="18" ry="18"/>
<text xml:space="preserve" text-anchor="middle" x="582.92" y="-478.61" font-family="Times,serif" font-size="14.00">8</text>
</g>
<!-- b_2_8&#45;&#45;cut8 -->
<g id="edge29" class="edge">
<title>b_2_8&#45;&#45;cut8</title>
<path fill="none" stroke="black" stroke-width="3" stroke-dasharray="5,2" d="M645.51,-473.07C632.27,-475.31 614.29,-478.35 601,-480.6"/>
</g>
<!-- b_2_13 -->
<g id="node8" class="node">
<title>b_2_13</title>
<ellipse fill="lightblue" stroke="lightblue" cx="791.77" cy="-448.19" rx="20.13" ry="20.13"/>
<text xml:space="preserve" text-anchor="middle" x="791.77" y="-443.14" font-family="Times,serif" font-size="14.00">13</text>
</g>
<!-- b_2_12&#45;&#45;b_2_13 -->
<g id="edge9" class="edge">
<title>b_2_12&#45;&#45;b_2_13</title>
<path fill="none" stroke="black" d="M750.25,-455.04C757.15,-453.9 764.85,-452.63 771.72,-451.5"/>
</g>
<!-- b_2_14&#45;&#45;b_2_13 -->
<g id="edge6" class="edge">
<title>b_2_14&#45;&#45;b_2_13</title>
<path fill="none" stroke="black" d="M750.22,-500.98C758.96,-489.87 770.57,-475.13 779.29,-464.05"/>
</g>
<!-- b_2_15&#45;&#45;b_2_13 -->
<g id="edge7" class="edge">
<title>b_2_15&#45;&#45;b_2_13</title>
<path fill="none" stroke="black" d="M734.43,-412.36C746.4,-419.84 762.28,-429.76 774.29,-437.27"/>
</g>
<!-- b_3_7 -->
<g id="node11" class="node">
<title>b_3_7</title>
<ellipse fill="lightblue" stroke="lightblue" cx="429.2" cy="-470.94" rx="18" ry="18"/>
<text xml:space="preserve" text-anchor="middle" x="429.2" y="-465.89" font-family="Times,serif" font-size="14.00">7</text>
</g>
<!-- b_3_8 -->
<g id="node12" class="node">
<title>b_3_8</title>
<ellipse fill="lightblue" stroke="lightblue" cx="501.66" cy="-505.44" rx="18" ry="18"/>
<text xml:space="preserve" text-anchor="middle" x="501.66" y="-500.39" font-family="Times,serif" font-size="14.00">8</text>
</g>
<!-- b_3_7&#45;&#45;b_3_8 -->
<g id="edge17" class="edge">
<title>b_3_7&#45;&#45;b_3_8</title>
<path fill="none" stroke="black" d="M445.65,-478.77C457.42,-484.38 473.22,-491.9 485.03,-497.52"/>
</g>
<!-- b_3_11 -->
<g id="node15" class="node">
<title>b_3_11</title>
<ellipse fill="lightblue" stroke="lightblue" cx="437.1" cy="-547.8" rx="20.13" ry="20.13"/>
<text xml:space="preserve" text-anchor="middle" x="437.1" y="-542.75" font-family="Times,serif" font-size="14.00">11</text>
</g>
<!-- b_3_7&#45;&#45;b_3_11 -->
<g id="edge11" class="edge">
<title>b_3_7&#45;&#45;b_3_11</title>
<path fill="none" stroke="black" d="M431.07,-489.16C432.25,-500.61 433.77,-515.41 434.99,-527.28"/>
</g>
<!-- cut7 -->
<g id="node26" class="node">
<title>cut7</title>
<ellipse fill="lightcoral" stroke="black" cx="376.81" cy="-409.07" rx="18" ry="18"/>
<text xml:space="preserve" text-anchor="middle" x="376.81" y="-404.02" font-family="Times,serif" font-size="14.00">7</text>
</g>
<!-- b_3_7&#45;&#45;cut7 -->
<g id="edge30" class="edge">
<title>b_3_7&#45;&#45;cut7</title>
<path fill="none" stroke="black" stroke-width="3" stroke-dasharray="5,2" d="M417.31,-456.9C408.74,-446.78 397.22,-433.17 388.65,-423.06"/>
</g>
<!-- b_3_9 -->
<g id="node13" class="node">
<title>b_3_9</title>
<ellipse fill="lightblue" stroke="lightblue" cx="487.15" cy="-587.86" rx="18" ry="18"/>
<text xml:space="preserve" text-anchor="middle" x="487.15" y="-582.81" font-family="Times,serif" font-size="14.00">9</text>
</g>
<!-- b_3_8&#45;&#45;b_3_9 -->
<g id="edge15" class="edge">
<title>b_3_8&#45;&#45;b_3_9</title>
<path fill="none" stroke="black" d="M498.51,-523.32C496.09,-537.05 492.77,-555.94 490.34,-569.73"/>
</g>
<!-- b_3_8&#45;&#45;b_3_11 -->
<g id="edge16" class="edge">
<title>b_3_8&#45;&#45;b_3_11</title>
<path fill="none" stroke="black" d="M486.36,-515.48C476.67,-521.84 464.11,-530.07 454.1,-536.64"/>
</g>
<!-- b_3_8&#45;&#45;cut8 -->
<g id="edge31" class="edge">
<title>b_3_8&#45;&#45;cut8</title>
<path fill="none" stroke="black" stroke-width="3" stroke-dasharray="5,2" d="M519.29,-500.71C532.92,-497.06 551.7,-492.03 565.32,-488.38"/>
</g>
<!-- b_3_10 -->
<g id="node14" class="node">
<title>b_3_10</title>
<ellipse fill="lightblue" stroke="lightblue" cx="422.5" cy="-629.46" rx="20.13" ry="20.13"/>
<text xml:space="preserve" text-anchor="middle" x="422.5" y="-624.41" font-family="Times,serif" font-size="14.00">10</text>
</g>
<!-- b_3_9&#45;&#45;b_3_10 -->
<g id="edge13" class="edge">
<title>b_3_9&#45;&#45;b_3_10</title>
<path fill="none" stroke="black" d="M471.83,-597.72C462.12,-603.97 449.55,-612.06 439.53,-618.51"/>
</g>
<!-- b_3_9&#45;&#45;b_3_11 -->
<g id="edge14" class="edge">
<title>b_3_9&#45;&#45;b_3_11</title>
<path fill="none" stroke="black" d="M472.94,-576.49C466.7,-571.49 459.34,-565.61 452.92,-560.47"/>
</g>
<!-- b_3_10&#45;&#45;b_3_11 -->
<g id="edge12" class="edge">
<title>b_3_10&#45;&#45;b_3_11</title>
<path fill="none" stroke="black" d="M426.11,-609.28C428.35,-596.71 431.23,-580.61 433.48,-568.04"/>
</g>
<!-- b_3_10&#45;&#45;cut10 -->
<g id="edge32" class="edge">
<title>b_3_10&#45;&#45;cut10</title>
<path fill="none" stroke="black" stroke-width="3" stroke-dasharray="5,2" d="M417.88,-649.35C414.91,-662.18 411.05,-678.79 408.06,-691.64"/>
</g>
<!-- b_4_2 -->
<g id="node16" class="node">
<title>b_4_2</title>
<ellipse fill="lightblue" stroke="lightblue" cx="233.75" cy="-234.58" rx="18" ry="18"/>
<text xml:space="preserve" text-anchor="middle" x="233.75" y="-229.53" font-family="Times,serif" font-size="14.00">2</text>
</g>
<!-- b_4_5 -->
<g id="node17" class="node">
<title>b_4_5</title>
<ellipse fill="lightblue" stroke="lightblue" cx="256.47" cy="-310.56" rx="18" ry="18"/>
<text xml:space="preserve" text-anchor="middle" x="256.47" y="-305.51" font-family="Times,serif" font-size="14.00">5</text>
</g>
<!-- b_4_2&#45;&#45;b_4_5 -->
<g id="edge22" class="edge">
<title>b_4_2&#45;&#45;b_4_5</title>
<path fill="none" stroke="black" d="M239.02,-252.2C242.69,-264.48 247.57,-280.78 251.23,-293.03"/>
</g>
<!-- b_4_6 -->
<g id="node18" class="node">
<title>b_4_6</title>
<ellipse fill="lightblue" stroke="lightblue" cx="303.99" cy="-271.89" rx="18" ry="18"/>
<text xml:space="preserve" text-anchor="middle" x="303.99" y="-266.84" font-family="Times,serif" font-size="14.00">6</text>
</g>
<!-- b_4_2&#45;&#45;b_4_6 -->
<g id="edge18" class="edge">
<title>b_4_2&#45;&#45;b_4_6</title>
<path fill="none" stroke="black" d="M250.04,-243.23C261.39,-249.26 276.46,-257.26 287.79,-263.28"/>
</g>
<!-- cut2 -->
<g id="node25" class="node">
<title>cut2</title>
<ellipse fill="lightcoral" stroke="black" cx="179.4" cy="-172.55" rx="18" ry="18"/>
<text xml:space="preserve" text-anchor="middle" x="179.4" y="-167.5" font-family="Times,serif" font-size="14.00">2</text>
</g>
<!-- b_4_2&#45;&#45;cut2 -->
<g id="edge33" class="edge">
<title>b_4_2&#45;&#45;cut2</title>
<path fill="none" stroke="black" stroke-width="3" stroke-dasharray="5,2" d="M221.69,-220.81C212.68,-210.53 200.43,-196.55 191.43,-186.28"/>
</g>
<!-- b_4_5&#45;&#45;b_4_6 -->
<g id="edge21" class="edge">
<title>b_4_5&#45;&#45;b_4_6</title>
<path fill="none" stroke="black" d="M270.73,-298.96C276.74,-294.06 283.73,-288.38 289.74,-283.48"/>
</g>
<!-- b_4_7 -->
<g id="node19" class="node">
<title>b_4_7</title>
<ellipse fill="lightblue" stroke="lightblue" cx="326.28" cy="-347.74" rx="18" ry="18"/>
<text xml:space="preserve" text-anchor="middle" x="326.28" y="-342.69" font-family="Times,serif" font-size="14.00">7</text>
</g>
<!-- b_4_5&#45;&#45;b_4_7 -->
<g id="edge20" class="edge">
<title>b_4_5&#45;&#45;b_4_7</title>
<path fill="none" stroke="black" d="M272.66,-319.18C283.94,-325.19 298.92,-333.17 310.18,-339.16"/>
</g>
<!-- b_4_6&#45;&#45;b_4_7 -->
<g id="edge19" class="edge">
<title>b_4_6&#45;&#45;b_4_7</title>
<path fill="none" stroke="black" d="M309.16,-289.48C312.76,-301.73 317.54,-318.01 321.14,-330.24"/>
</g>
<!-- b_4_7&#45;&#45;cut7 -->
<g id="edge34" class="edge">
<title>b_4_7&#45;&#45;cut7</title>
<path fill="none" stroke="black" stroke-width="3" stroke-dasharray="5,2" d="M338,-361.96C346.17,-371.87 357.01,-385.03 365.16,-394.93"/>
</g>
<!-- b_5_2 -->
<g id="node20" class="node">
<title>b_5_2</title>
<ellipse fill="lightblue" stroke="lightblue" cx="193.05" cy="-90.02" rx="18" ry="18"/>
<text xml:space="preserve" text-anchor="middle" x="193.05" y="-84.97" font-family="Times,serif" font-size="14.00">2</text>
</g>
<!-- b_5_3 -->
<g id="node21" class="node">
<title>b_5_3</title>
<ellipse fill="lightblue" stroke="lightblue" cx="222.64" cy="-18" rx="18" ry="18"/>
<text xml:space="preserve" text-anchor="middle" x="222.64" y="-12.95" font-family="Times,serif" font-size="14.00">3</text>
</g>
<!-- b_5_2&#45;&#45;b_5_3 -->
<g id="edge25" class="edge">
<title>b_5_2&#45;&#45;b_5_3</title>
<path fill="none" stroke="black" d="M200.07,-72.95C204.78,-61.47 210.97,-46.4 215.68,-34.95"/>
</g>
<!-- b_5_4 -->
<g id="node22" class="node">
<title>b_5_4</title>
<ellipse fill="lightblue" stroke="lightblue" cx="157.43" cy="-21.78" rx="18" ry="18"/>
<text xml:space="preserve" text-anchor="middle" x="157.43" y="-16.73" font-family="Times,serif" font-size="14.00">4</text>
</g>
<!-- b_5_2&#45;&#45;b_5_4 -->
<g id="edge23" class="edge">
<title>b_5_2&#45;&#45;b_5_4</title>
<path fill="none" stroke="black" d="M184.61,-73.85C178.93,-62.97 171.48,-48.69 165.81,-37.84"/>
</g>
<!-- b_5_2&#45;&#45;cut2 -->
<g id="edge35" class="edge">
<title>b_5_2&#45;&#45;cut2</title>
<path fill="none" stroke="black" stroke-width="3" stroke-dasharray="5,2" d="M190.09,-107.93C187.82,-121.68 184.69,-140.59 182.41,-154.4"/>
</g>
<!-- b_5_3&#45;&#45;b_5_4 -->
<g id="edge24" class="edge">
<title>b_5_3&#45;&#45;b_5_4</title>
<path fill="none" stroke="black" d="M204.47,-19.05C195.43,-19.58 184.53,-20.21 175.5,-20.73"/>
</g>
<!-- b_6_1 -->
<g id="node23" class="node">
<title>b_6_1</title>
<ellipse fill="lightblue" stroke="lightblue" cx="18" cy="-179.31" rx="18" ry="18"/>
<text xml:space="preserve" text-anchor="middle" x="18" y="-174.26" font-family="Times,serif" font-size="14.00">1</text>
</g>
<!-- b_6_2 -->
<g id="node24" class="node">
<title>b_6_2</title>
<ellipse fill="lightblue" stroke="lightblue" cx="95.88" cy="-183.43" rx="18" ry="18"/>
<text xml:space="preserve" text-anchor="middle" x="95.88" y="-178.38" font-family="Times,serif" font-size="14.00">2</text>
</g>
<!-- b_6_1&#45;&#45;b_6_2 -->
<g id="edge26" class="edge">
<title>b_6_1&#45;&#45;b_6_2</title>
<path fill="none" stroke="black" d="M36.46,-180.29C48.87,-180.94 65.17,-181.8 77.56,-182.46"/>
</g>
<!-- b_6_2&#45;&#45;cut2 -->
<g id="edge36" class="edge">
<title>b_6_2&#45;&#45;cut2</title>
<path fill="none" stroke="black" stroke-width="3" stroke-dasharray="5,2" d="M114.01,-181.07C128.01,-179.24 147.31,-176.73 161.31,-174.91"/>
</g>
</g>
</svg>
