<?xml version="1.0" encoding="UTF-8" standalone="no"?>
<!DOCTYPE svg PUBLIC "-//W3C//DTD SVG 1.1//EN"
 "http://www.w3.org/Graphics/SVG/1.1/DTD/svg11.dtd">
<!-- Generated by graphviz version 13.1.0 (20250701.0955)
 -->
<!-- Pages: 1 -->
<svg width="363pt" height="481pt"
 viewBox="0.00 0.00 363.00 481.00" xmlns="http://www.w3.org/2000/svg" xmlns:xlink="http://www.w3.org/1999/xlink">
<g id="graph0" class="graph" transform="scale(1 1) rotate(0) translate(4 476.54)">
<polygon fill="white" stroke="none" points="-4,4 -4,-476.54 359.45,-476.54 359.45,4 -4,4"/>
<!-- block0 -->
<g id="node1" class="node">
<title>block0</title>
<polygon fill="lightgreen" stroke="black" points="76.4,-420.64 22.4,-420.64 22.4,-384.64 76.4,-384.64 76.4,-420.64"/>
<text xml:space="preserve" text-anchor="middle" x="49.4" y="-397.59" font-family="Times,serif" font-size="14.00">B0</text>
</g>
<!-- cut10 -->
<g id="node11" class="node">
<title>cut10</title>
<ellipse fill="lightcoral" stroke="black" cx="124.93" cy="-377.33" rx="20.13" ry="20.13"/>
<text xml:space="preserve" text-anchor="middle" x="124.93" y="-372.28" font-family="Times,serif" font-size="14.00">10</text>
</g>
<!-- block0&#45;&#45;cut10 -->
<g id="edge1" class="edge">
<title>block0&#45;&#45;cut10</title>
<path fill="none" stroke="black" stroke-width="2" d="M76.67,-393.5C86.3,-390.27 96.93,-386.71 105.75,-383.75"/>
</g>
<!-- block1 -->
<g id="node2" class="node">
<title>block1</title>
<polygon fill="lightgreen" stroke="black" points="171.11,-472.54 117.11,-472.54 117.11,-436.54 171.11,-436.54 171.11,-472.54"/>
<text xml:space="preserve" text-anchor="middle" x="144.11" y="-449.49" font-family="Times,serif" font-size="14.00">B1</text>
</g>
<!-- block1&#45;&#45;cut10 -->
<g id="edge2" class="edge">
<title>block1&#45;&#45;cut10</title>
<path fill="none" stroke="black" stroke-width="2" d="M139.56,-436.24C136.64,-424.46 132.84,-409.17 129.84,-397.12"/>
</g>
<!-- block2 -->
<g id="node3" class="node">
<title>block2</title>
<polygon fill="lightgreen" stroke="black" points="355.45,-349.92 301.45,-349.92 301.45,-313.92 355.45,-313.92 355.45,-349.92"/>
<text xml:space="preserve" text-anchor="middle" x="328.45" y="-326.87" font-family="Times,serif" font-size="14.00">B2</text>
</g>
<!-- cut9 -->
<g id="node10" class="node">
<title>cut9</title>
<ellipse fill="lightcoral" stroke="black" cx="253.39" cy="-317.95" rx="18" ry="18"/>
<text xml:space="preserve" text-anchor="middle" x="253.39" y="-312.9" font-family="Times,serif" font-size="14.00">8</text>
</g>
<!-- block2&#45;&#45;cut9 -->
<g id="edge3" class="edge">
<title>block2&#45;&#45;cut9</title>
<path fill="none" stroke="black" stroke-width="2" d="M301.35,-326.88C291.44,-325.03 280.48,-322.99 271.54,-321.33"/>
</g>
<!-- block3 -->
<g id="node4" class="node">
<title>block3</title>
<polygon fill="lightgreen" stroke="black" points="198.82,-326.17 144.82,-326.17 144.82,-290.17 198.82,-290.17 198.82,-326.17"/>
<text xml:space="preserve" text-anchor="middle" x="171.82" y="-303.12" font-family="Times,serif" font-size="14.00">B3</text>
</g>
<!-- cut8 -->
<g id="node9" class="node">
<title>cut8</title>
<ellipse fill="lightcoral" stroke="black" cx="145.27" cy="-231.79" rx="18" ry="18"/>
<text xml:space="preserve" text-anchor="middle" x="145.27" y="-226.74" font-family="Times,serif" font-size="14.00">7</text>
</g>
<!-- block3&#45;&#45;cut8 -->
<g id="edge4" class="edge">
<title>block3&#45;&#45;cut8</title>
<path fill="none" stroke="black" stroke-width="2" d="M165.4,-289.68C161.1,-277.32 155.48,-261.16 151.27,-249.06"/>
</g>
<!-- block3&#45;&#45;cut9 -->
<g id="edge5" class="edge">
<title>block3&#45;&#45;cut9</title>
<path fill="none" stroke="black" stroke-width="2" d="M198.99,-311.43C210.85,-312.85 224.45,-314.48 235.09,-315.76"/>
</g>
<!-- block3&#45;&#45;cut10 -->
<g id="edge6" class="edge">
<title>block3&#45;&#45;cut10</title>
<path fill="none" stroke="black" stroke-width="2" d="M159.5,-326.34C152.34,-336.9 143.37,-350.13 136.36,-360.46"/>
</g>
<!-- block4 -->
<g id="node5" class="node">
<title>block4</title>
<polygon fill="lightgreen" stroke="black" points="149.49,-176.53 95.49,-176.53 95.49,-140.53 149.49,-140.53 149.49,-176.53"/>
<text xml:space="preserve" text-anchor="middle" x="122.49" y="-153.48" font-family="Times,serif" font-size="14.00">B4</text>
</g>
<!-- cut7 -->
<g id="node8" class="node">
<title>cut7</title>
<ellipse fill="lightcoral" stroke="black" cx="99.99" cy="-83.82" rx="18" ry="18"/>
<text xml:space="preserve" text-anchor="middle" x="99.99" y="-78.77" font-family="Times,serif" font-size="14.00">2</text>
</g>
<!-- block4&#45;&#45;cut7 -->
<g id="edge8" class="edge">
<title>block4&#45;&#45;cut7</title>
<path fill="none" stroke="black" stroke-width="2" d="M116.93,-140.07C113.36,-128.23 108.76,-112.95 105.26,-101.31"/>
</g>
<!-- block4&#45;&#45;cut8 -->
<g id="edge7" class="edge">
<title>block4&#45;&#45;cut8</title>
<path fill="none" stroke="black" stroke-width="2" d="M128.24,-177.02C131.8,-188.46 136.34,-203.07 139.83,-214.32"/>
</g>
<!-- block5 -->
<g id="node6" class="node">
<title>block5</title>
<polygon fill="lightgreen" stroke="black" points="171.06,-36 117.06,-36 117.06,0 171.06,0 171.06,-36"/>
<text xml:space="preserve" text-anchor="middle" x="144.06" y="-12.95" font-family="Times,serif" font-size="14.00">B5</text>
</g>
<!-- block5&#45;&#45;cut7 -->
<g id="edge9" class="edge">
<title>block5&#45;&#45;cut7</title>
<path fill="none" stroke="black" stroke-width="2" d="M131.78,-36.33C124.96,-46.53 116.57,-59.06 110.12,-68.69"/>
</g>
<!-- block6 -->
<g id="node7" class="node">
<title>block6</title>
<polygon fill="lightgreen" stroke="black" points="54,-71.09 0,-71.09 0,-35.09 54,-35.09 54,-71.09"/>
<text xml:space="preserve" text-anchor="middle" x="27" y="-48.04" font-family="Times,serif" font-size="14.00">B6</text>
</g>
<!-- block6&#45;&#45;cut7 -->
<g id="edge10" class="edge">
<title>block6&#45;&#45;cut7</title>
<path fill="none" stroke="black" stroke-width="2" d="M54.18,-64.54C63.91,-68.63 74.58,-73.12 83.18,-76.74"/>
</g>
</g>
</svg>
