<svg xmlns="http://www.w3.org/2000/svg" viewBox="0 0 1000 1000">
  <rect width="100%" height="100%" fill="white" />
  <g stroke="#999" stroke-width="1">
    <line x1="50" y1="950" x2="950" y2="950" />
    <line x1="50" y1="725" x2="950" y2="725" />
    <line x1="50" y1="500" x2="950" y2="500" />
    <line x1="50" y1="275" x2="950" y2="275" />
    <line x1="50" y1="50" x2="950" y2="50" />
    <line x1="50" y1="950" x2="50" y2="50" />
    <line x1="275" y1="950" x2="275" y2="50" />
    <line x1="500" y1="950" x2="500" y2="50" />
    <line x1="725" y1="950" x2="725" y2="50" />
    <line x1="950" y1="950" x2="950" y2="50" />
  </g>
  <line x1="950" y1="725" x2="275" y2="950" stroke="black" stroke-width="2" marker-end="url(#arrow)"/>
  <line x1="275" y1="950" x2="950" y2="725" stroke="black" stroke-width="2" marker-end="url(#arrow)"/>
  <line x1="275" y1="950" x2="50" y2="50" stroke="black" stroke-width="2" marker-end="url(#arrow)"/>
  <line x1="950" y1="725" x2="50" y2="50" stroke="black" stroke-width="2" marker-end="url(#arrow)"/>
  <line x1="50" y1="50" x2="275" y2="950" stroke="black" stroke-width="2" marker-end="url(#arrow)"/>
  <line x1="50" y1="50" x2="950" y2="725" stroke="black" stroke-width="2" marker-end="url(#arrow)"/>
  <line x1="275" y1="500" x2="50" y2="50" stroke="green" stroke-width="2" marker-end="url(#arrow)"/>
  <line x1="725" y1="725" x2="50" y2="50" stroke="green" stroke-width="2" marker-end="url(#arrow)"/>
  <line x1="275" y1="500" x2="275" y2="950" stroke="red" stroke-width="2" marker-end="url(#arrow)"/>
  <line x1="275" y1="500" x2="725" y2="725" stroke="blue" stroke-width="2" marker-end="url(#arrow)"/>
  <line x1="500" y1="725" x2="275" y2="500" stroke="green" stroke-width="2" marker-end="url(#arrow)"/>
  <line x1="500" y1="725" x2="275" y2="950" stroke="red" stroke-width="2" marker-end="url(#arrow)"/>
  <line x1="500" y1="725" x2="725" y2="725" stroke="blue" stroke-width="2" marker-end="url(#arrow)"/>
  <line x1="725" y1="725" x2="275" y2="950" stroke="red" stroke-width="2" marker-end="url(#arrow)"/>
  <line x1="725" y1="725" x2="950" y2="725" stroke="blue" stroke-width="2" marker-end="url(#arrow)"/>
  <defs>
    <marker id="arrow" markerWidth="10" markerHeight="10" refX="18" refY="3" orient="auto" markerUnits="strokeWidth">
      <path d="M0,0 L0,6 L9,3 z" fill="#555" />
    </marker>
  </defs>
  <circle cx="275" cy="950" r="6" fill="black" />
  <text x="275" y="950" font-family="Arial" font-size="12" fill="white" text-anchor="middle" dy=".3em">0</text>
  <circle cx="725" cy="725" r="6" fill="black" />
  <text x="725" y="725" font-family="Arial" font-size="12" fill="white" text-anchor="middle" dy=".3em">1</text>
  <circle cx="950" cy="725" r="6" fill="black" />
  <text x="950" y="725" font-family="Arial" font-size="12" fill="white" text-anchor="middle" dy=".3em">2</text>
  <circle cx="50" cy="50" r="6" fill="black" />
  <text x="50" y="50" font-family="Arial" font-size="12" fill="white" text-anchor="middle" dy=".3em">3</text>
  <circle cx="275" cy="500" r="6" fill="black" />
  <text x="275" y="500" font-family="Arial" font-size="12" fill="white" text-anchor="middle" dy=".3em">4</text>
  <circle cx="500" cy="725" r="6" fill="black" />
  <text x="500" y="725" font-family="Arial" font-size="12" fill="white" text-anchor="middle" dy=".3em">5</text>
</svg>
