<?xml version="1.0" encoding="UTF-8" standalone="no"?>
<!DOCTYPE svg PUBLIC "-//W3C//DTD SVG 1.1//EN"
 "http://www.w3.org/Graphics/SVG/1.1/DTD/svg11.dtd">
<!-- Generated by graphviz version 13.1.0 (20250701.0955)
 -->
<!-- Title: components Pages: 1 -->
<svg width="483pt" height="631pt"
 viewBox="0.00 0.00 483.00 631.00" xmlns="http://www.w3.org/2000/svg" xmlns:xlink="http://www.w3.org/1999/xlink">
<g id="graph0" class="graph" transform="scale(1 1) rotate(0) translate(4 627)">
<title>components</title>
<polygon fill="white" stroke="none" points="-4,4 -4,-627 479.25,-627 479.25,4 -4,4"/>
<g id="clust1" class="cluster">
<title>cluster_S1</title>
<polygon fill="#ffe6e6" stroke="black" points="8,-8 8,-137 231,-137 231,-8 8,-8"/>
<text xml:space="preserve" text-anchor="middle" x="119.5" y="-119.7" font-family="Times,serif" font-size="14.00">S&#45;component (1)</text>
</g>
<g id="clust2" class="cluster">
<title>cluster_P2</title>
<polygon fill="#e6ffe6" stroke="black" points="8,-145 8,-300 145.5,-300 145.5,-145 8,-145"/>
<text xml:space="preserve" text-anchor="middle" x="76.75" y="-282.7" font-family="Times,serif" font-size="14.00">P&#45;component (2)</text>
</g>
<g id="clust3" class="cluster">
<title>cluster_S3</title>
<polygon fill="#ffe6e6" stroke="black" points="8,-308 8,-437 231,-437 231,-308 8,-308"/>
<text xml:space="preserve" text-anchor="middle" x="119.5" y="-419.7" font-family="Times,serif" font-size="14.00">S&#45;component (3)</text>
</g>
<g id="clust4" class="cluster">
<title>cluster_R4</title>
<polygon fill="#e6e6ff" stroke="black" points="8,-445 8,-615 467.25,-615 467.25,-445 8,-445"/>
<text xml:space="preserve" text-anchor="middle" x="237.62" y="-597.7" font-family="Times,serif" font-size="14.00">R&#45;component (4)</text>
</g>
<!-- S1_6 -->
<g id="node1" class="node">
<title>S1_6</title>
<ellipse fill="#ffcccc" stroke="black" cx="34" cy="-67" rx="18" ry="18"/>
<text xml:space="preserve" text-anchor="middle" x="34" y="-61.2" font-family="Helvetica,sans-Serif" font-size="14.00">6</text>
</g>
<!-- S1_7 -->
<g id="node2" class="node">
<title>S1_7</title>
<ellipse fill="#ffcccc" stroke="black" cx="119.5" cy="-34" rx="18" ry="18"/>
<text xml:space="preserve" text-anchor="middle" x="119.5" y="-28.2" font-family="Helvetica,sans-Serif" font-size="14.00">7</text>
</g>
<!-- S1_6&#45;&#45;S1_7 -->
<g id="edge1" class="edge">
<title>S1_6&#45;&#45;S1_7</title>
<path fill="none" stroke="black" d="M51.1,-60.64C65.79,-54.83 87.4,-46.29 102.16,-40.46"/>
<text xml:space="preserve" text-anchor="middle" x="76.75" y="-55.68" font-family="Times,serif" font-size="14.00">12</text>
</g>
<!-- S1_1 -->
<g id="node3" class="node">
<title>S1_1</title>
<ellipse fill="#ffcccc" stroke="black" cx="205" cy="-49" rx="18" ry="18"/>
<text xml:space="preserve" text-anchor="middle" x="205" y="-43.2" font-family="Helvetica,sans-Serif" font-size="14.00">1</text>
</g>
<!-- S1_6&#45;&#45;S1_1 -->
<g id="edge3" class="edge">
<title>S1_6&#45;&#45;S1_1</title>
<path fill="none" stroke="gray" stroke-dasharray="5,2" d="M52.02,-70.51C57.71,-71.53 64.1,-72.5 70,-73 104.54,-75.94 150.44,-67.71 169,-63 175.47,-61.36 182.34,-58.8 188.27,-56.32"/>
<text xml:space="preserve" text-anchor="middle" x="119.5" y="-76.3" font-family="Times,serif" font-size="14.00">13</text>
</g>
<!-- S1_7&#45;&#45;S1_1 -->
<g id="edge2" class="edge">
<title>S1_7&#45;&#45;S1_1</title>
<path fill="none" stroke="black" d="M137.4,-37.04C151.79,-39.62 172.38,-43.32 186.84,-45.92"/>
<text xml:space="preserve" text-anchor="middle" x="162.25" y="-45.6" font-family="Times,serif" font-size="14.00">6</text>
</g>
<!-- P2_1 -->
<g id="node4" class="node">
<title>P2_1</title>
<ellipse fill="#ccffcc" stroke="black" cx="34" cy="-211" rx="18" ry="18"/>
<text xml:space="preserve" text-anchor="middle" x="34" y="-205.2" font-family="Helvetica,sans-Serif" font-size="14.00">1</text>
</g>
<!-- P2_6 -->
<g id="node5" class="node">
<title>P2_6</title>
<ellipse fill="#ccffcc" stroke="black" cx="119.5" cy="-211" rx="18" ry="18"/>
<text xml:space="preserve" text-anchor="middle" x="119.5" y="-205.2" font-family="Helvetica,sans-Serif" font-size="14.00">6</text>
</g>
<!-- P2_1&#45;&#45;P2_6 -->
<g id="edge4" class="edge">
<title>P2_1&#45;&#45;P2_6</title>
<path fill="none" stroke="black" d="M44.29,-195.65C50.4,-187.1 59.26,-177.25 70,-172.5 85.63,-165.58 100.56,-182.11 109.62,-195.63"/>
<text xml:space="preserve" text-anchor="middle" x="76.75" y="-175.7" font-family="Times,serif" font-size="14.00">5</text>
</g>
<!-- P2_1&#45;&#45;P2_6 -->
<g id="edge6" class="edge">
<title>P2_1&#45;&#45;P2_6</title>
<path fill="none" stroke="gray" stroke-dasharray="5,2" d="M52.05,-209.39C61.35,-208.7 73.05,-208.13 83.5,-208.5 89.22,-208.7 95.46,-209.1 101.07,-209.51"/>
<text xml:space="preserve" text-anchor="middle" x="76.75" y="-211.7" font-family="Times,serif" font-size="14.00">14</text>
</g>
<!-- P2_6&#45;&#45;P2_1 -->
<g id="edge5" class="edge">
<title>P2_6&#45;&#45;P2_1</title>
<path fill="none" stroke="gray" stroke-dasharray="5,2" d="M103.78,-220.54C97.75,-223.92 90.54,-227.3 83.5,-229 71.63,-231.87 58.68,-226.61 49.15,-221.05"/>
<text xml:space="preserve" text-anchor="middle" x="76.75" y="-233.01" font-family="Times,serif" font-size="14.00">13</text>
</g>
<!-- S3_1 -->
<g id="node6" class="node">
<title>S3_1</title>
<ellipse fill="#ffcccc" stroke="black" cx="34" cy="-367" rx="18" ry="18"/>
<text xml:space="preserve" text-anchor="middle" x="34" y="-361.2" font-family="Helvetica,sans-Serif" font-size="14.00">1</text>
</g>
<!-- S3_6 -->
<g id="node7" class="node">
<title>S3_6</title>
<ellipse fill="#ffcccc" stroke="black" cx="119.5" cy="-334" rx="18" ry="18"/>
<text xml:space="preserve" text-anchor="middle" x="119.5" y="-328.2" font-family="Helvetica,sans-Serif" font-size="14.00">6</text>
</g>
<!-- S3_1&#45;&#45;S3_6 -->
<g id="edge7" class="edge">
<title>S3_1&#45;&#45;S3_6</title>
<path fill="none" stroke="gray" stroke-dasharray="5,2" d="M51.1,-360.64C65.79,-354.83 87.4,-346.29 102.16,-340.46"/>
<text xml:space="preserve" text-anchor="middle" x="76.75" y="-355.68" font-family="Times,serif" font-size="14.00">14</text>
</g>
<!-- S3_3 -->
<g id="node8" class="node">
<title>S3_3</title>
<ellipse fill="#ffcccc" stroke="black" cx="205" cy="-349" rx="18" ry="18"/>
<text xml:space="preserve" text-anchor="middle" x="205" y="-343.2" font-family="Helvetica,sans-Serif" font-size="14.00">3</text>
</g>
<!-- S3_1&#45;&#45;S3_3 -->
<g id="edge9" class="edge">
<title>S3_1&#45;&#45;S3_3</title>
<path fill="none" stroke="gray" stroke-dasharray="5,2" d="M52.02,-370.51C57.71,-371.53 64.1,-372.5 70,-373 104.54,-375.94 150.44,-367.71 169,-363 175.47,-361.36 182.34,-358.8 188.27,-356.32"/>
<text xml:space="preserve" text-anchor="middle" x="119.5" y="-376.3" font-family="Times,serif" font-size="14.00">15</text>
</g>
<!-- S3_6&#45;&#45;S3_3 -->
<g id="edge8" class="edge">
<title>S3_6&#45;&#45;S3_3</title>
<path fill="none" stroke="black" d="M137.4,-337.04C151.79,-339.62 172.38,-343.32 186.84,-345.92"/>
<text xml:space="preserve" text-anchor="middle" x="162.25" y="-345.6" font-family="Times,serif" font-size="14.00">10</text>
</g>
<!-- R4_0 -->
<g id="node9" class="node">
<title>R4_0</title>
<ellipse fill="#ccccff" stroke="black" cx="34" cy="-558" rx="18" ry="18"/>
<text xml:space="preserve" text-anchor="middle" x="34" y="-552.2" font-family="Helvetica,sans-Serif" font-size="14.00">0</text>
</g>
<!-- R4_2 -->
<g id="node10" class="node">
<title>R4_2</title>
<ellipse fill="#ccccff" stroke="black" cx="119.5" cy="-521" rx="18" ry="18"/>
<text xml:space="preserve" text-anchor="middle" x="119.5" y="-515.2" font-family="Helvetica,sans-Serif" font-size="14.00">2</text>
</g>
<!-- R4_0&#45;&#45;R4_2 -->
<g id="edge10" class="edge">
<title>R4_0&#45;&#45;R4_2</title>
<path fill="none" stroke="black" d="M49.21,-548.19C55.41,-544.2 62.87,-539.77 70,-536.5 80.28,-531.78 92.41,-527.91 101.96,-525.21"/>
<text xml:space="preserve" text-anchor="middle" x="76.75" y="-539.7" font-family="Times,serif" font-size="14.00">0</text>
</g>
<!-- R4_3 -->
<g id="node11" class="node">
<title>R4_3</title>
<ellipse fill="#ccccff" stroke="black" cx="205" cy="-471" rx="18" ry="18"/>
<text xml:space="preserve" text-anchor="middle" x="205" y="-465.2" font-family="Helvetica,sans-Serif" font-size="14.00">3</text>
</g>
<!-- R4_2&#45;&#45;R4_3 -->
<g id="edge11" class="edge">
<title>R4_2&#45;&#45;R4_3</title>
<path fill="none" stroke="black" d="M135.43,-512.06C150.53,-503.02 173.76,-489.11 188.92,-480.03"/>
<text xml:space="preserve" text-anchor="middle" x="162.25" y="-502.19" font-family="Times,serif" font-size="14.00">7</text>
</g>
<!-- R4_4 -->
<g id="node12" class="node">
<title>R4_4</title>
<ellipse fill="#ccccff" stroke="black" cx="283.75" cy="-525" rx="18" ry="18"/>
<text xml:space="preserve" text-anchor="middle" x="283.75" y="-519.2" font-family="Helvetica,sans-Serif" font-size="14.00">4</text>
</g>
<!-- R4_3&#45;&#45;R4_4 -->
<g id="edge12" class="edge">
<title>R4_3&#45;&#45;R4_4</title>
<path fill="none" stroke="black" d="M220.44,-481.16C234.16,-490.81 254.68,-505.25 268.38,-514.89"/>
<text xml:space="preserve" text-anchor="middle" x="244.38" y="-502.82" font-family="Times,serif" font-size="14.00">9</text>
</g>
<!-- R4_4&#45;&#45;R4_0 -->
<g id="edge14" class="edge">
<title>R4_4&#45;&#45;R4_0</title>
<path fill="none" stroke="black" d="M266.78,-532.19C256.72,-536.38 243.35,-541.35 231,-544 166.13,-557.93 86.69,-558.78 52.27,-558.38"/>
<text xml:space="preserve" text-anchor="middle" x="162.25" y="-557.79" font-family="Times,serif" font-size="14.00">1</text>
</g>
<!-- R4_4&#45;&#45;R4_2 -->
<g id="edge13" class="edge">
<title>R4_4&#45;&#45;R4_2</title>
<path fill="none" stroke="black" d="M265.51,-524.58C234.37,-523.81 169.09,-522.2 137.86,-521.43"/>
<text xml:space="preserve" text-anchor="middle" x="205" y="-526.92" font-family="Times,serif" font-size="14.00">8</text>
</g>
<!-- R4_1 -->
<g id="node13" class="node">
<title>R4_1</title>
<ellipse fill="#ccccff" stroke="black" cx="362.5" cy="-474" rx="18" ry="18"/>
<text xml:space="preserve" text-anchor="middle" x="362.5" y="-468.2" font-family="Helvetica,sans-Serif" font-size="14.00">1</text>
</g>
<!-- R4_4&#45;&#45;R4_1 -->
<g id="edge15" class="edge">
<title>R4_4&#45;&#45;R4_1</title>
<path fill="none" stroke="black" d="M299.19,-515.41C312.82,-506.35 333.17,-492.83 346.87,-483.72"/>
<text xml:space="preserve" text-anchor="middle" x="323.12" y="-504.23" font-family="Times,serif" font-size="14.00">3</text>
</g>
<!-- R4_1&#45;&#45;R4_3 -->
<g id="edge16" class="edge">
<title>R4_1&#45;&#45;R4_3</title>
<path fill="none" stroke="gray" stroke-dasharray="5,2" d="M344.19,-473.67C314.24,-473.09 253.13,-471.91 223.24,-471.33"/>
<text xml:space="preserve" text-anchor="middle" x="283.75" y="-476.05" font-family="Times,serif" font-size="14.00">15</text>
</g>
<!-- R4_5 -->
<g id="node14" class="node">
<title>R4_5</title>
<ellipse fill="#ccccff" stroke="black" cx="441.25" cy="-528" rx="18" ry="18"/>
<text xml:space="preserve" text-anchor="middle" x="441.25" y="-522.2" font-family="Helvetica,sans-Serif" font-size="14.00">5</text>
</g>
<!-- R4_1&#45;&#45;R4_5 -->
<g id="edge17" class="edge">
<title>R4_1&#45;&#45;R4_5</title>
<path fill="none" stroke="black" d="M377.94,-484.16C391.66,-493.81 412.18,-508.25 425.88,-517.89"/>
<text xml:space="preserve" text-anchor="middle" x="401.88" y="-505.82" font-family="Times,serif" font-size="14.00">4</text>
</g>
<!-- R4_5&#45;&#45;R4_0 -->
<g id="edge19" class="edge">
<title>R4_5&#45;&#45;R4_0</title>
<path fill="none" stroke="black" d="M423.98,-534.03C412.08,-538.23 395.48,-543.65 380.5,-547 282.15,-568.97 256.03,-582.02 155.5,-575 118.41,-572.41 75.36,-565.35 52.08,-561.18"/>
<text xml:space="preserve" text-anchor="middle" x="244.38" y="-578.55" font-family="Times,serif" font-size="14.00">2</text>
</g>
<!-- R4_5&#45;&#45;R4_4 -->
<g id="edge18" class="edge">
<title>R4_5&#45;&#45;R4_4</title>
<path fill="none" stroke="black" d="M422.94,-527.67C392.99,-527.09 331.88,-525.91 301.99,-525.33"/>
<text xml:space="preserve" text-anchor="middle" x="362.5" y="-530.05" font-family="Times,serif" font-size="14.00">11</text>
</g>
</g>
</svg>
