<?xml version="1.0" encoding="UTF-8" standalone="no"?>
<!DOCTYPE svg PUBLIC "-//W3C//DTD SVG 1.1//EN"
 "http://www.w3.org/Graphics/SVG/1.1/DTD/svg11.dtd">
<!-- Generated by graphviz version 13.1.0 (20250701.0955)
 -->
<!-- Title: components Pages: 1 -->
<svg width="490pt" height="787pt"
 viewBox="0.00 0.00 490.00 787.00" xmlns="http://www.w3.org/2000/svg" xmlns:xlink="http://www.w3.org/1999/xlink">
<g id="graph0" class="graph" transform="scale(1 1) rotate(0) translate(4 783)">
<title>components</title>
<polygon fill="white" stroke="none" points="-4,4 -4,-783 486,-783 486,4 -4,4"/>
<g id="clust1" class="cluster">
<title>cluster_S1</title>
<polygon fill="#ffe6e6" stroke="black" points="8,-8 8,-123 316.5,-123 316.5,-8 8,-8"/>
<text xml:space="preserve" text-anchor="middle" x="162.25" y="-105.7" font-family="Times,serif" font-size="14.00">S&#45;component (1)</text>
</g>
<g id="clust2" class="cluster">
<title>cluster_S2</title>
<polygon fill="#ffe6e6" stroke="black" points="8,-131 8,-260 231,-260 231,-131 8,-131"/>
<text xml:space="preserve" text-anchor="middle" x="119.5" y="-242.7" font-family="Times,serif" font-size="14.00">S&#45;component (2)</text>
</g>
<g id="clust3" class="cluster">
<title>cluster_S3</title>
<polygon fill="#ffe6e6" stroke="black" points="8,-268 8,-397 231,-397 231,-268 8,-268"/>
<text xml:space="preserve" text-anchor="middle" x="119.5" y="-379.7" font-family="Times,serif" font-size="14.00">S&#45;component (3)</text>
</g>
<g id="clust4" class="cluster">
<title>cluster_P4</title>
<polygon fill="#e6ffe6" stroke="black" points="8,-405 8,-560 145.5,-560 145.5,-405 8,-405"/>
<text xml:space="preserve" text-anchor="middle" x="76.75" y="-542.7" font-family="Times,serif" font-size="14.00">P&#45;component (4)</text>
</g>
<g id="clust5" class="cluster">
<title>cluster_R5</title>
<polygon fill="#e6e6ff" stroke="black" points="8,-568 8,-771 474,-771 474,-568 8,-568"/>
<text xml:space="preserve" text-anchor="middle" x="241" y="-753.7" font-family="Times,serif" font-size="14.00">R&#45;component (5)</text>
</g>
<!-- S1_7 -->
<g id="node1" class="node">
<title>S1_7</title>
<ellipse fill="#ffcccc" stroke="black" cx="119.5" cy="-35" rx="18" ry="18"/>
<text xml:space="preserve" text-anchor="middle" x="119.5" y="-29.2" font-family="Helvetica,sans-Serif" font-size="14.00">7</text>
</g>
<!-- S1_9 -->
<g id="node2" class="node">
<title>S1_9</title>
<ellipse fill="#ffcccc" stroke="black" cx="205" cy="-35" rx="18" ry="18"/>
<text xml:space="preserve" text-anchor="middle" x="205" y="-29.2" font-family="Helvetica,sans-Serif" font-size="14.00">9</text>
</g>
<!-- S1_7&#45;&#45;S1_9 -->
<g id="edge1" class="edge">
<title>S1_7&#45;&#45;S1_9</title>
<path fill="none" stroke="black" d="M137.8,-35C152.13,-35 172.4,-35 186.72,-35"/>
<text xml:space="preserve" text-anchor="middle" x="162.25" y="-38.2" font-family="Times,serif" font-size="14.00">15</text>
</g>
<!-- S1_3 -->
<g id="node3" class="node">
<title>S1_3</title>
<ellipse fill="#ffcccc" stroke="black" cx="290.5" cy="-35" rx="18" ry="18"/>
<text xml:space="preserve" text-anchor="middle" x="290.5" y="-29.2" font-family="Helvetica,sans-Serif" font-size="14.00">3</text>
</g>
<!-- S1_9&#45;&#45;S1_3 -->
<g id="edge2" class="edge">
<title>S1_9&#45;&#45;S1_3</title>
<path fill="none" stroke="black" d="M223.3,-35C237.63,-35 257.9,-35 272.22,-35"/>
<text xml:space="preserve" text-anchor="middle" x="247.75" y="-38.2" font-family="Times,serif" font-size="14.00">11</text>
</g>
<!-- S1_1 -->
<g id="node4" class="node">
<title>S1_1</title>
<ellipse fill="#ffcccc" stroke="black" cx="34" cy="-57" rx="18" ry="18"/>
<text xml:space="preserve" text-anchor="middle" x="34" y="-51.2" font-family="Helvetica,sans-Serif" font-size="14.00">1</text>
</g>
<!-- S1_1&#45;&#45;S1_7 -->
<g id="edge4" class="edge">
<title>S1_1&#45;&#45;S1_7</title>
<path fill="none" stroke="gray" stroke-dasharray="5,2" d="M51.9,-52.55C66.38,-48.73 87.15,-43.26 101.63,-39.45"/>
<text xml:space="preserve" text-anchor="middle" x="76.75" y="-50.52" font-family="Times,serif" font-size="14.00">19</text>
</g>
<!-- S1_1&#45;&#45;S1_3 -->
<g id="edge3" class="edge">
<title>S1_1&#45;&#45;S1_3</title>
<path fill="none" stroke="gray" stroke-dasharray="5,2" d="M51.14,-63.2C56.99,-65.14 63.7,-67.03 70,-68 75.93,-68.91 77.5,-68.12 83.5,-68 149.1,-66.67 166.08,-71.5 231,-62 241.67,-60.44 244.55,-60.15 254.5,-56 261.56,-53.05 268.9,-48.86 275.01,-44.99"/>
<text xml:space="preserve" text-anchor="middle" x="162.25" y="-71.27" font-family="Times,serif" font-size="14.00">20</text>
</g>
<!-- S2_7 -->
<g id="node5" class="node">
<title>S2_7</title>
<ellipse fill="#ffcccc" stroke="black" cx="34" cy="-190" rx="18" ry="18"/>
<text xml:space="preserve" text-anchor="middle" x="34" y="-184.2" font-family="Helvetica,sans-Serif" font-size="14.00">7</text>
</g>
<!-- S2_8 -->
<g id="node6" class="node">
<title>S2_8</title>
<ellipse fill="#ffcccc" stroke="black" cx="119.5" cy="-157" rx="18" ry="18"/>
<text xml:space="preserve" text-anchor="middle" x="119.5" y="-151.2" font-family="Helvetica,sans-Serif" font-size="14.00">8</text>
</g>
<!-- S2_7&#45;&#45;S2_8 -->
<g id="edge5" class="edge">
<title>S2_7&#45;&#45;S2_8</title>
<path fill="none" stroke="black" d="M51.1,-183.64C65.79,-177.83 87.4,-169.29 102.16,-163.46"/>
<text xml:space="preserve" text-anchor="middle" x="76.75" y="-178.68" font-family="Times,serif" font-size="14.00">14</text>
</g>
<!-- S2_1 -->
<g id="node7" class="node">
<title>S2_1</title>
<ellipse fill="#ffcccc" stroke="black" cx="205" cy="-172" rx="18" ry="18"/>
<text xml:space="preserve" text-anchor="middle" x="205" y="-166.2" font-family="Helvetica,sans-Serif" font-size="14.00">1</text>
</g>
<!-- S2_7&#45;&#45;S2_1 -->
<g id="edge7" class="edge">
<title>S2_7&#45;&#45;S2_1</title>
<path fill="none" stroke="gray" stroke-dasharray="5,2" d="M52.02,-193.51C57.71,-194.53 64.1,-195.5 70,-196 104.54,-198.94 150.44,-190.71 169,-186 175.47,-184.36 182.34,-181.8 188.27,-179.32"/>
<text xml:space="preserve" text-anchor="middle" x="119.5" y="-199.3" font-family="Times,serif" font-size="14.00">17</text>
</g>
<!-- S2_8&#45;&#45;S2_1 -->
<g id="edge6" class="edge">
<title>S2_8&#45;&#45;S2_1</title>
<path fill="none" stroke="black" d="M137.4,-160.04C151.79,-162.62 172.38,-166.32 186.84,-168.92"/>
<text xml:space="preserve" text-anchor="middle" x="162.25" y="-168.6" font-family="Times,serif" font-size="14.00">6</text>
</g>
<!-- S3_1 -->
<g id="node8" class="node">
<title>S3_1</title>
<ellipse fill="#ffcccc" stroke="black" cx="34" cy="-327" rx="18" ry="18"/>
<text xml:space="preserve" text-anchor="middle" x="34" y="-321.2" font-family="Helvetica,sans-Serif" font-size="14.00">1</text>
</g>
<!-- S3_6 -->
<g id="node9" class="node">
<title>S3_6</title>
<ellipse fill="#ffcccc" stroke="black" cx="119.5" cy="-294" rx="18" ry="18"/>
<text xml:space="preserve" text-anchor="middle" x="119.5" y="-288.2" font-family="Helvetica,sans-Serif" font-size="14.00">6</text>
</g>
<!-- S3_1&#45;&#45;S3_6 -->
<g id="edge8" class="edge">
<title>S3_1&#45;&#45;S3_6</title>
<path fill="none" stroke="black" d="M51.1,-320.64C65.79,-314.83 87.4,-306.29 102.16,-300.46"/>
<text xml:space="preserve" text-anchor="middle" x="76.75" y="-315.68" font-family="Times,serif" font-size="14.00">5</text>
</g>
<!-- S3_7 -->
<g id="node10" class="node">
<title>S3_7</title>
<ellipse fill="#ffcccc" stroke="black" cx="205" cy="-309" rx="18" ry="18"/>
<text xml:space="preserve" text-anchor="middle" x="205" y="-303.2" font-family="Helvetica,sans-Serif" font-size="14.00">7</text>
</g>
<!-- S3_1&#45;&#45;S3_7 -->
<g id="edge10" class="edge">
<title>S3_1&#45;&#45;S3_7</title>
<path fill="none" stroke="gray" stroke-dasharray="5,2" d="M52.02,-330.51C57.71,-331.53 64.1,-332.5 70,-333 104.54,-335.94 150.44,-327.71 169,-323 175.47,-321.36 182.34,-318.8 188.27,-316.32"/>
<text xml:space="preserve" text-anchor="middle" x="119.5" y="-336.3" font-family="Times,serif" font-size="14.00">18</text>
</g>
<!-- S3_6&#45;&#45;S3_7 -->
<g id="edge9" class="edge">
<title>S3_6&#45;&#45;S3_7</title>
<path fill="none" stroke="black" d="M137.4,-297.04C151.79,-299.62 172.38,-303.32 186.84,-305.92"/>
<text xml:space="preserve" text-anchor="middle" x="162.25" y="-305.6" font-family="Times,serif" font-size="14.00">13</text>
</g>
<!-- P4_7 -->
<g id="node11" class="node">
<title>P4_7</title>
<ellipse fill="#ccffcc" stroke="black" cx="34" cy="-471" rx="18" ry="18"/>
<text xml:space="preserve" text-anchor="middle" x="34" y="-465.2" font-family="Helvetica,sans-Serif" font-size="14.00">7</text>
</g>
<!-- P4_1 -->
<g id="node12" class="node">
<title>P4_1</title>
<ellipse fill="#ccffcc" stroke="black" cx="119.5" cy="-471" rx="18" ry="18"/>
<text xml:space="preserve" text-anchor="middle" x="119.5" y="-465.2" font-family="Helvetica,sans-Serif" font-size="14.00">1</text>
</g>
<!-- P4_7&#45;&#45;P4_1 -->
<g id="edge11" class="edge">
<title>P4_7&#45;&#45;P4_1</title>
<path fill="none" stroke="gray" stroke-dasharray="5,2" d="M44.29,-455.65C50.4,-447.1 59.26,-437.25 70,-432.5 85.63,-425.58 100.56,-442.11 109.62,-455.63"/>
<text xml:space="preserve" text-anchor="middle" x="76.75" y="-435.7" font-family="Times,serif" font-size="14.00">17</text>
</g>
<!-- P4_1&#45;&#45;P4_7 -->
<g id="edge12" class="edge">
<title>P4_1&#45;&#45;P4_7</title>
<path fill="none" stroke="gray" stroke-dasharray="5,2" d="M101.22,-471C86.9,-471 66.63,-471 52.3,-471"/>
<text xml:space="preserve" text-anchor="middle" x="76.75" y="-474.2" font-family="Times,serif" font-size="14.00">18</text>
</g>
<!-- P4_1&#45;&#45;P4_7 -->
<g id="edge13" class="edge">
<title>P4_1&#45;&#45;P4_7</title>
<path fill="none" stroke="gray" stroke-dasharray="5,2" d="M104.35,-481.05C94.82,-486.61 81.87,-491.87 70,-489 62.96,-487.3 55.75,-483.92 49.72,-480.54"/>
<text xml:space="preserve" text-anchor="middle" x="76.75" y="-493.01" font-family="Times,serif" font-size="14.00">19</text>
</g>
<!-- R5_0 -->
<g id="node13" class="node">
<title>R5_0</title>
<ellipse fill="#ccccff" stroke="black" cx="34" cy="-714" rx="18" ry="18"/>
<text xml:space="preserve" text-anchor="middle" x="34" y="-708.2" font-family="Helvetica,sans-Serif" font-size="14.00">0</text>
</g>
<!-- R5_2 -->
<g id="node14" class="node">
<title>R5_2</title>
<ellipse fill="#ccccff" stroke="black" cx="119.5" cy="-660" rx="18" ry="18"/>
<text xml:space="preserve" text-anchor="middle" x="119.5" y="-654.2" font-family="Helvetica,sans-Serif" font-size="14.00">2</text>
</g>
<!-- R5_0&#45;&#45;R5_2 -->
<g id="edge14" class="edge">
<title>R5_0&#45;&#45;R5_2</title>
<path fill="none" stroke="black" d="M49.54,-704.59C64.78,-694.74 88.57,-679.36 103.84,-669.48"/>
<text xml:space="preserve" text-anchor="middle" x="76.75" y="-693.43" font-family="Times,serif" font-size="14.00">0</text>
</g>
<!-- R5_3 -->
<g id="node15" class="node">
<title>R5_3</title>
<ellipse fill="#ccccff" stroke="black" cx="205" cy="-627" rx="18" ry="18"/>
<text xml:space="preserve" text-anchor="middle" x="205" y="-621.2" font-family="Helvetica,sans-Serif" font-size="14.00">3</text>
</g>
<!-- R5_2&#45;&#45;R5_3 -->
<g id="edge15" class="edge">
<title>R5_2&#45;&#45;R5_3</title>
<path fill="none" stroke="black" d="M136.6,-653.64C151.29,-647.83 172.9,-639.29 187.66,-633.46"/>
<text xml:space="preserve" text-anchor="middle" x="162.25" y="-648.68" font-family="Times,serif" font-size="14.00">7</text>
</g>
<!-- R5_4 -->
<g id="node16" class="node">
<title>R5_4</title>
<ellipse fill="#ccccff" stroke="black" cx="290.5" cy="-700" rx="18" ry="18"/>
<text xml:space="preserve" text-anchor="middle" x="290.5" y="-694.2" font-family="Helvetica,sans-Serif" font-size="14.00">4</text>
</g>
<!-- R5_3&#45;&#45;R5_4 -->
<g id="edge16" class="edge">
<title>R5_3&#45;&#45;R5_4</title>
<path fill="none" stroke="black" d="M219.98,-637.03C229.89,-644.33 243.35,-654.61 254.5,-664.5 262.53,-671.62 270.99,-680.17 277.59,-687.1"/>
<text xml:space="preserve" text-anchor="middle" x="247.75" y="-667.7" font-family="Times,serif" font-size="14.00">10</text>
</g>
<!-- R5_4&#45;&#45;R5_0 -->
<g id="edge18" class="edge">
<title>R5_4&#45;&#45;R5_0</title>
<path fill="none" stroke="black" d="M272.33,-700.1C263,-700.4 251.3,-701.16 241,-703 236.43,-703.82 235.58,-705.23 231,-706 165.84,-716.93 86.88,-715.89 52.45,-714.74"/>
<text xml:space="preserve" text-anchor="middle" x="162.25" y="-716.96" font-family="Times,serif" font-size="14.00">1</text>
</g>
<!-- R5_4&#45;&#45;R5_2 -->
<g id="edge17" class="edge">
<title>R5_4&#45;&#45;R5_2</title>
<path fill="none" stroke="black" d="M272.49,-695.98C240.04,-688.29 169.63,-671.63 137.32,-663.98"/>
<text xml:space="preserve" text-anchor="middle" x="205" y="-689.12" font-family="Times,serif" font-size="14.00">8</text>
</g>
<!-- R5_1 -->
<g id="node17" class="node">
<title>R5_1</title>
<ellipse fill="#ccccff" stroke="black" cx="369.25" cy="-647" rx="18" ry="18"/>
<text xml:space="preserve" text-anchor="middle" x="369.25" y="-641.2" font-family="Helvetica,sans-Serif" font-size="14.00">1</text>
</g>
<!-- R5_4&#45;&#45;R5_1 -->
<g id="edge19" class="edge">
<title>R5_4&#45;&#45;R5_1</title>
<path fill="none" stroke="black" d="M305.94,-690.03C319.66,-680.56 340.18,-666.38 353.88,-656.92"/>
<text xml:space="preserve" text-anchor="middle" x="329.88" y="-678.29" font-family="Times,serif" font-size="14.00">3</text>
</g>
<!-- R5_1&#45;&#45;R5_3 -->
<g id="edge20" class="edge">
<title>R5_1&#45;&#45;R5_3</title>
<path fill="none" stroke="gray" stroke-dasharray="5,2" d="M351.01,-644.88C319.87,-641.04 254.59,-632.99 223.36,-629.14"/>
<text xml:space="preserve" text-anchor="middle" x="290.5" y="-643.79" font-family="Times,serif" font-size="14.00">20</text>
</g>
<!-- R5_5 -->
<g id="node18" class="node">
<title>R5_5</title>
<ellipse fill="#ccccff" stroke="black" cx="448" cy="-687" rx="18" ry="18"/>
<text xml:space="preserve" text-anchor="middle" x="448" y="-681.2" font-family="Helvetica,sans-Serif" font-size="14.00">5</text>
</g>
<!-- R5_1&#45;&#45;R5_5 -->
<g id="edge21" class="edge">
<title>R5_1&#45;&#45;R5_5</title>
<path fill="none" stroke="black" d="M385.78,-655.09C399.1,-662.03 418.18,-671.98 431.49,-678.92"/>
<text xml:space="preserve" text-anchor="middle" x="408.62" y="-671.4" font-family="Times,serif" font-size="14.00">4</text>
</g>
<!-- R5_5&#45;&#45;R5_0 -->
<g id="edge24" class="edge">
<title>R5_5&#45;&#45;R5_0</title>
<path fill="none" stroke="black" d="M432.28,-695.68C420.49,-702.25 403.32,-710.98 387.25,-716 288.71,-746.81 258.49,-739.19 155.5,-732 118.36,-729.41 75.33,-721.87 52.07,-717.42"/>
<text xml:space="preserve" text-anchor="middle" x="247.75" y="-741.57" font-family="Times,serif" font-size="14.00">2</text>
</g>
<!-- R5_5&#45;&#45;R5_2 -->
<g id="edge23" class="edge">
<title>R5_5&#45;&#45;R5_2</title>
<path fill="none" stroke="black" d="M437.97,-671.59C427.8,-655.77 409.73,-631.84 387.25,-620 325.31,-587.37 300.87,-604.45 231,-600 211.48,-598.76 205.25,-592.98 187,-600 163.34,-609.1 142.85,-630.93 131.09,-645.6"/>
<text xml:space="preserve" text-anchor="middle" x="290.5" y="-603.72" font-family="Times,serif" font-size="14.00">9</text>
</g>
<!-- R5_5&#45;&#45;R5_4 -->
<g id="edge22" class="edge">
<title>R5_5&#45;&#45;R5_4</title>
<path fill="none" stroke="black" d="M429.69,-688.45C399.74,-690.95 338.63,-696.06 308.74,-698.56"/>
<text xml:space="preserve" text-anchor="middle" x="369.25" y="-698.2" font-family="Times,serif" font-size="14.00">12</text>
</g>
</g>
</svg>
