<?xml version="1.0" encoding="UTF-8" standalone="no"?>
<!DOCTYPE svg PUBLIC "-//W3C//DTD SVG 1.1//EN"
 "http://www.w3.org/Graphics/SVG/1.1/DTD/svg11.dtd">
<!-- Generated by graphviz version 13.1.0 (20250701.0955)
 -->
<!-- Title: components Pages: 1 -->
<svg width="504pt" height="1181pt"
 viewBox="0.00 0.00 504.00 1181.00" xmlns="http://www.w3.org/2000/svg" xmlns:xlink="http://www.w3.org/1999/xlink">
<g id="graph0" class="graph" transform="scale(1 1) rotate(0) translate(4 1177)">
<title>components</title>
<polygon fill="white" stroke="none" points="-4,4 -4,-1177 499.5,-1177 499.5,4 -4,4"/>
<g id="clust1" class="cluster">
<title>cluster_graph</title>
<polygon fill="#f0f0f0" stroke="black" points="8,-8 8,-285 487.5,-285 487.5,-8 8,-8"/>
<text xml:space="preserve" text-anchor="middle" x="247.75" y="-267.7" font-family="Times,serif" font-size="14.00">Graph</text>
</g>
<g id="clust2" class="cluster">
<title>cluster_S1</title>
<polygon fill="#ffe6e6" stroke="black" points="8,-293 8,-424 231,-424 231,-293 8,-293"/>
<text xml:space="preserve" text-anchor="middle" x="119.5" y="-406.7" font-family="Times,serif" font-size="14.00">S&#45;component (1)</text>
</g>
<g id="clust3" class="cluster">
<title>cluster_S2</title>
<polygon fill="#ffe6e6" stroke="black" points="8,-432 8,-562 231,-562 231,-432 8,-432"/>
<text xml:space="preserve" text-anchor="middle" x="119.5" y="-544.7" font-family="Times,serif" font-size="14.00">S&#45;component (2)</text>
</g>
<g id="clust4" class="cluster">
<title>cluster_S3</title>
<polygon fill="#ffe6e6" stroke="black" points="8,-570 8,-699 231,-699 231,-570 8,-570"/>
<text xml:space="preserve" text-anchor="middle" x="119.5" y="-681.7" font-family="Times,serif" font-size="14.00">S&#45;component (3)</text>
</g>
<g id="clust5" class="cluster">
<title>cluster_P4</title>
<polygon fill="#e6ffe6" stroke="black" points="8,-707 8,-862 145.5,-862 145.5,-707 8,-707"/>
<text xml:space="preserve" text-anchor="middle" x="76.75" y="-844.7" font-family="Times,serif" font-size="14.00">P&#45;component (4)</text>
</g>
<g id="clust6" class="cluster">
<title>cluster_R5</title>
<polygon fill="#e6e6ff" stroke="black" points="8,-870 8,-1165 402,-1165 402,-870 8,-870"/>
<text xml:space="preserve" text-anchor="middle" x="205" y="-1147.7" font-family="Times,serif" font-size="14.00">R&#45;component (5)</text>
</g>
<!-- 0 -->
<g id="node1" class="node">
<title>0</title>
<ellipse fill="#ffffff" stroke="black" cx="34" cy="-144" rx="18" ry="18"/>
<text xml:space="preserve" text-anchor="middle" x="34" y="-138.2" font-family="Helvetica,sans-Serif" font-size="14.00">0</text>
</g>
<!-- 2 -->
<g id="node2" class="node">
<title>2</title>
<ellipse fill="#ffffff" stroke="black" cx="119.5" cy="-88" rx="18" ry="18"/>
<text xml:space="preserve" text-anchor="middle" x="119.5" y="-82.2" font-family="Helvetica,sans-Serif" font-size="14.00">2</text>
</g>
<!-- 0&#45;&#45;2 -->
<g id="edge1" class="edge">
<title>0&#45;&#45;2</title>
<path fill="none" stroke="black" d="M49.54,-134.25C64.78,-124.03 88.57,-108.07 103.84,-97.83"/>
<text xml:space="preserve" text-anchor="middle" x="76.75" y="-122.55" font-family="Times,serif" font-size="14.00">0</text>
</g>
<!-- 4 -->
<g id="node3" class="node">
<title>4</title>
<ellipse fill="#ffffff" stroke="black" cx="290.5" cy="-87" rx="18" ry="18"/>
<text xml:space="preserve" text-anchor="middle" x="290.5" y="-81.2" font-family="Helvetica,sans-Serif" font-size="14.00">4</text>
</g>
<!-- 0&#45;&#45;4 -->
<g id="edge2" class="edge">
<title>0&#45;&#45;4</title>
<path fill="none" stroke="black" d="M52.24,-143.8C86.94,-142.95 167.34,-138.7 231,-118 246.74,-112.88 263.28,-103.71 274.74,-96.67"/>
<text xml:space="preserve" text-anchor="middle" x="162.25" y="-138.19" font-family="Times,serif" font-size="14.00">1</text>
</g>
<!-- 5 -->
<g id="node4" class="node">
<title>5</title>
<ellipse fill="#ffffff" stroke="black" cx="376" cy="-111" rx="18" ry="18"/>
<text xml:space="preserve" text-anchor="middle" x="376" y="-105.2" font-family="Helvetica,sans-Serif" font-size="14.00">5</text>
</g>
<!-- 0&#45;&#45;5 -->
<g id="edge3" class="edge">
<title>0&#45;&#45;5</title>
<path fill="none" stroke="black" d="M50.89,-151.16C88.48,-166.98 184.92,-200.9 254.5,-167 266.17,-161.31 261.85,-151.43 272.5,-144 286.53,-134.21 332.88,-121.56 358.17,-115.13"/>
<text xml:space="preserve" text-anchor="middle" x="205" y="-184.71" font-family="Times,serif" font-size="14.00">2</text>
</g>
<!-- 2&#45;&#45;4 -->
<g id="edge7" class="edge">
<title>2&#45;&#45;4</title>
<path fill="none" stroke="black" d="M137.52,-91.51C143.21,-92.53 149.6,-93.5 155.5,-94 175.91,-95.74 149.04,-102.6 254.5,-93 260.39,-92.46 266.79,-91.49 272.48,-90.47"/>
<text xml:space="preserve" text-anchor="middle" x="205" y="-101.07" font-family="Times,serif" font-size="14.00">6</text>
</g>
<!-- 2&#45;&#45;5 -->
<g id="edge10" class="edge">
<title>2&#45;&#45;5</title>
<path fill="none" stroke="black" d="M130.82,-73.64C142.5,-58.73 163.06,-36.32 187,-27 205.22,-19.91 211.84,-23.09 231,-27 267.68,-34.48 276.17,-41.13 308.5,-60 328.35,-71.59 349.03,-88.3 361.95,-99.4"/>
<text xml:space="preserve" text-anchor="middle" x="247.75" y="-35.95" font-family="Times,serif" font-size="14.00">9</text>
</g>
<!-- 3 -->
<g id="node6" class="node">
<title>3</title>
<ellipse fill="#ffffff" stroke="black" cx="205" cy="-54" rx="18" ry="18"/>
<text xml:space="preserve" text-anchor="middle" x="205" y="-48.2" font-family="Helvetica,sans-Serif" font-size="14.00">3</text>
</g>
<!-- 2&#45;&#45;3 -->
<g id="edge6" class="edge">
<title>2&#45;&#45;3</title>
<path fill="none" stroke="black" d="M136.6,-81.44C151.39,-75.42 173.18,-66.55 187.95,-60.54"/>
<text xml:space="preserve" text-anchor="middle" x="162.25" y="-76.24" font-family="Times,serif" font-size="14.00">5</text>
</g>
<!-- 4&#45;&#45;5 -->
<g id="edge8" class="edge">
<title>4&#45;&#45;5</title>
<path fill="none" stroke="black" d="M308,-91.74C322.54,-95.92 343.63,-101.98 358.25,-106.19"/>
<text xml:space="preserve" text-anchor="middle" x="333.25" y="-103.64" font-family="Times,serif" font-size="14.00">7</text>
</g>
<!-- 1 -->
<g id="node5" class="node">
<title>1</title>
<ellipse fill="#ffffff" stroke="black" cx="205" cy="-234" rx="18" ry="18"/>
<text xml:space="preserve" text-anchor="middle" x="205" y="-228.2" font-family="Helvetica,sans-Serif" font-size="14.00">1</text>
</g>
<!-- 1&#45;&#45;4 -->
<g id="edge4" class="edge">
<title>1&#45;&#45;4</title>
<path fill="none" stroke="black" d="M218.14,-221.18C222.78,-215.65 227.74,-208.88 231,-202 239.67,-183.68 232.89,-176.08 241,-157.5 250.46,-135.85 266.87,-113.9 277.96,-100.37"/>
<text xml:space="preserve" text-anchor="middle" x="247.75" y="-160.7" font-family="Times,serif" font-size="14.00">3</text>
</g>
<!-- 1&#45;&#45;5 -->
<g id="edge5" class="edge">
<title>1&#45;&#45;5</title>
<path fill="none" stroke="black" d="M217.95,-220.88C230.68,-207.33 251.82,-186.03 272.5,-170.5 287.8,-159.01 334.98,-132.81 359.63,-119.34"/>
<text xml:space="preserve" text-anchor="middle" x="290.5" y="-173.7" font-family="Times,serif" font-size="14.00">4</text>
</g>
<!-- 6 -->
<g id="node7" class="node">
<title>6</title>
<ellipse fill="#ffffff" stroke="black" cx="290.5" cy="-214" rx="18" ry="18"/>
<text xml:space="preserve" text-anchor="middle" x="290.5" y="-208.2" font-family="Helvetica,sans-Serif" font-size="14.00">6</text>
</g>
<!-- 1&#45;&#45;6 -->
<g id="edge11" class="edge">
<title>1&#45;&#45;6</title>
<path fill="none" stroke="black" d="M222.9,-229.95C237.38,-226.48 258.15,-221.51 272.63,-218.04"/>
<text xml:space="preserve" text-anchor="middle" x="247.75" y="-228.4" font-family="Times,serif" font-size="14.00">10</text>
</g>
<!-- 8 -->
<g id="node9" class="node">
<title>8</title>
<ellipse fill="#ffffff" stroke="black" cx="461.5" cy="-219" rx="18" ry="18"/>
<text xml:space="preserve" text-anchor="middle" x="461.5" y="-213.2" font-family="Helvetica,sans-Serif" font-size="14.00">8</text>
</g>
<!-- 1&#45;&#45;8 -->
<g id="edge14" class="edge">
<title>1&#45;&#45;8</title>
<path fill="none" stroke="black" d="M222.09,-240.76C227.94,-242.88 234.66,-244.94 241,-246 246.92,-246.99 248.51,-246.28 254.5,-246 288.2,-244.44 409.53,-232.07 425.5,-229 431.58,-227.83 438.14,-226.09 443.91,-224.39"/>
<text xml:space="preserve" text-anchor="middle" x="333.25" y="-243.1" font-family="Times,serif" font-size="14.00">13</text>
</g>
<!-- 3&#45;&#45;4 -->
<g id="edge9" class="edge">
<title>3&#45;&#45;4</title>
<path fill="none" stroke="black" d="M222.1,-60.36C236.79,-66.17 258.4,-74.71 273.16,-80.54"/>
<text xml:space="preserve" text-anchor="middle" x="247.75" y="-75.68" font-family="Times,serif" font-size="14.00">8</text>
</g>
<!-- 9 -->
<g id="node10" class="node">
<title>9</title>
<ellipse fill="#ffffff" stroke="black" cx="461.5" cy="-119" rx="18" ry="18"/>
<text xml:space="preserve" text-anchor="middle" x="461.5" y="-113.2" font-family="Helvetica,sans-Serif" font-size="14.00">9</text>
</g>
<!-- 3&#45;&#45;9 -->
<g id="edge16" class="edge">
<title>3&#45;&#45;9</title>
<path fill="none" stroke="black" d="M223.16,-54C243.6,-54.23 278.74,-55.35 308.5,-60 350.89,-66.62 362.4,-67.48 402,-84 417.95,-90.65 434.73,-101.1 446.21,-108.85"/>
<text xml:space="preserve" text-anchor="middle" x="333.25" y="-68.18" font-family="Times,serif" font-size="14.00">15</text>
</g>
<!-- 7 -->
<g id="node8" class="node">
<title>7</title>
<ellipse fill="#ffffff" stroke="black" cx="376" cy="-196" rx="18" ry="18"/>
<text xml:space="preserve" text-anchor="middle" x="376" y="-190.2" font-family="Helvetica,sans-Serif" font-size="14.00">7</text>
</g>
<!-- 6&#45;&#45;7 -->
<g id="edge12" class="edge">
<title>6&#45;&#45;7</title>
<path fill="none" stroke="black" d="M306.68,-205.18C312.66,-202.16 319.71,-199.13 326.5,-197.5 336.66,-195.06 348.35,-194.63 357.72,-194.84"/>
<text xml:space="preserve" text-anchor="middle" x="333.25" y="-200.7" font-family="Times,serif" font-size="14.00">11</text>
</g>
<!-- 7&#45;&#45;8 -->
<g id="edge13" class="edge">
<title>7&#45;&#45;8</title>
<path fill="none" stroke="black" d="M393.9,-200.65C408.38,-204.64 429.15,-210.36 443.63,-214.35"/>
<text xml:space="preserve" text-anchor="middle" x="418.75" y="-212.08" font-family="Times,serif" font-size="14.00">12</text>
</g>
<!-- 7&#45;&#45;9 -->
<g id="edge15" class="edge">
<title>7&#45;&#45;9</title>
<path fill="none" stroke="black" d="M390.05,-183.97C405.73,-169.5 431.9,-145.37 447.54,-130.95"/>
<text xml:space="preserve" text-anchor="middle" x="418.75" y="-165.31" font-family="Times,serif" font-size="14.00">14</text>
</g>
<!-- S1_7 -->
<g id="node11" class="node">
<title>S1_7</title>
<ellipse fill="#ffcccc" stroke="black" cx="119.5" cy="-319" rx="18" ry="18"/>
<text xml:space="preserve" text-anchor="middle" x="119.5" y="-313.2" font-family="Helvetica,sans-Serif" font-size="14.00">7</text>
</g>
<!-- S1_9 -->
<g id="node12" class="node">
<title>S1_9</title>
<ellipse fill="#ffcccc" stroke="black" cx="205" cy="-342" rx="18" ry="18"/>
<text xml:space="preserve" text-anchor="middle" x="205" y="-336.2" font-family="Helvetica,sans-Serif" font-size="14.00">9</text>
</g>
<!-- S1_7&#45;&#45;S1_9 -->
<g id="edge17" class="edge">
<title>S1_7&#45;&#45;S1_9</title>
<path fill="none" stroke="black" d="M137.77,-321.09C147.12,-322.45 158.82,-324.54 169,-327.5 175.44,-329.37 182.31,-332.06 188.23,-334.61"/>
<text xml:space="preserve" text-anchor="middle" x="162.25" y="-330.7" font-family="Times,serif" font-size="14.00">14</text>
</g>
<!-- S1_3 -->
<g id="node13" class="node">
<title>S1_3</title>
<ellipse fill="#ffcccc" stroke="black" cx="119.5" cy="-373" rx="18" ry="18"/>
<text xml:space="preserve" text-anchor="middle" x="119.5" y="-367.2" font-family="Helvetica,sans-Serif" font-size="14.00">3</text>
</g>
<!-- S1_3&#45;&#45;S1_9 -->
<g id="edge18" class="edge">
<title>S1_3&#45;&#45;S1_9</title>
<path fill="none" stroke="black" d="M136.6,-367.02C151.29,-361.57 172.9,-353.55 187.66,-348.06"/>
<text xml:space="preserve" text-anchor="middle" x="162.25" y="-362.56" font-family="Times,serif" font-size="14.00">15</text>
</g>
<!-- S1_1 -->
<g id="node14" class="node">
<title>S1_1</title>
<ellipse fill="#ffcccc" stroke="black" cx="34" cy="-345" rx="18" ry="18"/>
<text xml:space="preserve" text-anchor="middle" x="34" y="-339.2" font-family="Helvetica,sans-Serif" font-size="14.00">1</text>
</g>
<!-- S1_1&#45;&#45;S1_7 -->
<g id="edge20" class="edge">
<title>S1_1&#45;&#45;S1_7</title>
<path fill="none" stroke="gray" stroke-dasharray="5,2" d="M50.83,-337.81C56.76,-335.29 63.62,-332.56 70,-330.5 80.37,-327.14 92.29,-324.31 101.71,-322.29"/>
<text xml:space="preserve" text-anchor="middle" x="76.75" y="-333.7" font-family="Times,serif" font-size="14.00">18</text>
</g>
<!-- S1_1&#45;&#45;S1_3 -->
<g id="edge19" class="edge">
<title>S1_1&#45;&#45;S1_3</title>
<path fill="none" stroke="gray" stroke-dasharray="5,2" d="M51.5,-350.53C66.14,-355.44 87.41,-362.57 102.04,-367.48"/>
<text xml:space="preserve" text-anchor="middle" x="76.75" y="-363.88" font-family="Times,serif" font-size="14.00">19</text>
</g>
<!-- S2_7 -->
<g id="node15" class="node">
<title>S2_7</title>
<ellipse fill="#ffcccc" stroke="black" cx="34" cy="-470" rx="18" ry="18"/>
<text xml:space="preserve" text-anchor="middle" x="34" y="-464.2" font-family="Helvetica,sans-Serif" font-size="14.00">7</text>
</g>
<!-- S2_8 -->
<g id="node16" class="node">
<title>S2_8</title>
<ellipse fill="#ffcccc" stroke="black" cx="205" cy="-470" rx="18" ry="18"/>
<text xml:space="preserve" text-anchor="middle" x="205" y="-464.2" font-family="Helvetica,sans-Serif" font-size="14.00">8</text>
</g>
<!-- S2_7&#45;&#45;S2_8 -->
<g id="edge21" class="edge">
<title>S2_7&#45;&#45;S2_8</title>
<path fill="none" stroke="black" d="M52.22,-469.18C65.64,-468.57 84.75,-467.81 101.5,-467.5 121.05,-467.13 125.95,-467.08 145.5,-467.5 159.32,-467.8 174.97,-468.48 186.6,-469.06"/>
<text xml:space="preserve" text-anchor="middle" x="119.5" y="-470.7" font-family="Times,serif" font-size="14.00">12</text>
</g>
<!-- S2_1 -->
<g id="node17" class="node">
<title>S2_1</title>
<ellipse fill="#ffcccc" stroke="black" cx="119.5" cy="-511" rx="18" ry="18"/>
<text xml:space="preserve" text-anchor="middle" x="119.5" y="-505.2" font-family="Helvetica,sans-Serif" font-size="14.00">1</text>
</g>
<!-- S2_7&#45;&#45;S2_1 -->
<g id="edge23" class="edge">
<title>S2_7&#45;&#45;S2_1</title>
<path fill="none" stroke="gray" stroke-dasharray="5,2" d="M50.71,-477.71C65.63,-485.04 87.96,-496 102.86,-503.32"/>
<text xml:space="preserve" text-anchor="middle" x="76.75" y="-496.15" font-family="Times,serif" font-size="14.00">16</text>
</g>
<!-- S2_1&#45;&#45;S2_8 -->
<g id="edge22" class="edge">
<title>S2_1&#45;&#45;S2_8</title>
<path fill="none" stroke="black" d="M136.21,-503.29C151.13,-495.96 173.46,-485 188.36,-477.68"/>
<text xml:space="preserve" text-anchor="middle" x="162.25" y="-496.15" font-family="Times,serif" font-size="14.00">13</text>
</g>
<!-- S3_1 -->
<g id="node18" class="node">
<title>S3_1</title>
<ellipse fill="#ffcccc" stroke="black" cx="34" cy="-629" rx="18" ry="18"/>
<text xml:space="preserve" text-anchor="middle" x="34" y="-623.2" font-family="Helvetica,sans-Serif" font-size="14.00">1</text>
</g>
<!-- S3_6 -->
<g id="node19" class="node">
<title>S3_6</title>
<ellipse fill="#ffcccc" stroke="black" cx="119.5" cy="-596" rx="18" ry="18"/>
<text xml:space="preserve" text-anchor="middle" x="119.5" y="-590.2" font-family="Helvetica,sans-Serif" font-size="14.00">6</text>
</g>
<!-- S3_1&#45;&#45;S3_6 -->
<g id="edge24" class="edge">
<title>S3_1&#45;&#45;S3_6</title>
<path fill="none" stroke="black" d="M51.1,-622.64C65.79,-616.83 87.4,-608.29 102.16,-602.46"/>
<text xml:space="preserve" text-anchor="middle" x="76.75" y="-617.68" font-family="Times,serif" font-size="14.00">10</text>
</g>
<!-- S3_7 -->
<g id="node20" class="node">
<title>S3_7</title>
<ellipse fill="#ffcccc" stroke="black" cx="205" cy="-611" rx="18" ry="18"/>
<text xml:space="preserve" text-anchor="middle" x="205" y="-605.2" font-family="Helvetica,sans-Serif" font-size="14.00">7</text>
</g>
<!-- S3_1&#45;&#45;S3_7 -->
<g id="edge26" class="edge">
<title>S3_1&#45;&#45;S3_7</title>
<path fill="none" stroke="gray" stroke-dasharray="5,2" d="M52.02,-632.51C57.71,-633.53 64.1,-634.5 70,-635 104.54,-637.94 150.44,-629.71 169,-625 175.47,-623.36 182.34,-620.8 188.27,-618.32"/>
<text xml:space="preserve" text-anchor="middle" x="119.5" y="-638.3" font-family="Times,serif" font-size="14.00">17</text>
</g>
<!-- S3_6&#45;&#45;S3_7 -->
<g id="edge25" class="edge">
<title>S3_6&#45;&#45;S3_7</title>
<path fill="none" stroke="black" d="M137.4,-599.04C151.79,-601.62 172.38,-605.32 186.84,-607.92"/>
<text xml:space="preserve" text-anchor="middle" x="162.25" y="-607.6" font-family="Times,serif" font-size="14.00">11</text>
</g>
<!-- P4_7 -->
<g id="node21" class="node">
<title>P4_7</title>
<ellipse fill="#ccffcc" stroke="black" cx="34" cy="-773" rx="18" ry="18"/>
<text xml:space="preserve" text-anchor="middle" x="34" y="-767.2" font-family="Helvetica,sans-Serif" font-size="14.00">7</text>
</g>
<!-- P4_1 -->
<g id="node22" class="node">
<title>P4_1</title>
<ellipse fill="#ccffcc" stroke="black" cx="119.5" cy="-773" rx="18" ry="18"/>
<text xml:space="preserve" text-anchor="middle" x="119.5" y="-767.2" font-family="Helvetica,sans-Serif" font-size="14.00">1</text>
</g>
<!-- P4_7&#45;&#45;P4_1 -->
<g id="edge27" class="edge">
<title>P4_7&#45;&#45;P4_1</title>
<path fill="none" stroke="gray" stroke-dasharray="5,2" d="M44.29,-757.65C50.4,-749.1 59.26,-739.25 70,-734.5 85.63,-727.58 100.56,-744.11 109.62,-757.63"/>
<text xml:space="preserve" text-anchor="middle" x="76.75" y="-737.7" font-family="Times,serif" font-size="14.00">16</text>
</g>
<!-- P4_1&#45;&#45;P4_7 -->
<g id="edge28" class="edge">
<title>P4_1&#45;&#45;P4_7</title>
<path fill="none" stroke="gray" stroke-dasharray="5,2" d="M101.22,-773C86.9,-773 66.63,-773 52.3,-773"/>
<text xml:space="preserve" text-anchor="middle" x="76.75" y="-776.2" font-family="Times,serif" font-size="14.00">17</text>
</g>
<!-- P4_1&#45;&#45;P4_7 -->
<g id="edge29" class="edge">
<title>P4_1&#45;&#45;P4_7</title>
<path fill="none" stroke="gray" stroke-dasharray="5,2" d="M104.35,-783.05C94.82,-788.61 81.87,-793.87 70,-791 62.96,-789.3 55.75,-785.92 49.72,-782.54"/>
<text xml:space="preserve" text-anchor="middle" x="76.75" y="-795.01" font-family="Times,serif" font-size="14.00">18</text>
</g>
<!-- R5_0 -->
<g id="node23" class="node">
<title>R5_0</title>
<ellipse fill="#ccccff" stroke="black" cx="34" cy="-936" rx="18" ry="18"/>
<text xml:space="preserve" text-anchor="middle" x="34" y="-930.2" font-family="Helvetica,sans-Serif" font-size="14.00">0</text>
</g>
<!-- R5_2 -->
<g id="node24" class="node">
<title>R5_2</title>
<ellipse fill="#ccccff" stroke="black" cx="119.5" cy="-936" rx="18" ry="18"/>
<text xml:space="preserve" text-anchor="middle" x="119.5" y="-930.2" font-family="Helvetica,sans-Serif" font-size="14.00">2</text>
</g>
<!-- R5_0&#45;&#45;R5_2 -->
<g id="edge30" class="edge">
<title>R5_0&#45;&#45;R5_2</title>
<path fill="none" stroke="black" d="M52.3,-936C66.63,-936 86.9,-936 101.22,-936"/>
<text xml:space="preserve" text-anchor="middle" x="76.75" y="-939.2" font-family="Times,serif" font-size="14.00">0</text>
</g>
<!-- R5_4 -->
<g id="node26" class="node">
<title>R5_4</title>
<ellipse fill="#ccccff" stroke="black" cx="290.5" cy="-989" rx="18" ry="18"/>
<text xml:space="preserve" text-anchor="middle" x="290.5" y="-983.2" font-family="Helvetica,sans-Serif" font-size="14.00">4</text>
</g>
<!-- R5_0&#45;&#45;R5_4 -->
<g id="edge34" class="edge">
<title>R5_0&#45;&#45;R5_4</title>
<path fill="none" stroke="black" d="M50.33,-927.79C63.48,-921.24 83.16,-912.58 101.5,-909 120.69,-905.25 126.03,-907.15 145.5,-909 196.57,-913.85 216,-913.09 254.5,-947 263.76,-955.16 272.64,-965.86 279.14,-974.42"/>
<text xml:space="preserve" text-anchor="middle" x="162.25" y="-914.37" font-family="Times,serif" font-size="14.00">1</text>
</g>
<!-- R5_5 -->
<g id="node28" class="node">
<title>R5_5</title>
<ellipse fill="#ccccff" stroke="black" cx="376" cy="-1056" rx="18" ry="18"/>
<text xml:space="preserve" text-anchor="middle" x="376" y="-1050.2" font-family="Helvetica,sans-Serif" font-size="14.00">5</text>
</g>
<!-- R5_0&#45;&#45;R5_5 -->
<g id="edge40" class="edge">
<title>R5_0&#45;&#45;R5_5</title>
<path fill="none" stroke="black" d="M35.2,-954.25C36.76,-1000.01 47.71,-1116 118.5,-1116 118.5,-1116 118.5,-1116 291.5,-1116 322.74,-1116 350.29,-1087.96 364.59,-1070.22"/>
<text xml:space="preserve" text-anchor="middle" x="205" y="-1119.2" font-family="Times,serif" font-size="14.00">2</text>
</g>
<!-- R5_3 -->
<g id="node25" class="node">
<title>R5_3</title>
<ellipse fill="#ccccff" stroke="black" cx="205" cy="-989" rx="18" ry="18"/>
<text xml:space="preserve" text-anchor="middle" x="205" y="-983.2" font-family="Helvetica,sans-Serif" font-size="14.00">3</text>
</g>
<!-- R5_2&#45;&#45;R5_3 -->
<g id="edge31" class="edge">
<title>R5_2&#45;&#45;R5_3</title>
<path fill="none" stroke="black" d="M135.04,-945.23C150.28,-954.9 174.07,-970 189.34,-979.7"/>
<text xml:space="preserve" text-anchor="middle" x="162.25" y="-968.87" font-family="Times,serif" font-size="14.00">5</text>
</g>
<!-- R5_2&#45;&#45;R5_4 -->
<g id="edge33" class="edge">
<title>R5_2&#45;&#45;R5_4</title>
<path fill="none" stroke="black" d="M137.61,-934.64C159.88,-933.5 199.67,-933.62 231,-945.5 248.99,-952.32 266.24,-966.38 277.29,-976.67"/>
<text xml:space="preserve" text-anchor="middle" x="205" y="-948.7" font-family="Times,serif" font-size="14.00">6</text>
</g>
<!-- R5_2&#45;&#45;R5_5 -->
<g id="edge39" class="edge">
<title>R5_2&#45;&#45;R5_5</title>
<path fill="none" stroke="black" d="M137.37,-932.08C163.14,-926.82 213.63,-919.32 254.5,-930.5 311.02,-945.96 351.08,-1010.06 367.17,-1040.2"/>
<text xml:space="preserve" text-anchor="middle" x="247.75" y="-933.7" font-family="Times,serif" font-size="14.00">9</text>
</g>
<!-- R5_3&#45;&#45;R5_4 -->
<g id="edge32" class="edge">
<title>R5_3&#45;&#45;R5_4</title>
<path fill="none" stroke="black" d="M223.3,-989C237.63,-989 257.9,-989 272.22,-989"/>
<text xml:space="preserve" text-anchor="middle" x="247.75" y="-992.2" font-family="Times,serif" font-size="14.00">8</text>
</g>
<!-- R5_4&#45;&#45;R5_5 -->
<g id="edge38" class="edge">
<title>R5_4&#45;&#45;R5_5</title>
<path fill="none" stroke="black" d="M305.29,-1000.06C320.76,-1012.48 345.71,-1032.5 361.19,-1044.92"/>
<text xml:space="preserve" text-anchor="middle" x="333.25" y="-1029.71" font-family="Times,serif" font-size="14.00">7</text>
</g>
<!-- R5_1 -->
<g id="node27" class="node">
<title>R5_1</title>
<ellipse fill="#ccccff" stroke="black" cx="119.5" cy="-1043" rx="18" ry="18"/>
<text xml:space="preserve" text-anchor="middle" x="119.5" y="-1037.2" font-family="Helvetica,sans-Serif" font-size="14.00">1</text>
</g>
<!-- R5_1&#45;&#45;R5_3 -->
<g id="edge36" class="edge">
<title>R5_1&#45;&#45;R5_3</title>
<path fill="none" stroke="gray" stroke-dasharray="5,2" d="M135.04,-1033.59C150.28,-1023.74 174.07,-1008.36 189.34,-998.48"/>
<text xml:space="preserve" text-anchor="middle" x="162.25" y="-1022.43" font-family="Times,serif" font-size="14.00">19</text>
</g>
<!-- R5_1&#45;&#45;R5_4 -->
<g id="edge35" class="edge">
<title>R5_1&#45;&#45;R5_4</title>
<path fill="none" stroke="black" d="M137.7,-1042.12C147.03,-1041.43 158.73,-1040.18 169,-1038 208.11,-1029.68 218.13,-1026.61 254.5,-1010 261.46,-1006.82 268.78,-1002.59 274.91,-998.75"/>
<text xml:space="preserve" text-anchor="middle" x="205" y="-1037.16" font-family="Times,serif" font-size="14.00">3</text>
</g>
<!-- R5_1&#45;&#45;R5_5 -->
<g id="edge37" class="edge">
<title>R5_1&#45;&#45;R5_5</title>
<path fill="none" stroke="black" d="M137.63,-1046.58C151.01,-1049.19 170.1,-1052.52 187,-1054 249.59,-1059.48 324.35,-1057.85 357.59,-1056.7"/>
<text xml:space="preserve" text-anchor="middle" x="247.75" y="-1060.66" font-family="Times,serif" font-size="14.00">4</text>
</g>
</g>
</svg>
