<?xml version="1.0" encoding="UTF-8" standalone="no"?>
<!DOCTYPE svg PUBLIC "-//W3C//DTD SVG 1.1//EN"
 "http://www.w3.org/Graphics/SVG/1.1/DTD/svg11.dtd">
<!-- Generated by graphviz version 13.1.0 (20250701.0955)
 -->
<!-- Title: components Pages: 1 -->
<svg width="576pt" height="787pt"
 viewBox="0.00 0.00 576.00 787.00" xmlns="http://www.w3.org/2000/svg" xmlns:xlink="http://www.w3.org/1999/xlink">
<g id="graph0" class="graph" transform="scale(1 1) rotate(0) translate(4 783)">
<title>components</title>
<polygon fill="white" stroke="none" points="-4,4 -4,-783 571.5,-783 571.5,4 -4,4"/>
<g id="clust1" class="cluster">
<title>cluster_S1</title>
<polygon fill="#ffe6e6" stroke="black" points="8,-445 8,-560 316.5,-560 316.5,-445 8,-445"/>
<text xml:space="preserve" text-anchor="middle" x="162.25" y="-542.7" font-family="Times,serif" font-size="14.00">S&#45;component (1)</text>
</g>
<g id="clust2" class="cluster">
<title>cluster_S2</title>
<polygon fill="#ffe6e6" stroke="black" points="8,-145 8,-274 231,-274 231,-145 8,-145"/>
<text xml:space="preserve" text-anchor="middle" x="119.5" y="-256.7" font-family="Times,serif" font-size="14.00">S&#45;component (2)</text>
</g>
<g id="clust3" class="cluster">
<title>cluster_S3</title>
<polygon fill="#ffe6e6" stroke="black" points="8,-8 8,-137 231,-137 231,-8 8,-8"/>
<text xml:space="preserve" text-anchor="middle" x="119.5" y="-119.7" font-family="Times,serif" font-size="14.00">S&#45;component (3)</text>
</g>
<g id="clust4" class="cluster">
<title>cluster_P4</title>
<polygon fill="#e6ffe6" stroke="black" points="93.5,-282 93.5,-437 231,-437 231,-282 93.5,-282"/>
<text xml:space="preserve" text-anchor="middle" x="162.25" y="-419.7" font-family="Times,serif" font-size="14.00">P&#45;component (4)</text>
</g>
<g id="clust5" class="cluster">
<title>cluster_R5</title>
<polygon fill="#e6e6ff" stroke="black" points="93.5,-568 93.5,-771 559.5,-771 559.5,-568 93.5,-568"/>
<text xml:space="preserve" text-anchor="middle" x="326.5" y="-753.7" font-family="Times,serif" font-size="14.00">R&#45;component (5)</text>
</g>
<!-- S1_7 -->
<g id="node1" class="node">
<title>S1_7</title>
<ellipse fill="#ffcccc" stroke="black" cx="119.5" cy="-473" rx="18" ry="18"/>
<text xml:space="preserve" text-anchor="middle" x="119.5" y="-467.2" font-family="Helvetica,sans-Serif" font-size="14.00">7</text>
</g>
<!-- S1_9 -->
<g id="node2" class="node">
<title>S1_9</title>
<ellipse fill="#ffcccc" stroke="black" cx="205" cy="-472" rx="18" ry="18"/>
<text xml:space="preserve" text-anchor="middle" x="205" y="-466.2" font-family="Helvetica,sans-Serif" font-size="14.00">9</text>
</g>
<!-- S1_7&#45;&#45;S1_9 -->
<g id="edge1" class="edge">
<title>S1_7&#45;&#45;S1_9</title>
<path fill="none" stroke="black" d="M137.95,-472.74C143.55,-472.66 149.79,-472.57 155.5,-472.5 165.94,-472.37 177.65,-472.25 186.94,-472.16"/>
<text xml:space="preserve" text-anchor="middle" x="162.25" y="-475.7" font-family="Times,serif" font-size="14.00">15</text>
</g>
<!-- S1_3 -->
<g id="node3" class="node">
<title>S1_3</title>
<ellipse fill="#ffcccc" stroke="black" cx="290.5" cy="-472" rx="18" ry="18"/>
<text xml:space="preserve" text-anchor="middle" x="290.5" y="-466.2" font-family="Helvetica,sans-Serif" font-size="14.00">3</text>
</g>
<!-- S1_9&#45;&#45;S1_3 -->
<g id="edge2" class="edge">
<title>S1_9&#45;&#45;S1_3</title>
<path fill="none" stroke="black" d="M223.3,-472C237.63,-472 257.9,-472 272.22,-472"/>
<text xml:space="preserve" text-anchor="middle" x="247.75" y="-475.2" font-family="Times,serif" font-size="14.00">11</text>
</g>
<!-- S1_1 -->
<g id="node4" class="node">
<title>S1_1</title>
<ellipse fill="#ffcccc" stroke="black" cx="34" cy="-477" rx="18" ry="18"/>
<text xml:space="preserve" text-anchor="middle" x="34" y="-471.2" font-family="Helvetica,sans-Serif" font-size="14.00">1</text>
</g>
<!-- S1_1&#45;&#45;S1_7 -->
<g id="edge4" class="edge">
<title>S1_1&#45;&#45;S1_7</title>
<path fill="none" stroke="gray" stroke-dasharray="5,2" d="M52.3,-476.17C66.63,-475.48 86.9,-474.51 101.22,-473.83"/>
<text xml:space="preserve" text-anchor="middle" x="76.75" y="-478.44" font-family="Times,serif" font-size="14.00">19</text>
</g>
<!-- S1_1&#45;&#45;S1_3 -->
<g id="edge3" class="edge">
<title>S1_1&#45;&#45;S1_3</title>
<path fill="none" stroke="gray" stroke-dasharray="5,2" d="M49.83,-486.46C55.88,-489.94 63.07,-493.6 70,-496 80.01,-499.46 82.94,-499.11 93.5,-500 116.54,-501.95 211.2,-501.6 231,-499 241.69,-497.6 244.55,-497.15 254.5,-493 261.56,-490.05 268.9,-485.86 275.01,-481.99"/>
<text xml:space="preserve" text-anchor="middle" x="162.25" y="-504.43" font-family="Times,serif" font-size="14.00">20</text>
</g>
<!-- S1_connector -->
<g id="node5" class="node">
<title>S1_connector</title>
<ellipse fill="black" stroke="black" cx="34" cy="-522" rx="3.6" ry="3.6"/>
</g>
<!-- P4_connector -->
<g id="node16" class="node">
<title>P4_connector</title>
<ellipse fill="black" stroke="black" cx="119.5" cy="-368" rx="3.6" ry="3.6"/>
</g>
<!-- S1_connector&#45;&#45;P4_connector -->
<g id="edge26" class="edge">
<title>S1_connector&#45;&#45;P4_connector</title>
<path fill="none" stroke="black" stroke-width="0.2" d="M37.21,-520.07C40.68,-516.96 47.5,-510.5 52,-504 60.68,-491.47 108.24,-389.96 117.09,-371.03"/>
</g>
<!-- R5_connector -->
<g id="node23" class="node">
<title>R5_connector</title>
<ellipse fill="black" stroke="black" cx="119.5" cy="-725" rx="3.6" ry="3.6"/>
</g>
<!-- S1_connector&#45;&#45;R5_connector -->
<g id="edge25" class="edge">
<title>S1_connector&#45;&#45;R5_connector</title>
<path fill="none" stroke="black" stroke-width="0.2" d="M35.13,-525.87C36.01,-547.16 42.89,-651.29 93.5,-712 99.51,-719.21 110.57,-722.92 115.72,-724.32"/>
</g>
<!-- S2_7 -->
<g id="node6" class="node">
<title>S2_7</title>
<ellipse fill="#ffcccc" stroke="black" cx="34" cy="-185" rx="18" ry="18"/>
<text xml:space="preserve" text-anchor="middle" x="34" y="-179.2" font-family="Helvetica,sans-Serif" font-size="14.00">7</text>
</g>
<!-- S2_8 -->
<g id="node7" class="node">
<title>S2_8</title>
<ellipse fill="#ffcccc" stroke="black" cx="119.5" cy="-171" rx="18" ry="18"/>
<text xml:space="preserve" text-anchor="middle" x="119.5" y="-165.2" font-family="Helvetica,sans-Serif" font-size="14.00">8</text>
</g>
<!-- S2_7&#45;&#45;S2_8 -->
<g id="edge5" class="edge">
<title>S2_7&#45;&#45;S2_8</title>
<path fill="none" stroke="black" d="M51.9,-182.17C66.29,-179.75 86.88,-176.3 101.34,-173.88"/>
<text xml:space="preserve" text-anchor="middle" x="76.75" y="-182.04" font-family="Times,serif" font-size="14.00">14</text>
</g>
<!-- S2_1 -->
<g id="node8" class="node">
<title>S2_1</title>
<ellipse fill="#ffcccc" stroke="black" cx="205" cy="-186" rx="18" ry="18"/>
<text xml:space="preserve" text-anchor="middle" x="205" y="-180.2" font-family="Helvetica,sans-Serif" font-size="14.00">1</text>
</g>
<!-- S2_7&#45;&#45;S2_1 -->
<g id="edge7" class="edge">
<title>S2_7&#45;&#45;S2_1</title>
<path fill="none" stroke="gray" stroke-dasharray="5,2" d="M50.65,-192.69C56.57,-195.21 63.45,-197.7 70,-199 113.16,-207.57 125.79,-208.32 169,-200 175.55,-198.74 182.44,-196.26 188.36,-193.73"/>
<text xml:space="preserve" text-anchor="middle" x="119.5" y="-209.05" font-family="Times,serif" font-size="14.00">17</text>
</g>
<!-- S2_8&#45;&#45;S2_1 -->
<g id="edge6" class="edge">
<title>S2_8&#45;&#45;S2_1</title>
<path fill="none" stroke="black" d="M137.4,-174.04C151.79,-176.62 172.38,-180.32 186.84,-182.92"/>
<text xml:space="preserve" text-anchor="middle" x="162.25" y="-182.6" font-family="Times,serif" font-size="14.00">6</text>
</g>
<!-- S2_connector -->
<g id="node9" class="node">
<title>S2_connector</title>
<ellipse fill="black" stroke="black" cx="34" cy="-238" rx="3.6" ry="3.6"/>
</g>
<!-- S2_connector&#45;&#45;P4_connector -->
<g id="edge27" class="edge">
<title>S2_connector&#45;&#45;P4_connector</title>
<path fill="none" stroke="black" stroke-width="0.2" d="M35.84,-241.33C39.79,-256.36 57.82,-318.74 93.5,-355 99.95,-361.55 110.41,-365.49 115.51,-367.12"/>
</g>
<!-- S3_1 -->
<g id="node10" class="node">
<title>S3_1</title>
<ellipse fill="#ffcccc" stroke="black" cx="34" cy="-48" rx="18" ry="18"/>
<text xml:space="preserve" text-anchor="middle" x="34" y="-42.2" font-family="Helvetica,sans-Serif" font-size="14.00">1</text>
</g>
<!-- S3_6 -->
<g id="node11" class="node">
<title>S3_6</title>
<ellipse fill="#ffcccc" stroke="black" cx="119.5" cy="-34" rx="18" ry="18"/>
<text xml:space="preserve" text-anchor="middle" x="119.5" y="-28.2" font-family="Helvetica,sans-Serif" font-size="14.00">6</text>
</g>
<!-- S3_1&#45;&#45;S3_6 -->
<g id="edge8" class="edge">
<title>S3_1&#45;&#45;S3_6</title>
<path fill="none" stroke="black" d="M51.9,-45.17C66.29,-42.75 86.88,-39.3 101.34,-36.88"/>
<text xml:space="preserve" text-anchor="middle" x="76.75" y="-45.04" font-family="Times,serif" font-size="14.00">5</text>
</g>
<!-- S3_7 -->
<g id="node12" class="node">
<title>S3_7</title>
<ellipse fill="#ffcccc" stroke="black" cx="205" cy="-49" rx="18" ry="18"/>
<text xml:space="preserve" text-anchor="middle" x="205" y="-43.2" font-family="Helvetica,sans-Serif" font-size="14.00">7</text>
</g>
<!-- S3_1&#45;&#45;S3_7 -->
<g id="edge10" class="edge">
<title>S3_1&#45;&#45;S3_7</title>
<path fill="none" stroke="gray" stroke-dasharray="5,2" d="M50.65,-55.69C56.57,-58.21 63.45,-60.7 70,-62 113.16,-70.57 125.79,-71.32 169,-63 175.55,-61.74 182.44,-59.26 188.36,-56.73"/>
<text xml:space="preserve" text-anchor="middle" x="119.5" y="-72.05" font-family="Times,serif" font-size="14.00">18</text>
</g>
<!-- S3_6&#45;&#45;S3_7 -->
<g id="edge9" class="edge">
<title>S3_6&#45;&#45;S3_7</title>
<path fill="none" stroke="black" d="M137.4,-37.04C151.79,-39.62 172.38,-43.32 186.84,-45.92"/>
<text xml:space="preserve" text-anchor="middle" x="162.25" y="-45.6" font-family="Times,serif" font-size="14.00">13</text>
</g>
<!-- S3_connector -->
<g id="node13" class="node">
<title>S3_connector</title>
<ellipse fill="black" stroke="black" cx="34" cy="-101" rx="3.6" ry="3.6"/>
</g>
<!-- S3_connector&#45;&#45;P4_connector -->
<g id="edge28" class="edge">
<title>S3_connector&#45;&#45;P4_connector</title>
<path fill="none" stroke="black" stroke-width="0.2" d="M37.41,-102.08C45.68,-105.93 72.95,-119.92 83.5,-141 104.8,-183.58 67.85,-314.89 93.5,-355 98.56,-362.91 110.09,-366.27 115.54,-367.45"/>
</g>
<!-- P4_7 -->
<g id="node14" class="node">
<title>P4_7</title>
<ellipse fill="#ccffcc" stroke="black" cx="119.5" cy="-328" rx="18" ry="18"/>
<text xml:space="preserve" text-anchor="middle" x="119.5" y="-322.2" font-family="Helvetica,sans-Serif" font-size="14.00">7</text>
</g>
<!-- P4_1 -->
<g id="node15" class="node">
<title>P4_1</title>
<ellipse fill="#ccffcc" stroke="black" cx="205" cy="-348" rx="18" ry="18"/>
<text xml:space="preserve" text-anchor="middle" x="205" y="-342.2" font-family="Helvetica,sans-Serif" font-size="14.00">1</text>
</g>
<!-- P4_7&#45;&#45;P4_1 -->
<g id="edge11" class="edge">
<title>P4_7&#45;&#45;P4_1</title>
<path fill="none" stroke="gray" stroke-dasharray="5,2" d="M134.24,-316.9C144.04,-310.41 157.46,-304.4 169,-309.5 179.74,-314.25 188.6,-324.1 194.71,-332.65"/>
<text xml:space="preserve" text-anchor="middle" x="162.25" y="-312.7" font-family="Times,serif" font-size="14.00">17</text>
</g>
<!-- P4_1&#45;&#45;P4_7 -->
<g id="edge12" class="edge">
<title>P4_1&#45;&#45;P4_7</title>
<path fill="none" stroke="gray" stroke-dasharray="5,2" d="M187.13,-343.96C172.65,-340.49 151.88,-335.52 137.4,-332.05"/>
<text xml:space="preserve" text-anchor="middle" x="162.25" y="-342.4" font-family="Times,serif" font-size="14.00">18</text>
</g>
<!-- P4_1&#45;&#45;P4_7 -->
<g id="edge13" class="edge">
<title>P4_1&#45;&#45;P4_7</title>
<path fill="none" stroke="gray" stroke-dasharray="5,2" d="M188.84,-356.44C179.12,-360.72 166.34,-364.21 155.5,-360 145.98,-356.31 137.47,-348.68 131.23,-341.8"/>
<text xml:space="preserve" text-anchor="middle" x="162.25" y="-365.1" font-family="Times,serif" font-size="14.00">19</text>
</g>
<!-- R5_0 -->
<g id="node17" class="node">
<title>R5_0</title>
<ellipse fill="#ccccff" stroke="black" cx="119.5" cy="-685" rx="18" ry="18"/>
<text xml:space="preserve" text-anchor="middle" x="119.5" y="-679.2" font-family="Helvetica,sans-Serif" font-size="14.00">0</text>
</g>
<!-- R5_2 -->
<g id="node18" class="node">
<title>R5_2</title>
<ellipse fill="#ccccff" stroke="black" cx="205" cy="-660" rx="18" ry="18"/>
<text xml:space="preserve" text-anchor="middle" x="205" y="-654.2" font-family="Helvetica,sans-Serif" font-size="14.00">2</text>
</g>
<!-- R5_0&#45;&#45;R5_2 -->
<g id="edge14" class="edge">
<title>R5_0&#45;&#45;R5_2</title>
<path fill="none" stroke="black" d="M137,-680.06C151.54,-675.71 172.63,-669.39 187.25,-665.01"/>
<text xml:space="preserve" text-anchor="middle" x="162.25" y="-677.2" font-family="Times,serif" font-size="14.00">0</text>
</g>
<!-- R5_3 -->
<g id="node19" class="node">
<title>R5_3</title>
<ellipse fill="#ccccff" stroke="black" cx="290.5" cy="-627" rx="18" ry="18"/>
<text xml:space="preserve" text-anchor="middle" x="290.5" y="-621.2" font-family="Helvetica,sans-Serif" font-size="14.00">3</text>
</g>
<!-- R5_2&#45;&#45;R5_3 -->
<g id="edge15" class="edge">
<title>R5_2&#45;&#45;R5_3</title>
<path fill="none" stroke="black" d="M222.1,-653.64C236.79,-647.83 258.4,-639.29 273.16,-633.46"/>
<text xml:space="preserve" text-anchor="middle" x="247.75" y="-648.68" font-family="Times,serif" font-size="14.00">7</text>
</g>
<!-- R5_4 -->
<g id="node20" class="node">
<title>R5_4</title>
<ellipse fill="#ccccff" stroke="black" cx="376" cy="-700" rx="18" ry="18"/>
<text xml:space="preserve" text-anchor="middle" x="376" y="-694.2" font-family="Helvetica,sans-Serif" font-size="14.00">4</text>
</g>
<!-- R5_3&#45;&#45;R5_4 -->
<g id="edge16" class="edge">
<title>R5_3&#45;&#45;R5_4</title>
<path fill="none" stroke="black" d="M305.48,-637.03C315.39,-644.33 328.85,-654.61 340,-664.5 348.03,-671.62 356.49,-680.17 363.09,-687.1"/>
<text xml:space="preserve" text-anchor="middle" x="333.25" y="-667.7" font-family="Times,serif" font-size="14.00">10</text>
</g>
<!-- R5_4&#45;&#45;R5_0 -->
<g id="edge18" class="edge">
<title>R5_4&#45;&#45;R5_0</title>
<path fill="none" stroke="black" d="M357.83,-700.1C348.5,-700.4 336.8,-701.16 326.5,-703 321.93,-703.82 321.09,-705.33 316.5,-706 250.47,-715.69 171.31,-698.43 137.34,-689.66"/>
<text xml:space="preserve" text-anchor="middle" x="247.75" y="-711.57" font-family="Times,serif" font-size="14.00">1</text>
</g>
<!-- R5_4&#45;&#45;R5_2 -->
<g id="edge17" class="edge">
<title>R5_4&#45;&#45;R5_2</title>
<path fill="none" stroke="black" d="M357.99,-695.98C325.54,-688.29 255.13,-671.63 222.82,-663.98"/>
<text xml:space="preserve" text-anchor="middle" x="290.5" y="-689.12" font-family="Times,serif" font-size="14.00">8</text>
</g>
<!-- R5_1 -->
<g id="node21" class="node">
<title>R5_1</title>
<ellipse fill="#ccccff" stroke="black" cx="454.75" cy="-647" rx="18" ry="18"/>
<text xml:space="preserve" text-anchor="middle" x="454.75" y="-641.2" font-family="Helvetica,sans-Serif" font-size="14.00">1</text>
</g>
<!-- R5_4&#45;&#45;R5_1 -->
<g id="edge19" class="edge">
<title>R5_4&#45;&#45;R5_1</title>
<path fill="none" stroke="black" d="M391.44,-690.03C405.16,-680.56 425.68,-666.38 439.38,-656.92"/>
<text xml:space="preserve" text-anchor="middle" x="415.38" y="-678.29" font-family="Times,serif" font-size="14.00">3</text>
</g>
<!-- R5_1&#45;&#45;R5_3 -->
<g id="edge20" class="edge">
<title>R5_1&#45;&#45;R5_3</title>
<path fill="none" stroke="gray" stroke-dasharray="5,2" d="M436.51,-644.88C405.37,-641.04 340.09,-632.99 308.86,-629.14"/>
<text xml:space="preserve" text-anchor="middle" x="376" y="-642.51" font-family="Times,serif" font-size="14.00">20</text>
</g>
<!-- R5_5 -->
<g id="node22" class="node">
<title>R5_5</title>
<ellipse fill="#ccccff" stroke="black" cx="533.5" cy="-687" rx="18" ry="18"/>
<text xml:space="preserve" text-anchor="middle" x="533.5" y="-681.2" font-family="Helvetica,sans-Serif" font-size="14.00">5</text>
</g>
<!-- R5_1&#45;&#45;R5_5 -->
<g id="edge21" class="edge">
<title>R5_1&#45;&#45;R5_5</title>
<path fill="none" stroke="black" d="M471.28,-655.09C484.6,-662.03 503.68,-671.98 516.99,-678.92"/>
<text xml:space="preserve" text-anchor="middle" x="494.12" y="-671.4" font-family="Times,serif" font-size="14.00">4</text>
</g>
<!-- R5_5&#45;&#45;R5_0 -->
<g id="edge24" class="edge">
<title>R5_5&#45;&#45;R5_0</title>
<path fill="none" stroke="black" d="M517.81,-695.75C506.02,-702.36 488.86,-711.1 472.75,-716 374.05,-746.03 342.79,-745.79 241,-729 201.67,-722.51 158.43,-703.58 135.97,-692.79"/>
<text xml:space="preserve" text-anchor="middle" x="333.25" y="-743.54" font-family="Times,serif" font-size="14.00">2</text>
</g>
<!-- R5_5&#45;&#45;R5_2 -->
<g id="edge23" class="edge">
<title>R5_5&#45;&#45;R5_2</title>
<path fill="none" stroke="black" d="M523.47,-671.59C513.3,-655.77 495.23,-631.84 472.75,-620 410.81,-587.37 386.37,-604.45 316.5,-600 296.98,-598.76 290.75,-592.98 272.5,-600 248.84,-609.1 228.35,-630.93 216.59,-645.6"/>
<text xml:space="preserve" text-anchor="middle" x="376" y="-603.72" font-family="Times,serif" font-size="14.00">9</text>
</g>
<!-- R5_5&#45;&#45;R5_4 -->
<g id="edge22" class="edge">
<title>R5_5&#45;&#45;R5_4</title>
<path fill="none" stroke="black" d="M515.19,-688.45C485.24,-690.95 424.13,-696.06 394.24,-698.56"/>
<text xml:space="preserve" text-anchor="middle" x="454.75" y="-698.2" font-family="Times,serif" font-size="14.00">12</text>
</g>
</g>
</svg>
