<?xml version="1.0" encoding="UTF-8" standalone="no"?>
<!DOCTYPE svg PUBLIC "-//W3C//DTD SVG 1.1//EN"
 "http://www.w3.org/Graphics/SVG/1.1/DTD/svg11.dtd">
<!-- Generated by graphviz version 13.1.0 (20250701.0955)
 -->
<!-- Title: components Pages: 1 -->
<svg width="504pt" height="1181pt"
 viewBox="0.00 0.00 504.00 1181.00" xmlns="http://www.w3.org/2000/svg" xmlns:xlink="http://www.w3.org/1999/xlink">
<g id="graph0" class="graph" transform="scale(1 1) rotate(0) translate(4 1177)">
<title>components</title>
<polygon fill="white" stroke="none" points="-4,4 -4,-1177 499.5,-1177 499.5,4 -4,4"/>
<g id="clust1" class="cluster">
<title>cluster_graph</title>
<polygon fill="#f0f0f0" stroke="black" points="8,-8 8,-285 487.5,-285 487.5,-8 8,-8"/>
<text xml:space="preserve" text-anchor="middle" x="247.75" y="-267.7" font-family="Times,serif" font-size="14.00">Graph</text>
</g>
<g id="clust2" class="cluster">
<title>cluster_S1</title>
<polygon fill="#ffe6e6" stroke="black" points="8,-731 8,-862 231,-862 231,-731 8,-731"/>
<text xml:space="preserve" text-anchor="middle" x="119.5" y="-844.7" font-family="Times,serif" font-size="14.00">S&#45;component (1)</text>
</g>
<g id="clust3" class="cluster">
<title>cluster_S2</title>
<polygon fill="#ffe6e6" stroke="black" points="8,-430 8,-560 231,-560 231,-430 8,-430"/>
<text xml:space="preserve" text-anchor="middle" x="119.5" y="-542.7" font-family="Times,serif" font-size="14.00">S&#45;component (2)</text>
</g>
<g id="clust4" class="cluster">
<title>cluster_S3</title>
<polygon fill="#ffe6e6" stroke="black" points="8,-293 8,-422 231,-422 231,-293 8,-293"/>
<text xml:space="preserve" text-anchor="middle" x="119.5" y="-404.7" font-family="Times,serif" font-size="14.00">S&#45;component (3)</text>
</g>
<g id="clust5" class="cluster">
<title>cluster_P4</title>
<polygon fill="#e6ffe6" stroke="black" points="93.5,-568 93.5,-723 231,-723 231,-568 93.5,-568"/>
<text xml:space="preserve" text-anchor="middle" x="162.25" y="-705.7" font-family="Times,serif" font-size="14.00">P&#45;component (4)</text>
</g>
<g id="clust6" class="cluster">
<title>cluster_R5</title>
<polygon fill="#e6e6ff" stroke="black" points="93.5,-870 93.5,-1165 487.5,-1165 487.5,-870 93.5,-870"/>
<text xml:space="preserve" text-anchor="middle" x="290.5" y="-1147.7" font-family="Times,serif" font-size="14.00">R&#45;component (5)</text>
</g>
<!-- 0 -->
<g id="node1" class="node">
<title>0</title>
<ellipse fill="#ffffff" stroke="black" cx="34" cy="-144" rx="18" ry="18"/>
<text xml:space="preserve" text-anchor="middle" x="34" y="-138.2" font-family="Helvetica,sans-Serif" font-size="14.00">0</text>
</g>
<!-- 2 -->
<g id="node2" class="node">
<title>2</title>
<ellipse fill="#ffffff" stroke="black" cx="119.5" cy="-88" rx="18" ry="18"/>
<text xml:space="preserve" text-anchor="middle" x="119.5" y="-82.2" font-family="Helvetica,sans-Serif" font-size="14.00">2</text>
</g>
<!-- 0&#45;&#45;2 -->
<g id="edge1" class="edge">
<title>0&#45;&#45;2</title>
<path fill="none" stroke="black" d="M49.54,-134.25C64.78,-124.03 88.57,-108.07 103.84,-97.83"/>
<text xml:space="preserve" text-anchor="middle" x="76.75" y="-122.55" font-family="Times,serif" font-size="14.00">0</text>
</g>
<!-- 4 -->
<g id="node3" class="node">
<title>4</title>
<ellipse fill="#ffffff" stroke="black" cx="290.5" cy="-87" rx="18" ry="18"/>
<text xml:space="preserve" text-anchor="middle" x="290.5" y="-81.2" font-family="Helvetica,sans-Serif" font-size="14.00">4</text>
</g>
<!-- 0&#45;&#45;4 -->
<g id="edge2" class="edge">
<title>0&#45;&#45;4</title>
<path fill="none" stroke="black" d="M52.24,-143.8C86.94,-142.95 167.34,-138.7 231,-118 246.74,-112.88 263.28,-103.71 274.74,-96.67"/>
<text xml:space="preserve" text-anchor="middle" x="162.25" y="-138.19" font-family="Times,serif" font-size="14.00">1</text>
</g>
<!-- 5 -->
<g id="node4" class="node">
<title>5</title>
<ellipse fill="#ffffff" stroke="black" cx="376" cy="-112" rx="18" ry="18"/>
<text xml:space="preserve" text-anchor="middle" x="376" y="-106.2" font-family="Helvetica,sans-Serif" font-size="14.00">5</text>
</g>
<!-- 0&#45;&#45;5 -->
<g id="edge3" class="edge">
<title>0&#45;&#45;5</title>
<path fill="none" stroke="black" d="M50.89,-151.16C88.48,-166.98 184.92,-200.9 254.5,-167 266.17,-161.31 261.82,-151.38 272.5,-144 286.53,-134.3 332.88,-122.12 358.17,-115.96"/>
<text xml:space="preserve" text-anchor="middle" x="205" y="-184.71" font-family="Times,serif" font-size="14.00">2</text>
</g>
<!-- 2&#45;&#45;4 -->
<g id="edge7" class="edge">
<title>2&#45;&#45;4</title>
<path fill="none" stroke="black" d="M137.52,-91.51C143.21,-92.53 149.6,-93.5 155.5,-94 175.91,-95.74 149.04,-102.6 254.5,-93 260.39,-92.46 266.79,-91.49 272.48,-90.47"/>
<text xml:space="preserve" text-anchor="middle" x="205" y="-101.07" font-family="Times,serif" font-size="14.00">6</text>
</g>
<!-- 2&#45;&#45;5 -->
<g id="edge10" class="edge">
<title>2&#45;&#45;5</title>
<path fill="none" stroke="black" d="M130.82,-73.64C142.5,-58.73 163.06,-36.32 187,-27 205.22,-19.91 211.84,-23.09 231,-27 267.68,-34.48 276.26,-40.97 308.5,-60 328.44,-71.77 349.1,-88.82 361.99,-100.15"/>
<text xml:space="preserve" text-anchor="middle" x="247.75" y="-35.93" font-family="Times,serif" font-size="14.00">9</text>
</g>
<!-- 3 -->
<g id="node6" class="node">
<title>3</title>
<ellipse fill="#ffffff" stroke="black" cx="205" cy="-54" rx="18" ry="18"/>
<text xml:space="preserve" text-anchor="middle" x="205" y="-48.2" font-family="Helvetica,sans-Serif" font-size="14.00">3</text>
</g>
<!-- 2&#45;&#45;3 -->
<g id="edge6" class="edge">
<title>2&#45;&#45;3</title>
<path fill="none" stroke="black" d="M136.6,-81.44C151.39,-75.42 173.18,-66.55 187.95,-60.54"/>
<text xml:space="preserve" text-anchor="middle" x="162.25" y="-76.24" font-family="Times,serif" font-size="14.00">5</text>
</g>
<!-- 4&#45;&#45;5 -->
<g id="edge8" class="edge">
<title>4&#45;&#45;5</title>
<path fill="none" stroke="black" d="M308,-91.94C322.54,-96.29 343.63,-102.61 358.25,-106.99"/>
<text xml:space="preserve" text-anchor="middle" x="333.25" y="-104.2" font-family="Times,serif" font-size="14.00">7</text>
</g>
<!-- 1 -->
<g id="node5" class="node">
<title>1</title>
<ellipse fill="#ffffff" stroke="black" cx="205" cy="-234" rx="18" ry="18"/>
<text xml:space="preserve" text-anchor="middle" x="205" y="-228.2" font-family="Helvetica,sans-Serif" font-size="14.00">1</text>
</g>
<!-- 1&#45;&#45;4 -->
<g id="edge4" class="edge">
<title>1&#45;&#45;4</title>
<path fill="none" stroke="black" d="M218.14,-221.18C222.78,-215.65 227.74,-208.88 231,-202 239.67,-183.68 232.89,-176.08 241,-157.5 250.46,-135.85 266.87,-113.9 277.96,-100.37"/>
<text xml:space="preserve" text-anchor="middle" x="247.75" y="-160.7" font-family="Times,serif" font-size="14.00">3</text>
</g>
<!-- 1&#45;&#45;5 -->
<g id="edge5" class="edge">
<title>1&#45;&#45;5</title>
<path fill="none" stroke="black" d="M217.93,-220.85C230.64,-207.28 251.76,-185.95 272.5,-170.5 301.25,-149.07 338.59,-129.6 359.34,-119.43"/>
<text xml:space="preserve" text-anchor="middle" x="290.5" y="-173.7" font-family="Times,serif" font-size="14.00">4</text>
</g>
<!-- 6 -->
<g id="node7" class="node">
<title>6</title>
<ellipse fill="#ffffff" stroke="black" cx="290.5" cy="-214" rx="18" ry="18"/>
<text xml:space="preserve" text-anchor="middle" x="290.5" y="-208.2" font-family="Helvetica,sans-Serif" font-size="14.00">6</text>
</g>
<!-- 1&#45;&#45;6 -->
<g id="edge11" class="edge">
<title>1&#45;&#45;6</title>
<path fill="none" stroke="black" d="M222.9,-229.95C237.38,-226.48 258.15,-221.51 272.63,-218.04"/>
<text xml:space="preserve" text-anchor="middle" x="247.75" y="-228.4" font-family="Times,serif" font-size="14.00">10</text>
</g>
<!-- 8 -->
<g id="node9" class="node">
<title>8</title>
<ellipse fill="#ffffff" stroke="black" cx="461.5" cy="-211" rx="18" ry="18"/>
<text xml:space="preserve" text-anchor="middle" x="461.5" y="-205.2" font-family="Helvetica,sans-Serif" font-size="14.00">8</text>
</g>
<!-- 1&#45;&#45;8 -->
<g id="edge14" class="edge">
<title>1&#45;&#45;8</title>
<path fill="none" stroke="black" d="M222.09,-240.76C227.94,-242.88 234.66,-244.94 241,-246 246.92,-246.99 248.51,-246.28 254.5,-246 330.99,-242.47 351.47,-244.55 425.5,-225 431.95,-223.3 438.82,-220.73 444.75,-218.25"/>
<text xml:space="preserve" text-anchor="middle" x="333.25" y="-245.83" font-family="Times,serif" font-size="14.00">13</text>
</g>
<!-- 3&#45;&#45;4 -->
<g id="edge9" class="edge">
<title>3&#45;&#45;4</title>
<path fill="none" stroke="black" d="M222.1,-60.36C236.79,-66.17 258.4,-74.71 273.16,-80.54"/>
<text xml:space="preserve" text-anchor="middle" x="247.75" y="-75.68" font-family="Times,serif" font-size="14.00">8</text>
</g>
<!-- 9 -->
<g id="node10" class="node">
<title>9</title>
<ellipse fill="#ffffff" stroke="black" cx="461.5" cy="-108" rx="18" ry="18"/>
<text xml:space="preserve" text-anchor="middle" x="461.5" y="-102.2" font-family="Helvetica,sans-Serif" font-size="14.00">9</text>
</g>
<!-- 3&#45;&#45;9 -->
<g id="edge16" class="edge">
<title>3&#45;&#45;9</title>
<path fill="none" stroke="black" d="M223.18,-53.83C243.65,-53.89 278.82,-54.86 308.5,-60 347.51,-66.76 356.28,-72.97 394,-85 411.23,-90.49 430.76,-97.32 444.18,-102.11"/>
<text xml:space="preserve" text-anchor="middle" x="333.25" y="-69.96" font-family="Times,serif" font-size="14.00">15</text>
</g>
<!-- 7 -->
<g id="node8" class="node">
<title>7</title>
<ellipse fill="#ffffff" stroke="black" cx="376" cy="-196" rx="18" ry="18"/>
<text xml:space="preserve" text-anchor="middle" x="376" y="-190.2" font-family="Helvetica,sans-Serif" font-size="14.00">7</text>
</g>
<!-- 6&#45;&#45;7 -->
<g id="edge12" class="edge">
<title>6&#45;&#45;7</title>
<path fill="none" stroke="black" d="M306.68,-205.18C312.66,-202.16 319.71,-199.13 326.5,-197.5 336.66,-195.06 348.35,-194.63 357.72,-194.84"/>
<text xml:space="preserve" text-anchor="middle" x="333.25" y="-200.7" font-family="Times,serif" font-size="14.00">11</text>
</g>
<!-- 7&#45;&#45;8 -->
<g id="edge13" class="edge">
<title>7&#45;&#45;8</title>
<path fill="none" stroke="black" d="M393.9,-199.04C408.29,-201.62 428.88,-205.32 443.34,-207.92"/>
<text xml:space="preserve" text-anchor="middle" x="418.75" y="-207.6" font-family="Times,serif" font-size="14.00">12</text>
</g>
<!-- 7&#45;&#45;9 -->
<g id="edge15" class="edge">
<title>7&#45;&#45;9</title>
<path fill="none" stroke="black" d="M388.96,-183.39C404.75,-166.76 432.38,-137.64 448.29,-120.87"/>
<text xml:space="preserve" text-anchor="middle" x="418.75" y="-160.47" font-family="Times,serif" font-size="14.00">14</text>
</g>
<!-- S1_7 -->
<g id="node11" class="node">
<title>S1_7</title>
<ellipse fill="#ffcccc" stroke="black" cx="119.5" cy="-757" rx="18" ry="18"/>
<text xml:space="preserve" text-anchor="middle" x="119.5" y="-751.2" font-family="Helvetica,sans-Serif" font-size="14.00">7</text>
</g>
<!-- S1_9 -->
<g id="node12" class="node">
<title>S1_9</title>
<ellipse fill="#ffcccc" stroke="black" cx="205" cy="-780" rx="18" ry="18"/>
<text xml:space="preserve" text-anchor="middle" x="205" y="-774.2" font-family="Helvetica,sans-Serif" font-size="14.00">9</text>
</g>
<!-- S1_7&#45;&#45;S1_9 -->
<g id="edge17" class="edge">
<title>S1_7&#45;&#45;S1_9</title>
<path fill="none" stroke="black" d="M137.77,-759.09C147.12,-760.45 158.82,-762.54 169,-765.5 175.44,-767.37 182.31,-770.06 188.23,-772.61"/>
<text xml:space="preserve" text-anchor="middle" x="162.25" y="-768.7" font-family="Times,serif" font-size="14.00">14</text>
</g>
<!-- S1_3 -->
<g id="node13" class="node">
<title>S1_3</title>
<ellipse fill="#ffcccc" stroke="black" cx="119.5" cy="-811" rx="18" ry="18"/>
<text xml:space="preserve" text-anchor="middle" x="119.5" y="-805.2" font-family="Helvetica,sans-Serif" font-size="14.00">3</text>
</g>
<!-- S1_3&#45;&#45;S1_9 -->
<g id="edge18" class="edge">
<title>S1_3&#45;&#45;S1_9</title>
<path fill="none" stroke="black" d="M136.6,-805.02C151.29,-799.57 172.9,-791.55 187.66,-786.06"/>
<text xml:space="preserve" text-anchor="middle" x="162.25" y="-800.56" font-family="Times,serif" font-size="14.00">15</text>
</g>
<!-- S1_1 -->
<g id="node14" class="node">
<title>S1_1</title>
<ellipse fill="#ffcccc" stroke="black" cx="34" cy="-766" rx="18" ry="18"/>
<text xml:space="preserve" text-anchor="middle" x="34" y="-760.2" font-family="Helvetica,sans-Serif" font-size="14.00">1</text>
</g>
<!-- S1_1&#45;&#45;S1_7 -->
<g id="edge20" class="edge">
<title>S1_1&#45;&#45;S1_7</title>
<path fill="none" stroke="gray" stroke-dasharray="5,2" d="M52.3,-764.14C66.63,-762.59 86.9,-760.41 101.22,-758.86"/>
<text xml:space="preserve" text-anchor="middle" x="76.75" y="-765.24" font-family="Times,serif" font-size="14.00">18</text>
</g>
<!-- S1_1&#45;&#45;S1_3 -->
<g id="edge19" class="edge">
<title>S1_1&#45;&#45;S1_3</title>
<path fill="none" stroke="gray" stroke-dasharray="5,2" d="M50.32,-774.25C65.29,-782.32 87.96,-794.54 103,-802.65"/>
<text xml:space="preserve" text-anchor="middle" x="76.75" y="-794.39" font-family="Times,serif" font-size="14.00">19</text>
</g>
<!-- S1_connector -->
<g id="node15" class="node">
<title>S1_connector</title>
<ellipse fill="black" stroke="black" cx="34" cy="-820" rx="3.6" ry="3.6"/>
</g>
<!-- P4_connector -->
<g id="node26" class="node">
<title>P4_connector</title>
<ellipse fill="black" stroke="black" cx="119.5" cy="-654" rx="3.6" ry="3.6"/>
</g>
<!-- S1_connector&#45;&#45;P4_connector -->
<g id="edge42" class="edge">
<title>S1_connector&#45;&#45;P4_connector</title>
<path fill="none" stroke="black" stroke-width="0.2" d="M36.9,-817.23C40.16,-812.41 46.97,-802.12 52,-793 59.49,-779.41 108.02,-676.29 117.05,-657.08"/>
</g>
<!-- R5_connector -->
<g id="node33" class="node">
<title>R5_connector</title>
<ellipse fill="black" stroke="black" cx="119.5" cy="-954" rx="3.6" ry="3.6"/>
</g>
<!-- S1_connector&#45;&#45;R5_connector -->
<g id="edge41" class="edge">
<title>S1_connector&#45;&#45;R5_connector</title>
<path fill="none" stroke="black" stroke-width="0.2" d="M35.81,-823.44C39.61,-838.99 57.09,-903.51 93.5,-941 99.91,-947.6 110.39,-951.52 115.5,-953.13"/>
</g>
<!-- S2_7 -->
<g id="node16" class="node">
<title>S2_7</title>
<ellipse fill="#ffcccc" stroke="black" cx="34" cy="-470" rx="18" ry="18"/>
<text xml:space="preserve" text-anchor="middle" x="34" y="-464.2" font-family="Helvetica,sans-Serif" font-size="14.00">7</text>
</g>
<!-- S2_8 -->
<g id="node17" class="node">
<title>S2_8</title>
<ellipse fill="#ffcccc" stroke="black" cx="205" cy="-468" rx="18" ry="18"/>
<text xml:space="preserve" text-anchor="middle" x="205" y="-462.2" font-family="Helvetica,sans-Serif" font-size="14.00">8</text>
</g>
<!-- S2_7&#45;&#45;S2_8 -->
<g id="edge21" class="edge">
<title>S2_7&#45;&#45;S2_8</title>
<path fill="none" stroke="black" d="M52.39,-468.31C64.01,-467.27 79.66,-466.03 93.5,-465.5 126.48,-464.23 165.03,-465.8 186.77,-466.96"/>
<text xml:space="preserve" text-anchor="middle" x="119.5" y="-468.7" font-family="Times,serif" font-size="14.00">12</text>
</g>
<!-- S2_1 -->
<g id="node18" class="node">
<title>S2_1</title>
<ellipse fill="#ffcccc" stroke="black" cx="119.5" cy="-509" rx="18" ry="18"/>
<text xml:space="preserve" text-anchor="middle" x="119.5" y="-503.2" font-family="Helvetica,sans-Serif" font-size="14.00">1</text>
</g>
<!-- S2_7&#45;&#45;S2_1 -->
<g id="edge23" class="edge">
<title>S2_7&#45;&#45;S2_1</title>
<path fill="none" stroke="gray" stroke-dasharray="5,2" d="M50.71,-477.34C65.54,-484.26 87.68,-494.6 102.58,-501.56"/>
<text xml:space="preserve" text-anchor="middle" x="76.75" y="-495.04" font-family="Times,serif" font-size="14.00">16</text>
</g>
<!-- S2_1&#45;&#45;S2_8 -->
<g id="edge22" class="edge">
<title>S2_1&#45;&#45;S2_8</title>
<path fill="none" stroke="black" d="M136.21,-501.29C151.13,-493.96 173.46,-483 188.36,-475.68"/>
<text xml:space="preserve" text-anchor="middle" x="162.25" y="-494.15" font-family="Times,serif" font-size="14.00">13</text>
</g>
<!-- S2_connector -->
<g id="node19" class="node">
<title>S2_connector</title>
<ellipse fill="black" stroke="black" cx="34" cy="-524" rx="3.6" ry="3.6"/>
</g>
<!-- S2_connector&#45;&#45;P4_connector -->
<g id="edge43" class="edge">
<title>S2_connector&#45;&#45;P4_connector</title>
<path fill="none" stroke="black" stroke-width="0.2" d="M35.84,-527.33C39.79,-542.36 57.82,-604.74 93.5,-641 99.95,-647.55 110.41,-651.49 115.51,-653.12"/>
</g>
<!-- S3_1 -->
<g id="node20" class="node">
<title>S3_1</title>
<ellipse fill="#ffcccc" stroke="black" cx="34" cy="-333" rx="18" ry="18"/>
<text xml:space="preserve" text-anchor="middle" x="34" y="-327.2" font-family="Helvetica,sans-Serif" font-size="14.00">1</text>
</g>
<!-- S3_6 -->
<g id="node21" class="node">
<title>S3_6</title>
<ellipse fill="#ffcccc" stroke="black" cx="119.5" cy="-319" rx="18" ry="18"/>
<text xml:space="preserve" text-anchor="middle" x="119.5" y="-313.2" font-family="Helvetica,sans-Serif" font-size="14.00">6</text>
</g>
<!-- S3_1&#45;&#45;S3_6 -->
<g id="edge24" class="edge">
<title>S3_1&#45;&#45;S3_6</title>
<path fill="none" stroke="black" d="M51.9,-330.17C66.29,-327.75 86.88,-324.3 101.34,-321.88"/>
<text xml:space="preserve" text-anchor="middle" x="76.75" y="-330.04" font-family="Times,serif" font-size="14.00">10</text>
</g>
<!-- S3_7 -->
<g id="node22" class="node">
<title>S3_7</title>
<ellipse fill="#ffcccc" stroke="black" cx="205" cy="-334" rx="18" ry="18"/>
<text xml:space="preserve" text-anchor="middle" x="205" y="-328.2" font-family="Helvetica,sans-Serif" font-size="14.00">7</text>
</g>
<!-- S3_1&#45;&#45;S3_7 -->
<g id="edge26" class="edge">
<title>S3_1&#45;&#45;S3_7</title>
<path fill="none" stroke="gray" stroke-dasharray="5,2" d="M50.65,-340.69C56.57,-343.21 63.45,-345.7 70,-347 113.16,-355.57 125.79,-356.32 169,-348 175.55,-346.74 182.44,-344.26 188.36,-341.73"/>
<text xml:space="preserve" text-anchor="middle" x="119.5" y="-357.05" font-family="Times,serif" font-size="14.00">17</text>
</g>
<!-- S3_6&#45;&#45;S3_7 -->
<g id="edge25" class="edge">
<title>S3_6&#45;&#45;S3_7</title>
<path fill="none" stroke="black" d="M137.4,-322.04C151.79,-324.62 172.38,-328.32 186.84,-330.92"/>
<text xml:space="preserve" text-anchor="middle" x="162.25" y="-330.6" font-family="Times,serif" font-size="14.00">11</text>
</g>
<!-- S3_connector -->
<g id="node23" class="node">
<title>S3_connector</title>
<ellipse fill="black" stroke="black" cx="34" cy="-386" rx="3.6" ry="3.6"/>
</g>
<!-- S3_connector&#45;&#45;P4_connector -->
<g id="edge44" class="edge">
<title>S3_connector&#45;&#45;P4_connector</title>
<path fill="none" stroke="black" stroke-width="0.2" d="M37.41,-387.08C45.68,-390.93 72.95,-404.92 83.5,-426 104.9,-468.78 67.73,-600.7 93.5,-641 98.56,-648.91 110.09,-652.27 115.54,-653.45"/>
</g>
<!-- P4_7 -->
<g id="node24" class="node">
<title>P4_7</title>
<ellipse fill="#ccffcc" stroke="black" cx="119.5" cy="-614" rx="18" ry="18"/>
<text xml:space="preserve" text-anchor="middle" x="119.5" y="-608.2" font-family="Helvetica,sans-Serif" font-size="14.00">7</text>
</g>
<!-- P4_1 -->
<g id="node25" class="node">
<title>P4_1</title>
<ellipse fill="#ccffcc" stroke="black" cx="205" cy="-634" rx="18" ry="18"/>
<text xml:space="preserve" text-anchor="middle" x="205" y="-628.2" font-family="Helvetica,sans-Serif" font-size="14.00">1</text>
</g>
<!-- P4_7&#45;&#45;P4_1 -->
<g id="edge27" class="edge">
<title>P4_7&#45;&#45;P4_1</title>
<path fill="none" stroke="gray" stroke-dasharray="5,2" d="M134.24,-602.9C144.04,-596.41 157.46,-590.4 169,-595.5 179.74,-600.25 188.6,-610.1 194.71,-618.65"/>
<text xml:space="preserve" text-anchor="middle" x="162.25" y="-598.7" font-family="Times,serif" font-size="14.00">16</text>
</g>
<!-- P4_1&#45;&#45;P4_7 -->
<g id="edge28" class="edge">
<title>P4_1&#45;&#45;P4_7</title>
<path fill="none" stroke="gray" stroke-dasharray="5,2" d="M187.13,-629.96C172.65,-626.49 151.88,-621.52 137.4,-618.05"/>
<text xml:space="preserve" text-anchor="middle" x="162.25" y="-628.4" font-family="Times,serif" font-size="14.00">17</text>
</g>
<!-- P4_1&#45;&#45;P4_7 -->
<g id="edge29" class="edge">
<title>P4_1&#45;&#45;P4_7</title>
<path fill="none" stroke="gray" stroke-dasharray="5,2" d="M188.84,-642.44C179.12,-646.72 166.34,-650.21 155.5,-646 145.98,-642.31 137.47,-634.68 131.23,-627.8"/>
<text xml:space="preserve" text-anchor="middle" x="162.25" y="-651.1" font-family="Times,serif" font-size="14.00">18</text>
</g>
<!-- R5_0 -->
<g id="node27" class="node">
<title>R5_0</title>
<ellipse fill="#ccccff" stroke="black" cx="119.5" cy="-914" rx="18" ry="18"/>
<text xml:space="preserve" text-anchor="middle" x="119.5" y="-908.2" font-family="Helvetica,sans-Serif" font-size="14.00">0</text>
</g>
<!-- R5_2 -->
<g id="node28" class="node">
<title>R5_2</title>
<ellipse fill="#ccccff" stroke="black" cx="205" cy="-936" rx="18" ry="18"/>
<text xml:space="preserve" text-anchor="middle" x="205" y="-930.2" font-family="Helvetica,sans-Serif" font-size="14.00">2</text>
</g>
<!-- R5_0&#45;&#45;R5_2 -->
<g id="edge30" class="edge">
<title>R5_0&#45;&#45;R5_2</title>
<path fill="none" stroke="black" d="M137.4,-918.45C151.88,-922.27 172.65,-927.74 187.13,-931.55"/>
<text xml:space="preserve" text-anchor="middle" x="162.25" y="-929.52" font-family="Times,serif" font-size="14.00">0</text>
</g>
<!-- R5_4 -->
<g id="node30" class="node">
<title>R5_4</title>
<ellipse fill="#ccccff" stroke="black" cx="376" cy="-989" rx="18" ry="18"/>
<text xml:space="preserve" text-anchor="middle" x="376" y="-983.2" font-family="Helvetica,sans-Serif" font-size="14.00">4</text>
</g>
<!-- R5_0&#45;&#45;R5_4 -->
<g id="edge34" class="edge">
<title>R5_0&#45;&#45;R5_4</title>
<path fill="none" stroke="black" d="M137.79,-911.51C159.59,-908.77 198.19,-905.21 231,-909 282.42,-914.94 298.94,-918.48 340,-950 349.24,-957.09 357.99,-966.84 364.43,-974.82"/>
<text xml:space="preserve" text-anchor="middle" x="247.75" y="-915.16" font-family="Times,serif" font-size="14.00">1</text>
</g>
<!-- R5_5 -->
<g id="node32" class="node">
<title>R5_5</title>
<ellipse fill="#ccccff" stroke="black" cx="461.5" cy="-1056" rx="18" ry="18"/>
<text xml:space="preserve" text-anchor="middle" x="461.5" y="-1050.2" font-family="Helvetica,sans-Serif" font-size="14.00">5</text>
</g>
<!-- R5_0&#45;&#45;R5_5 -->
<g id="edge40" class="edge">
<title>R5_0&#45;&#45;R5_5</title>
<path fill="none" stroke="black" d="M130.4,-928.55C132.88,-932.5 135.42,-936.84 137.5,-941 174.63,-1015.46 120.8,-1116 204,-1116 204,-1116 204,-1116 377,-1116 408.24,-1116 435.79,-1087.96 450.09,-1070.22"/>
<text xml:space="preserve" text-anchor="middle" x="290.5" y="-1119.2" font-family="Times,serif" font-size="14.00">2</text>
</g>
<!-- R5_3 -->
<g id="node29" class="node">
<title>R5_3</title>
<ellipse fill="#ccccff" stroke="black" cx="290.5" cy="-989" rx="18" ry="18"/>
<text xml:space="preserve" text-anchor="middle" x="290.5" y="-983.2" font-family="Helvetica,sans-Serif" font-size="14.00">3</text>
</g>
<!-- R5_2&#45;&#45;R5_3 -->
<g id="edge31" class="edge">
<title>R5_2&#45;&#45;R5_3</title>
<path fill="none" stroke="black" d="M220.54,-945.23C235.78,-954.9 259.57,-970 274.84,-979.7"/>
<text xml:space="preserve" text-anchor="middle" x="247.75" y="-968.87" font-family="Times,serif" font-size="14.00">5</text>
</g>
<!-- R5_2&#45;&#45;R5_4 -->
<g id="edge33" class="edge">
<title>R5_2&#45;&#45;R5_4</title>
<path fill="none" stroke="black" d="M223.22,-935.11C244.03,-934.58 279.82,-935.49 308.5,-945.5 328.82,-952.59 349.07,-967.19 361.79,-977.52"/>
<text xml:space="preserve" text-anchor="middle" x="290.5" y="-948.7" font-family="Times,serif" font-size="14.00">6</text>
</g>
<!-- R5_2&#45;&#45;R5_5 -->
<g id="edge39" class="edge">
<title>R5_2&#45;&#45;R5_5</title>
<path fill="none" stroke="black" d="M222.85,-932.79C248.6,-928.53 299.05,-922.72 340,-933.5 366.24,-940.41 373.6,-944.1 394,-962 420.14,-984.94 441.47,-1020.12 452.45,-1040.31"/>
<text xml:space="preserve" text-anchor="middle" x="333.25" y="-936.7" font-family="Times,serif" font-size="14.00">9</text>
</g>
<!-- R5_3&#45;&#45;R5_4 -->
<g id="edge32" class="edge">
<title>R5_3&#45;&#45;R5_4</title>
<path fill="none" stroke="black" d="M308.8,-989C323.13,-989 343.4,-989 357.72,-989"/>
<text xml:space="preserve" text-anchor="middle" x="333.25" y="-992.2" font-family="Times,serif" font-size="14.00">8</text>
</g>
<!-- R5_4&#45;&#45;R5_5 -->
<g id="edge38" class="edge">
<title>R5_4&#45;&#45;R5_5</title>
<path fill="none" stroke="black" d="M390.79,-1000.06C406.26,-1012.48 431.21,-1032.5 446.69,-1044.92"/>
<text xml:space="preserve" text-anchor="middle" x="418.75" y="-1029.71" font-family="Times,serif" font-size="14.00">7</text>
</g>
<!-- R5_1 -->
<g id="node31" class="node">
<title>R5_1</title>
<ellipse fill="#ccccff" stroke="black" cx="205" cy="-1043" rx="18" ry="18"/>
<text xml:space="preserve" text-anchor="middle" x="205" y="-1037.2" font-family="Helvetica,sans-Serif" font-size="14.00">1</text>
</g>
<!-- R5_1&#45;&#45;R5_3 -->
<g id="edge36" class="edge">
<title>R5_1&#45;&#45;R5_3</title>
<path fill="none" stroke="gray" stroke-dasharray="5,2" d="M220.54,-1033.59C235.78,-1023.74 259.57,-1008.36 274.84,-998.48"/>
<text xml:space="preserve" text-anchor="middle" x="247.75" y="-1022.43" font-family="Times,serif" font-size="14.00">19</text>
</g>
<!-- R5_1&#45;&#45;R5_4 -->
<g id="edge35" class="edge">
<title>R5_1&#45;&#45;R5_4</title>
<path fill="none" stroke="black" d="M223.2,-1042.12C232.53,-1041.43 244.23,-1040.18 254.5,-1038 293.61,-1029.68 303.63,-1026.61 340,-1010 346.96,-1006.82 354.28,-1002.59 360.41,-998.75"/>
<text xml:space="preserve" text-anchor="middle" x="290.5" y="-1037.16" font-family="Times,serif" font-size="14.00">3</text>
</g>
<!-- R5_1&#45;&#45;R5_5 -->
<g id="edge37" class="edge">
<title>R5_1&#45;&#45;R5_5</title>
<path fill="none" stroke="black" d="M223.13,-1046.58C236.51,-1049.19 255.6,-1052.52 272.5,-1054 335.09,-1059.48 409.85,-1057.85 443.09,-1056.7"/>
<text xml:space="preserve" text-anchor="middle" x="333.25" y="-1060.66" font-family="Times,serif" font-size="14.00">4</text>
</g>
</g>
</svg>
