<?xml version="1.0" encoding="UTF-8" standalone="no"?>
<!DOCTYPE svg PUBLIC "-//W3C//DTD SVG 1.1//EN"
 "http://www.w3.org/Graphics/SVG/1.1/DTD/svg11.dtd">
<!-- Generated by graphviz version 13.1.0 (20250701.0955)
 -->
<!-- Title: components Pages: 1 -->
<svg width="582pt" height="1305pt"
 viewBox="0.00 0.00 582.00 1305.00" xmlns="http://www.w3.org/2000/svg" xmlns:xlink="http://www.w3.org/1999/xlink">
<g id="graph0" class="graph" transform="scale(1 1) rotate(0) translate(4 1301)">
<title>components</title>
<polygon fill="white" stroke="none" points="-4,4 -4,-1301 578.25,-1301 578.25,4 -4,4"/>
<g id="clust1" class="cluster">
<title>cluster_graph</title>
<polygon fill="#f0f0f0" stroke="black" points="8,-8 8,-264 402,-264 402,-8 8,-8"/>
<text xml:space="preserve" text-anchor="middle" x="205" y="-246.7" font-family="Times,serif" font-size="14.00">Graph</text>
</g>
<g id="clust2" class="cluster">
<title>cluster_S1</title>
<polygon fill="#ffe6e6" stroke="black" points="8,-1159 8,-1289 231,-1289 231,-1159 8,-1159"/>
<text xml:space="preserve" text-anchor="middle" x="119.5" y="-1271.7" font-family="Times,serif" font-size="14.00">S&#45;component (1)</text>
</g>
<g id="clust3" class="cluster">
<title>cluster_P2</title>
<polygon fill="#e6ffe6" stroke="black" points="93.5,-996 93.5,-1151 231,-1151 231,-996 93.5,-996"/>
<text xml:space="preserve" text-anchor="middle" x="162.25" y="-1133.7" font-family="Times,serif" font-size="14.00">P&#45;component (2)</text>
</g>
<g id="clust4" class="cluster">
<title>cluster_S3</title>
<polygon fill="#ffe6e6" stroke="black" points="8,-572 8,-702 231,-702 231,-572 8,-572"/>
<text xml:space="preserve" text-anchor="middle" x="119.5" y="-684.7" font-family="Times,serif" font-size="14.00">S&#45;component (3)</text>
</g>
<g id="clust5" class="cluster">
<title>cluster_P4</title>
<polygon fill="#e6ffe6" stroke="black" points="93.5,-710 93.5,-865 231,-865 231,-710 93.5,-710"/>
<text xml:space="preserve" text-anchor="middle" x="162.25" y="-847.7" font-family="Times,serif" font-size="14.00">P&#45;component (4)</text>
</g>
<g id="clust6" class="cluster">
<title>cluster_S5</title>
<polygon fill="#ffe6e6" stroke="black" points="179,-873 179,-988 487.5,-988 487.5,-873 179,-873"/>
<text xml:space="preserve" text-anchor="middle" x="333.25" y="-970.7" font-family="Times,serif" font-size="14.00">S&#45;component (5)</text>
</g>
<g id="clust7" class="cluster">
<title>cluster_S6</title>
<polygon fill="#ffe6e6" stroke="black" points="179,-272 179,-402 402,-402 402,-272 179,-272"/>
<text xml:space="preserve" text-anchor="middle" x="290.5" y="-384.7" font-family="Times,serif" font-size="14.00">S&#45;component (6)</text>
</g>
<g id="clust8" class="cluster">
<title>cluster_P7</title>
<polygon fill="#e6ffe6" stroke="black" points="264.5,-710 264.5,-865 402,-865 402,-710 264.5,-710"/>
<text xml:space="preserve" text-anchor="middle" x="333.25" y="-847.7" font-family="Times,serif" font-size="14.00">P&#45;component (7)</text>
</g>
<g id="clust9" class="cluster">
<title>cluster_P8</title>
<polygon fill="#e6ffe6" stroke="black" points="264.5,-547 264.5,-702 402,-702 402,-547 264.5,-547"/>
<text xml:space="preserve" text-anchor="middle" x="333.25" y="-684.7" font-family="Times,serif" font-size="14.00">P&#45;component (8)</text>
</g>
<g id="clust10" class="cluster">
<title>cluster_S9</title>
<polygon fill="#ffe6e6" stroke="black" points="350,-410 350,-539 566.25,-539 566.25,-410 350,-410"/>
<text xml:space="preserve" text-anchor="middle" x="458.12" y="-521.7" font-family="Times,serif" font-size="14.00">S&#45;component (9)</text>
</g>
<!-- 0 -->
<g id="node1" class="node">
<title>0</title>
<ellipse fill="#ffffff" stroke="black" cx="34" cy="-160" rx="18" ry="18"/>
<text xml:space="preserve" text-anchor="middle" x="34" y="-154.2" font-family="Helvetica,sans-Serif" font-size="14.00">0</text>
</g>
<!-- 1 -->
<g id="node2" class="node">
<title>1</title>
<ellipse fill="#ffffff" stroke="black" cx="119.5" cy="-88" rx="18" ry="18"/>
<text xml:space="preserve" text-anchor="middle" x="119.5" y="-82.2" font-family="Helvetica,sans-Serif" font-size="14.00">1</text>
</g>
<!-- 0&#45;&#45;1 -->
<g id="edge1" class="edge">
<title>0&#45;&#45;1</title>
<path fill="none" stroke="black" d="M45.88,-146.04C52.42,-138.09 61.17,-128.22 70,-120.5 80.38,-111.43 93.42,-102.83 103.36,-96.75"/>
<text xml:space="preserve" text-anchor="middle" x="76.75" y="-123.7" font-family="Times,serif" font-size="14.00">0</text>
</g>
<!-- 3 -->
<g id="node4" class="node">
<title>3</title>
<ellipse fill="#ffffff" stroke="black" cx="290.5" cy="-166" rx="18" ry="18"/>
<text xml:space="preserve" text-anchor="middle" x="290.5" y="-160.2" font-family="Helvetica,sans-Serif" font-size="14.00">3</text>
</g>
<!-- 0&#45;&#45;3 -->
<g id="edge4" class="edge">
<title>0&#45;&#45;3</title>
<path fill="none" stroke="black" d="M51.73,-164.74C63.34,-167.78 79.23,-171.43 93.5,-173 159.33,-180.23 238.27,-172.43 272.4,-168.27"/>
<text xml:space="preserve" text-anchor="middle" x="162.25" y="-179.14" font-family="Times,serif" font-size="14.00">3</text>
</g>
<!-- 4 -->
<g id="node5" class="node">
<title>4</title>
<ellipse fill="#ffffff" stroke="black" cx="376" cy="-186" rx="18" ry="18"/>
<text xml:space="preserve" text-anchor="middle" x="376" y="-180.2" font-family="Helvetica,sans-Serif" font-size="14.00">4</text>
</g>
<!-- 0&#45;&#45;4 -->
<g id="edge5" class="edge">
<title>0&#45;&#45;4</title>
<path fill="none" stroke="black" d="M46.17,-173.6C60.89,-189.88 88.47,-215 118.5,-215 118.5,-215 118.5,-215 291.5,-215 316.51,-215 343.53,-203.24 359.85,-194.7"/>
<text xml:space="preserve" text-anchor="middle" x="205" y="-218.2" font-family="Times,serif" font-size="14.00">4</text>
</g>
<!-- 5 -->
<g id="node6" class="node">
<title>5</title>
<ellipse fill="#ffffff" stroke="black" cx="205" cy="-141" rx="18" ry="18"/>
<text xml:space="preserve" text-anchor="middle" x="205" y="-135.2" font-family="Helvetica,sans-Serif" font-size="14.00">5</text>
</g>
<!-- 0&#45;&#45;5 -->
<g id="edge7" class="edge">
<title>0&#45;&#45;5</title>
<path fill="none" stroke="black" d="M52.13,-158.07C84.53,-154.43 154.39,-146.58 186.82,-142.93"/>
<text xml:space="preserve" text-anchor="middle" x="119.5" y="-156.51" font-family="Times,serif" font-size="14.00">6</text>
</g>
<!-- 2 -->
<g id="node3" class="node">
<title>2</title>
<ellipse fill="#ffffff" stroke="black" cx="205" cy="-34" rx="18" ry="18"/>
<text xml:space="preserve" text-anchor="middle" x="205" y="-28.2" font-family="Helvetica,sans-Serif" font-size="14.00">2</text>
</g>
<!-- 1&#45;&#45;2 -->
<g id="edge2" class="edge">
<title>1&#45;&#45;2</title>
<path fill="none" stroke="black" d="M135.04,-78.59C150.28,-68.74 174.07,-53.36 189.34,-43.48"/>
<text xml:space="preserve" text-anchor="middle" x="162.25" y="-67.43" font-family="Times,serif" font-size="14.00">1</text>
</g>
<!-- 1&#45;&#45;5 -->
<g id="edge8" class="edge">
<title>1&#45;&#45;5</title>
<path fill="none" stroke="black" d="M135.04,-97.23C150.28,-106.9 174.07,-122 189.34,-131.7"/>
<text xml:space="preserve" text-anchor="middle" x="162.25" y="-120.87" font-family="Times,serif" font-size="14.00">7</text>
</g>
<!-- 6 -->
<g id="node7" class="node">
<title>6</title>
<ellipse fill="#ffffff" stroke="black" cx="290.5" cy="-100" rx="18" ry="18"/>
<text xml:space="preserve" text-anchor="middle" x="290.5" y="-94.2" font-family="Helvetica,sans-Serif" font-size="14.00">6</text>
</g>
<!-- 1&#45;&#45;6 -->
<g id="edge9" class="edge">
<title>1&#45;&#45;6</title>
<path fill="none" stroke="black" d="M137.56,-85.87C160.14,-83.83 200.63,-82.91 231,-97.5 236.81,-100.29 235.08,-105.46 241,-108 246.51,-110.36 248.54,-108.67 254.5,-108 260.57,-107.32 267.12,-105.98 272.9,-104.6"/>
<text xml:space="preserve" text-anchor="middle" x="205" y="-100.7" font-family="Times,serif" font-size="14.00">8</text>
</g>
<!-- 2&#45;&#45;3 -->
<g id="edge3" class="edge">
<title>2&#45;&#45;3</title>
<path fill="none" stroke="black" d="M217.46,-47.66C221.89,-53.2 226.89,-59.76 231,-66 248.02,-91.83 248.7,-100.41 264.5,-127 269.35,-135.16 275.04,-144.08 279.76,-151.33"/>
<text xml:space="preserve" text-anchor="middle" x="247.75" y="-111.33" font-family="Times,serif" font-size="14.00">2</text>
</g>
<!-- 2&#45;&#45;6 -->
<g id="edge10" class="edge">
<title>2&#45;&#45;6</title>
<path fill="none" stroke="black" d="M222.93,-37.45C232.85,-40.09 245.21,-44.49 254.5,-51.5 265.94,-60.13 275.22,-73.55 281.34,-84.08"/>
<text xml:space="preserve" text-anchor="middle" x="247.75" y="-54.7" font-family="Times,serif" font-size="14.00">9</text>
</g>
<!-- 7 -->
<g id="node8" class="node">
<title>7</title>
<ellipse fill="#ffffff" stroke="black" cx="376" cy="-83" rx="18" ry="18"/>
<text xml:space="preserve" text-anchor="middle" x="376" y="-77.2" font-family="Helvetica,sans-Serif" font-size="14.00">7</text>
</g>
<!-- 2&#45;&#45;7 -->
<g id="edge11" class="edge">
<title>2&#45;&#45;7</title>
<path fill="none" stroke="black" d="M223.18,-35.39C232.51,-36.33 244.21,-37.81 254.5,-40 293.17,-48.23 336.32,-65.81 359.03,-75.75"/>
<text xml:space="preserve" text-anchor="middle" x="290.5" y="-58.34" font-family="Times,serif" font-size="14.00">10</text>
</g>
<!-- 3&#45;&#45;4 -->
<g id="edge6" class="edge">
<title>3&#45;&#45;4</title>
<path fill="none" stroke="black" d="M308.4,-170.05C322.88,-173.52 343.65,-178.49 358.13,-181.96"/>
<text xml:space="preserve" text-anchor="middle" x="333.25" y="-180.4" font-family="Times,serif" font-size="14.00">5</text>
</g>
<!-- 3&#45;&#45;7 -->
<g id="edge12" class="edge">
<title>3&#45;&#45;7</title>
<path fill="none" stroke="black" d="M303.82,-153.75C319.61,-138.06 346.82,-111.01 362.63,-95.3"/>
<text xml:space="preserve" text-anchor="middle" x="333.25" y="-132.67" font-family="Times,serif" font-size="14.00">11</text>
</g>
<!-- S1_3 -->
<g id="node9" class="node">
<title>S1_3</title>
<ellipse fill="#ffcccc" stroke="black" cx="34" cy="-1224" rx="18" ry="18"/>
<text xml:space="preserve" text-anchor="middle" x="34" y="-1218.2" font-family="Helvetica,sans-Serif" font-size="14.00">3</text>
</g>
<!-- S1_4 -->
<g id="node10" class="node">
<title>S1_4</title>
<ellipse fill="#ffcccc" stroke="black" cx="205" cy="-1197" rx="18" ry="18"/>
<text xml:space="preserve" text-anchor="middle" x="205" y="-1191.2" font-family="Helvetica,sans-Serif" font-size="14.00">4</text>
</g>
<!-- S1_3&#45;&#45;S1_4 -->
<g id="edge13" class="edge">
<title>S1_3&#45;&#45;S1_4</title>
<path fill="none" stroke="black" d="M49.64,-1214.18C61.05,-1207.15 77.57,-1198.29 93.5,-1194.5 125.8,-1186.82 164.9,-1190.66 186.87,-1193.96"/>
<text xml:space="preserve" text-anchor="middle" x="119.5" y="-1197.7" font-family="Times,serif" font-size="14.00">5</text>
</g>
<!-- S1_0 -->
<g id="node11" class="node">
<title>S1_0</title>
<ellipse fill="#ffcccc" stroke="black" cx="119.5" cy="-1238" rx="18" ry="18"/>
<text xml:space="preserve" text-anchor="middle" x="119.5" y="-1232.2" font-family="Helvetica,sans-Serif" font-size="14.00">0</text>
</g>
<!-- S1_3&#45;&#45;S1_0 -->
<g id="edge15" class="edge">
<title>S1_3&#45;&#45;S1_0</title>
<path fill="none" stroke="gray" stroke-dasharray="5,2" d="M51.9,-1226.83C66.29,-1229.25 86.88,-1232.7 101.34,-1235.12"/>
<text xml:space="preserve" text-anchor="middle" x="76.75" y="-1235.04" font-family="Times,serif" font-size="14.00">12</text>
</g>
<!-- S1_0&#45;&#45;S1_4 -->
<g id="edge14" class="edge">
<title>S1_0&#45;&#45;S1_4</title>
<path fill="none" stroke="black" d="M136.21,-1230.29C151.13,-1222.96 173.46,-1212 188.36,-1204.68"/>
<text xml:space="preserve" text-anchor="middle" x="162.25" y="-1223.15" font-family="Times,serif" font-size="14.00">4</text>
</g>
<!-- S1_connector -->
<g id="node12" class="node">
<title>S1_connector</title>
<ellipse fill="black" stroke="black" cx="34" cy="-1171" rx="3.6" ry="3.6"/>
</g>
<!-- P2_connector -->
<g id="node15" class="node">
<title>P2_connector</title>
<ellipse fill="black" stroke="black" cx="119.5" cy="-1015" rx="3.6" ry="3.6"/>
</g>
<!-- S1_connector&#45;&#45;P2_connector -->
<g id="edge41" class="edge">
<title>S1_connector&#45;&#45;P2_connector</title>
<path fill="none" stroke="black" stroke-width="0.2" d="M35.77,-1167.74C39.66,-1151.82 58.29,-1081.2 93.5,-1035 99.97,-1026.51 110.8,-1019.51 115.81,-1016.53"/>
</g>
<!-- P2_0 -->
<g id="node13" class="node">
<title>P2_0</title>
<ellipse fill="#ccffcc" stroke="black" cx="119.5" cy="-1062" rx="18" ry="18"/>
<text xml:space="preserve" text-anchor="middle" x="119.5" y="-1056.2" font-family="Helvetica,sans-Serif" font-size="14.00">0</text>
</g>
<!-- P2_3 -->
<g id="node14" class="node">
<title>P2_3</title>
<ellipse fill="#ccffcc" stroke="black" cx="205" cy="-1062" rx="18" ry="18"/>
<text xml:space="preserve" text-anchor="middle" x="205" y="-1056.2" font-family="Helvetica,sans-Serif" font-size="14.00">3</text>
</g>
<!-- P2_0&#45;&#45;P2_3 -->
<g id="edge16" class="edge">
<title>P2_0&#45;&#45;P2_3</title>
<path fill="none" stroke="black" d="M129.79,-1046.65C135.9,-1038.1 144.76,-1028.25 155.5,-1023.5 171.13,-1016.58 186.06,-1033.11 195.12,-1046.63"/>
<text xml:space="preserve" text-anchor="middle" x="162.25" y="-1026.7" font-family="Times,serif" font-size="14.00">3</text>
</g>
<!-- P2_3&#45;&#45;P2_0 -->
<g id="edge17" class="edge">
<title>P2_3&#45;&#45;P2_0</title>
<path fill="none" stroke="gray" stroke-dasharray="5,2" d="M186.72,-1062C172.4,-1062 152.13,-1062 137.8,-1062"/>
<text xml:space="preserve" text-anchor="middle" x="162.25" y="-1065.2" font-family="Times,serif" font-size="14.00">12</text>
</g>
<!-- P2_3&#45;&#45;P2_0 -->
<g id="edge18" class="edge">
<title>P2_3&#45;&#45;P2_0</title>
<path fill="none" stroke="gray" stroke-dasharray="5,2" d="M189.85,-1072.05C180.32,-1077.61 167.37,-1082.87 155.5,-1080 148.46,-1078.3 141.25,-1074.92 135.22,-1071.54"/>
<text xml:space="preserve" text-anchor="middle" x="162.25" y="-1084.01" font-family="Times,serif" font-size="14.00">13</text>
</g>
<!-- S5_connector -->
<g id="node27" class="node">
<title>S5_connector</title>
<ellipse fill="black" stroke="black" cx="205" cy="-885" rx="3.6" ry="3.6"/>
</g>
<!-- P2_connector&#45;&#45;S5_connector -->
<g id="edge42" class="edge">
<title>P2_connector&#45;&#45;S5_connector</title>
<path fill="none" stroke="black" stroke-width="0.2" d="M121.67,-1011.6C126.7,-997.27 147.74,-940.89 179,-904 185.77,-896.01 196.45,-889.32 201.36,-886.47"/>
</g>
<!-- S3_3 -->
<g id="node16" class="node">
<title>S3_3</title>
<ellipse fill="#ffcccc" stroke="black" cx="34" cy="-611" rx="18" ry="18"/>
<text xml:space="preserve" text-anchor="middle" x="34" y="-605.2" font-family="Helvetica,sans-Serif" font-size="14.00">3</text>
</g>
<!-- S3_7 -->
<g id="node17" class="node">
<title>S3_7</title>
<ellipse fill="#ffcccc" stroke="black" cx="205" cy="-610" rx="18" ry="18"/>
<text xml:space="preserve" text-anchor="middle" x="205" y="-604.2" font-family="Helvetica,sans-Serif" font-size="14.00">7</text>
</g>
<!-- S3_3&#45;&#45;S3_7 -->
<g id="edge19" class="edge">
<title>S3_3&#45;&#45;S3_7</title>
<path fill="none" stroke="black" d="M52.39,-609.69C64.02,-608.88 79.67,-607.91 93.5,-607.5 126.49,-606.51 165.03,-607.98 186.77,-609.05"/>
<text xml:space="preserve" text-anchor="middle" x="119.5" y="-610.7" font-family="Times,serif" font-size="14.00">11</text>
</g>
<!-- S3_2 -->
<g id="node18" class="node">
<title>S3_2</title>
<ellipse fill="#ffcccc" stroke="black" cx="119.5" cy="-651" rx="18" ry="18"/>
<text xml:space="preserve" text-anchor="middle" x="119.5" y="-645.2" font-family="Helvetica,sans-Serif" font-size="14.00">2</text>
</g>
<!-- S3_3&#45;&#45;S3_2 -->
<g id="edge21" class="edge">
<title>S3_3&#45;&#45;S3_2</title>
<path fill="none" stroke="gray" stroke-dasharray="5,2" d="M50.71,-618.52C65.63,-625.68 87.96,-636.37 102.86,-643.51"/>
<text xml:space="preserve" text-anchor="middle" x="76.75" y="-636.59" font-family="Times,serif" font-size="14.00">14</text>
</g>
<!-- S3_2&#45;&#45;S3_7 -->
<g id="edge20" class="edge">
<title>S3_2&#45;&#45;S3_7</title>
<path fill="none" stroke="black" d="M136.21,-643.29C151.13,-635.96 173.46,-625 188.36,-617.68"/>
<text xml:space="preserve" text-anchor="middle" x="162.25" y="-636.15" font-family="Times,serif" font-size="14.00">10</text>
</g>
<!-- S3_connector -->
<g id="node19" class="node">
<title>S3_connector</title>
<ellipse fill="black" stroke="black" cx="34" cy="-666" rx="3.6" ry="3.6"/>
</g>
<!-- P4_connector -->
<g id="node22" class="node">
<title>P4_connector</title>
<ellipse fill="black" stroke="black" cx="119.5" cy="-822" rx="3.6" ry="3.6"/>
</g>
<!-- S3_connector&#45;&#45;P4_connector -->
<g id="edge43" class="edge">
<title>S3_connector&#45;&#45;P4_connector</title>
<path fill="none" stroke="black" stroke-width="0.2" d="M35.74,-669.3C39.48,-685.42 57.56,-756.91 93.5,-803 99.94,-811.25 110.78,-817.81 115.8,-820.58"/>
</g>
<!-- P4_2 -->
<g id="node20" class="node">
<title>P4_2</title>
<ellipse fill="#ccffcc" stroke="black" cx="119.5" cy="-776" rx="18" ry="18"/>
<text xml:space="preserve" text-anchor="middle" x="119.5" y="-770.2" font-family="Helvetica,sans-Serif" font-size="14.00">2</text>
</g>
<!-- P4_3 -->
<g id="node21" class="node">
<title>P4_3</title>
<ellipse fill="#ccffcc" stroke="black" cx="205" cy="-776" rx="18" ry="18"/>
<text xml:space="preserve" text-anchor="middle" x="205" y="-770.2" font-family="Helvetica,sans-Serif" font-size="14.00">3</text>
</g>
<!-- P4_2&#45;&#45;P4_3 -->
<g id="edge22" class="edge">
<title>P4_2&#45;&#45;P4_3</title>
<path fill="none" stroke="black" d="M129.79,-760.65C135.9,-752.1 144.76,-742.25 155.5,-737.5 171.13,-730.58 186.06,-747.11 195.12,-760.63"/>
<text xml:space="preserve" text-anchor="middle" x="162.25" y="-740.7" font-family="Times,serif" font-size="14.00">2</text>
</g>
<!-- P4_2&#45;&#45;P4_3 -->
<g id="edge24" class="edge">
<title>P4_2&#45;&#45;P4_3</title>
<path fill="none" stroke="gray" stroke-dasharray="5,2" d="M137.55,-774.39C146.85,-773.7 158.55,-773.13 169,-773.5 174.72,-773.7 180.96,-774.1 186.57,-774.51"/>
<text xml:space="preserve" text-anchor="middle" x="162.25" y="-776.7" font-family="Times,serif" font-size="14.00">15</text>
</g>
<!-- P4_3&#45;&#45;P4_2 -->
<g id="edge23" class="edge">
<title>P4_3&#45;&#45;P4_2</title>
<path fill="none" stroke="gray" stroke-dasharray="5,2" d="M189.28,-785.54C183.25,-788.92 176.04,-792.3 169,-794 157.13,-796.87 144.18,-791.61 134.65,-786.05"/>
<text xml:space="preserve" text-anchor="middle" x="162.25" y="-798.01" font-family="Times,serif" font-size="14.00">14</text>
</g>
<!-- P4_connector&#45;&#45;S5_connector -->
<g id="edge44" class="edge">
<title>P4_connector&#45;&#45;S5_connector</title>
<path fill="none" stroke="black" stroke-width="0.2" d="M122.66,-823.88C130.21,-830.41 156.15,-852.58 179,-869 186.87,-874.65 196.66,-880.63 201.31,-883.41"/>
</g>
<!-- S5_2 -->
<g id="node23" class="node">
<title>S5_2</title>
<ellipse fill="#ffcccc" stroke="black" cx="290.5" cy="-900" rx="18" ry="18"/>
<text xml:space="preserve" text-anchor="middle" x="290.5" y="-894.2" font-family="Helvetica,sans-Serif" font-size="14.00">2</text>
</g>
<!-- S5_3 -->
<g id="node24" class="node">
<title>S5_3</title>
<ellipse fill="#ffcccc" stroke="black" cx="376" cy="-900" rx="18" ry="18"/>
<text xml:space="preserve" text-anchor="middle" x="376" y="-894.2" font-family="Helvetica,sans-Serif" font-size="14.00">3</text>
</g>
<!-- S5_2&#45;&#45;S5_3 -->
<g id="edge25" class="edge">
<title>S5_2&#45;&#45;S5_3</title>
<path fill="none" stroke="gray" stroke-dasharray="5,2" d="M308.8,-900C323.13,-900 343.4,-900 357.72,-900"/>
<text xml:space="preserve" text-anchor="middle" x="333.25" y="-903.2" font-family="Times,serif" font-size="14.00">15</text>
</g>
<!-- S5_0 -->
<g id="node25" class="node">
<title>S5_0</title>
<ellipse fill="#ffcccc" stroke="black" cx="461.5" cy="-900" rx="18" ry="18"/>
<text xml:space="preserve" text-anchor="middle" x="461.5" y="-894.2" font-family="Helvetica,sans-Serif" font-size="14.00">0</text>
</g>
<!-- S5_3&#45;&#45;S5_0 -->
<g id="edge26" class="edge">
<title>S5_3&#45;&#45;S5_0</title>
<path fill="none" stroke="gray" stroke-dasharray="5,2" d="M394.3,-900C408.63,-900 428.9,-900 443.22,-900"/>
<text xml:space="preserve" text-anchor="middle" x="418.75" y="-903.2" font-family="Times,serif" font-size="14.00">13</text>
</g>
<!-- S5_1 -->
<g id="node26" class="node">
<title>S5_1</title>
<ellipse fill="#ffcccc" stroke="black" cx="205" cy="-931" rx="18" ry="18"/>
<text xml:space="preserve" text-anchor="middle" x="205" y="-925.2" font-family="Helvetica,sans-Serif" font-size="14.00">1</text>
</g>
<!-- S5_1&#45;&#45;S5_2 -->
<g id="edge28" class="edge">
<title>S5_1&#45;&#45;S5_2</title>
<path fill="none" stroke="gray" stroke-dasharray="5,2" d="M222.35,-924.61C228.22,-922.34 234.9,-919.78 241,-917.5 251.73,-913.49 263.86,-909.12 273.3,-905.75"/>
<text xml:space="preserve" text-anchor="middle" x="247.75" y="-920.7" font-family="Times,serif" font-size="14.00">17</text>
</g>
<!-- S5_1&#45;&#45;S5_0 -->
<g id="edge27" class="edge">
<title>S5_1&#45;&#45;S5_0</title>
<path fill="none" stroke="gray" stroke-dasharray="5,2" d="M223.07,-932.76C228.77,-933.27 235.15,-933.75 241,-934 246.99,-934.26 248.5,-934.14 254.5,-934 320.11,-932.44 337.09,-936.72 402,-927 412.66,-925.4 415.55,-925.15 425.5,-921 432.56,-918.05 439.9,-913.86 446.01,-909.99"/>
<text xml:space="preserve" text-anchor="middle" x="333.25" y="-936.79" font-family="Times,serif" font-size="14.00">18</text>
</g>
<!-- P7_connector -->
<g id="node34" class="node">
<title>P7_connector</title>
<ellipse fill="black" stroke="black" cx="290.5" cy="-822" rx="3.6" ry="3.6"/>
</g>
<!-- S5_connector&#45;&#45;P7_connector -->
<g id="edge46" class="edge">
<title>S5_connector&#45;&#45;P7_connector</title>
<path fill="none" stroke="black" stroke-width="0.2" d="M208.69,-883.41C213.34,-880.63 223.13,-874.65 231,-869 253.85,-852.58 279.79,-830.41 287.34,-823.88"/>
</g>
<!-- P8_connector -->
<g id="node37" class="node">
<title>P8_connector</title>
<ellipse fill="black" stroke="black" cx="290.5" cy="-566" rx="3.6" ry="3.6"/>
</g>
<!-- S5_connector&#45;&#45;P8_connector -->
<g id="edge45" class="edge">
<title>S5_connector&#45;&#45;P8_connector</title>
<path fill="none" stroke="black" stroke-width="0.2" d="M208.92,-884.07C214.31,-882.19 225.75,-877.38 231,-869 264.62,-815.33 233.75,-641.36 264.5,-586 269.79,-576.48 281.63,-569.81 286.9,-567.21"/>
</g>
<!-- S6_2 -->
<g id="node28" class="node">
<title>S6_2</title>
<ellipse fill="#ffcccc" stroke="black" cx="205" cy="-312" rx="18" ry="18"/>
<text xml:space="preserve" text-anchor="middle" x="205" y="-306.2" font-family="Helvetica,sans-Serif" font-size="14.00">2</text>
</g>
<!-- S6_6 -->
<g id="node29" class="node">
<title>S6_6</title>
<ellipse fill="#ffcccc" stroke="black" cx="376" cy="-310" rx="18" ry="18"/>
<text xml:space="preserve" text-anchor="middle" x="376" y="-304.2" font-family="Helvetica,sans-Serif" font-size="14.00">6</text>
</g>
<!-- S6_2&#45;&#45;S6_6 -->
<g id="edge29" class="edge">
<title>S6_2&#45;&#45;S6_6</title>
<path fill="none" stroke="black" d="M223.39,-310.31C235.01,-309.27 250.66,-308.03 264.5,-307.5 297.48,-306.23 336.03,-307.8 357.77,-308.96"/>
<text xml:space="preserve" text-anchor="middle" x="290.5" y="-310.7" font-family="Times,serif" font-size="14.00">9</text>
</g>
<!-- S6_1 -->
<g id="node30" class="node">
<title>S6_1</title>
<ellipse fill="#ffcccc" stroke="black" cx="290.5" cy="-351" rx="18" ry="18"/>
<text xml:space="preserve" text-anchor="middle" x="290.5" y="-345.2" font-family="Helvetica,sans-Serif" font-size="14.00">1</text>
</g>
<!-- S6_2&#45;&#45;S6_1 -->
<g id="edge31" class="edge">
<title>S6_2&#45;&#45;S6_1</title>
<path fill="none" stroke="gray" stroke-dasharray="5,2" d="M221.71,-319.34C236.54,-326.26 258.68,-336.6 273.58,-343.56"/>
<text xml:space="preserve" text-anchor="middle" x="247.75" y="-337.04" font-family="Times,serif" font-size="14.00">16</text>
</g>
<!-- S6_1&#45;&#45;S6_6 -->
<g id="edge30" class="edge">
<title>S6_1&#45;&#45;S6_6</title>
<path fill="none" stroke="black" d="M307.21,-343.29C322.13,-335.96 344.46,-325 359.36,-317.68"/>
<text xml:space="preserve" text-anchor="middle" x="333.25" y="-336.15" font-family="Times,serif" font-size="14.00">8</text>
</g>
<!-- S6_connector -->
<g id="node31" class="node">
<title>S6_connector</title>
<ellipse fill="black" stroke="black" cx="205" cy="-366" rx="3.6" ry="3.6"/>
</g>
<!-- S6_connector&#45;&#45;P7_connector -->
<g id="edge47" class="edge">
<title>S6_connector&#45;&#45;P7_connector</title>
<path fill="none" stroke="black" stroke-width="0.2" d="M206.45,-369.69C211.59,-411.4 258.68,-792.99 264.5,-803 269.87,-812.24 281.67,-818.47 286.91,-820.88"/>
</g>
<!-- P7_1 -->
<g id="node32" class="node">
<title>P7_1</title>
<ellipse fill="#ccffcc" stroke="black" cx="290.5" cy="-776" rx="18" ry="18"/>
<text xml:space="preserve" text-anchor="middle" x="290.5" y="-770.2" font-family="Helvetica,sans-Serif" font-size="14.00">1</text>
</g>
<!-- P7_2 -->
<g id="node33" class="node">
<title>P7_2</title>
<ellipse fill="#ccffcc" stroke="black" cx="376" cy="-776" rx="18" ry="18"/>
<text xml:space="preserve" text-anchor="middle" x="376" y="-770.2" font-family="Helvetica,sans-Serif" font-size="14.00">2</text>
</g>
<!-- P7_1&#45;&#45;P7_2 -->
<g id="edge32" class="edge">
<title>P7_1&#45;&#45;P7_2</title>
<path fill="none" stroke="black" d="M300.79,-760.65C306.9,-752.1 315.76,-742.25 326.5,-737.5 342.13,-730.58 357.06,-747.11 366.12,-760.63"/>
<text xml:space="preserve" text-anchor="middle" x="333.25" y="-740.7" font-family="Times,serif" font-size="14.00">1</text>
</g>
<!-- P7_1&#45;&#45;P7_2 -->
<g id="edge34" class="edge">
<title>P7_1&#45;&#45;P7_2</title>
<path fill="none" stroke="gray" stroke-dasharray="5,2" d="M308.93,-774.51C314.54,-774.1 320.78,-773.7 326.5,-773.5 336.95,-773.13 348.65,-773.7 357.95,-774.39"/>
<text xml:space="preserve" text-anchor="middle" x="333.25" y="-776.7" font-family="Times,serif" font-size="14.00">17</text>
</g>
<!-- P7_2&#45;&#45;P7_1 -->
<g id="edge33" class="edge">
<title>P7_2&#45;&#45;P7_1</title>
<path fill="none" stroke="gray" stroke-dasharray="5,2" d="M360.28,-785.54C354.25,-788.92 347.04,-792.3 340,-794 328.13,-796.87 315.18,-791.61 305.65,-786.05"/>
<text xml:space="preserve" text-anchor="middle" x="333.25" y="-798.01" font-family="Times,serif" font-size="14.00">16</text>
</g>
<!-- P8_0 -->
<g id="node35" class="node">
<title>P8_0</title>
<ellipse fill="#ccffcc" stroke="black" cx="290.5" cy="-613" rx="18" ry="18"/>
<text xml:space="preserve" text-anchor="middle" x="290.5" y="-607.2" font-family="Helvetica,sans-Serif" font-size="14.00">0</text>
</g>
<!-- P8_1 -->
<g id="node36" class="node">
<title>P8_1</title>
<ellipse fill="#ccffcc" stroke="black" cx="376" cy="-613" rx="18" ry="18"/>
<text xml:space="preserve" text-anchor="middle" x="376" y="-607.2" font-family="Helvetica,sans-Serif" font-size="14.00">1</text>
</g>
<!-- P8_0&#45;&#45;P8_1 -->
<g id="edge35" class="edge">
<title>P8_0&#45;&#45;P8_1</title>
<path fill="none" stroke="black" d="M300.79,-597.65C306.9,-589.1 315.76,-579.25 326.5,-574.5 342.13,-567.58 357.06,-584.11 366.12,-597.63"/>
<text xml:space="preserve" text-anchor="middle" x="333.25" y="-577.7" font-family="Times,serif" font-size="14.00">0</text>
</g>
<!-- P8_0&#45;&#45;P8_1 -->
<g id="edge37" class="edge">
<title>P8_0&#45;&#45;P8_1</title>
<path fill="none" stroke="gray" stroke-dasharray="5,2" d="M308.93,-611.51C314.54,-611.1 320.78,-610.7 326.5,-610.5 336.95,-610.13 348.65,-610.7 357.95,-611.39"/>
<text xml:space="preserve" text-anchor="middle" x="333.25" y="-613.7" font-family="Times,serif" font-size="14.00">19</text>
</g>
<!-- P8_1&#45;&#45;P8_0 -->
<g id="edge36" class="edge">
<title>P8_1&#45;&#45;P8_0</title>
<path fill="none" stroke="gray" stroke-dasharray="5,2" d="M360.85,-623.05C351.32,-628.61 338.37,-633.87 326.5,-631 319.46,-629.3 312.25,-625.92 306.22,-622.54"/>
<text xml:space="preserve" text-anchor="middle" x="333.25" y="-635.01" font-family="Times,serif" font-size="14.00">18</text>
</g>
<!-- S9_connector -->
<g id="node41" class="node">
<title>S9_connector</title>
<ellipse fill="black" stroke="black" cx="376" cy="-503" rx="3.6" ry="3.6"/>
</g>
<!-- P8_connector&#45;&#45;S9_connector -->
<g id="edge48" class="edge">
<title>P8_connector&#45;&#45;S9_connector</title>
<path fill="none" stroke="black" stroke-width="0.2" d="M293.91,-564.18C306,-555.06 359.94,-514.36 372.42,-504.95"/>
</g>
<!-- S9_0 -->
<g id="node38" class="node">
<title>S9_0</title>
<ellipse fill="#ffcccc" stroke="black" cx="376" cy="-456" rx="18" ry="18"/>
<text xml:space="preserve" text-anchor="middle" x="376" y="-450.2" font-family="Helvetica,sans-Serif" font-size="14.00">0</text>
</g>
<!-- S9_1 -->
<g id="node39" class="node">
<title>S9_1</title>
<ellipse fill="#ffcccc" stroke="black" cx="461.5" cy="-436" rx="18" ry="18"/>
<text xml:space="preserve" text-anchor="middle" x="461.5" y="-430.2" font-family="Helvetica,sans-Serif" font-size="14.00">1</text>
</g>
<!-- S9_0&#45;&#45;S9_1 -->
<g id="edge38" class="edge">
<title>S9_0&#45;&#45;S9_1</title>
<path fill="none" stroke="gray" stroke-dasharray="5,2" d="M393.9,-451.95C408.38,-448.48 429.15,-443.51 443.63,-440.04"/>
<text xml:space="preserve" text-anchor="middle" x="418.75" y="-450.4" font-family="Times,serif" font-size="14.00">19</text>
</g>
<!-- S9_5 -->
<g id="node40" class="node">
<title>S9_5</title>
<ellipse fill="#ffcccc" stroke="black" cx="540.25" cy="-462" rx="18" ry="18"/>
<text xml:space="preserve" text-anchor="middle" x="540.25" y="-456.2" font-family="Helvetica,sans-Serif" font-size="14.00">5</text>
</g>
<!-- S9_0&#45;&#45;S9_5 -->
<g id="edge40" class="edge">
<title>S9_0&#45;&#45;S9_5</title>
<path fill="none" stroke="black" d="M393.11,-462.68C398.95,-464.79 405.68,-466.87 412,-468 452.37,-475.21 463.5,-474.6 504.25,-470 510.32,-469.32 516.87,-467.98 522.65,-466.6"/>
<text xml:space="preserve" text-anchor="middle" x="461.5" y="-476.64" font-family="Times,serif" font-size="14.00">6</text>
</g>
<!-- S9_1&#45;&#45;S9_5 -->
<g id="edge39" class="edge">
<title>S9_1&#45;&#45;S9_5</title>
<path fill="none" stroke="black" d="M478.78,-441.51C491.71,-445.9 509.73,-452 522.73,-456.4"/>
<text xml:space="preserve" text-anchor="middle" x="500.88" y="-452.98" font-family="Times,serif" font-size="14.00">7</text>
</g>
</g>
</svg>
