<?xml version="1.0" encoding="UTF-8" standalone="no"?>
<!DOCTYPE svg PUBLIC "-//W3C//DTD SVG 1.1//EN"
 "http://www.w3.org/Graphics/SVG/1.1/DTD/svg11.dtd">
<!-- Generated by graphviz version 14.1.1 (20251213.1925)
 -->
<!-- Title: triangulation Pages: 1 -->
<svg width="361pt" height="485pt"
 viewBox="0.00 0.00 361.00 485.00" xmlns="http://www.w3.org/2000/svg" xmlns:xlink="http://www.w3.org/1999/xlink">
<g id="graph0" class="graph" transform="scale(1 1) rotate(0) translate(4 480.5)">
<title>triangulation</title>
<polygon fill="#ffffff" stroke="none" points="-4,4 -4,-480.5 357,-480.5 357,4 -4,4"/>
<g id="clust1" class="cluster">
<title>cluster_original</title>
<polygon fill="#f9f9f9" stroke="#dddddd" points="8,-152 8,-468.5 167,-468.5 167,-152 8,-152"/>
<text xml:space="preserve" text-anchor="middle" x="87.5" y="-449.3" font-family="Helvetica,sans-Serif" font-weight="bold" font-size="16.00">Original Graph</text>
</g>
<g id="clust2" class="cluster">
<title>cluster_triangulated</title>
<polygon fill="#f0f8ff" stroke="#dddddd" points="175,-8 175,-468.5 345,-468.5 345,-8 175,-8"/>
<text xml:space="preserve" text-anchor="middle" x="260" y="-449.3" font-family="Helvetica,sans-Serif" font-weight="bold" font-size="16.00">Triangulated Graph</text>
</g>
<!-- L_0 -->
<g id="node1" class="node">
<title>L_0</title>
<ellipse fill="#ffffff" stroke="#333333" stroke-width="1.5" cx="63" cy="-406" rx="15.27" ry="18"/>
<text xml:space="preserve" text-anchor="middle" x="63" y="-400.2" font-family="Helvetica,sans-Serif" font-size="14.00">1</text>
</g>
<!-- L_2 -->
<g id="node3" class="node">
<title>L_2</title>
<ellipse fill="#ffffff" stroke="#333333" stroke-width="1.5" cx="63" cy="-334" rx="15.27" ry="18"/>
<text xml:space="preserve" text-anchor="middle" x="63" y="-328.2" font-family="Helvetica,sans-Serif" font-size="14.00">3</text>
</g>
<!-- L_0&#45;&#45;L_2 -->
<g id="edge6" class="edge">
<title>L_0&#45;&#45;L_2</title>
<path fill="none" stroke="#333333" stroke-width="1.5" d="M63,-387.34C63,-376.64 63,-363.06 63,-352.42"/>
</g>
<!-- L_4 -->
<g id="node5" class="node">
<title>L_4</title>
<ellipse fill="#ffffff" stroke="#333333" stroke-width="1.5" cx="112" cy="-262" rx="15.27" ry="18"/>
<text xml:space="preserve" text-anchor="middle" x="112" y="-256.2" font-family="Helvetica,sans-Serif" font-size="14.00">5</text>
</g>
<!-- L_0&#45;&#45;L_4 -->
<g id="edge8" class="edge">
<title>L_0&#45;&#45;L_4</title>
<path fill="none" stroke="#333333" stroke-width="1.5" d="M70.55,-389.95C75.63,-379.47 82.23,-365.1 87,-352 95.96,-327.42 103.64,-298.06 108.05,-279.97"/>
</g>
<!-- L_5 -->
<g id="node6" class="node">
<title>L_5</title>
<ellipse fill="#ffffff" stroke="#333333" stroke-width="1.5" cx="112" cy="-190" rx="15.27" ry="18"/>
<text xml:space="preserve" text-anchor="middle" x="112" y="-184.2" font-family="Helvetica,sans-Serif" font-size="14.00">6</text>
</g>
<!-- L_0&#45;&#45;L_5 -->
<g id="edge7" class="edge">
<title>L_0&#45;&#45;L_5</title>
<path fill="none" stroke="#333333" stroke-width="1.5" d="M54.28,-390.28C48.69,-379.96 41.94,-365.63 39,-352 28.87,-305.08 17.2,-286.76 39,-244 51.16,-220.14 79.65,-204.51 97.22,-196.76"/>
</g>
<!-- L_1 -->
<g id="node2" class="node">
<title>L_1</title>
<ellipse fill="#ffffff" stroke="#333333" stroke-width="1.5" cx="131" cy="-334" rx="15.27" ry="18"/>
<text xml:space="preserve" text-anchor="middle" x="131" y="-328.2" font-family="Helvetica,sans-Serif" font-size="14.00">2</text>
</g>
<!-- L_1&#45;&#45;L_4 -->
<g id="edge1" class="edge">
<title>L_1&#45;&#45;L_4</title>
<path fill="none" stroke="#333333" stroke-width="1.5" d="M126.4,-316.05C123.41,-305.05 119.54,-290.76 116.56,-279.79"/>
</g>
<!-- L_1&#45;&#45;L_5 -->
<g id="edge2" class="edge">
<title>L_1&#45;&#45;L_5</title>
<path fill="none" stroke="#333333" stroke-width="1.5" d="M134.61,-316.06C137.84,-298 141.32,-268.66 136,-244 133.06,-230.37 126.31,-216.04 120.72,-205.72"/>
</g>
<!-- L_3 -->
<g id="node4" class="node">
<title>L_3</title>
<ellipse fill="#ffffff" stroke="#333333" stroke-width="1.5" cx="63" cy="-262" rx="15.27" ry="18"/>
<text xml:space="preserve" text-anchor="middle" x="63" y="-256.2" font-family="Helvetica,sans-Serif" font-size="14.00">4</text>
</g>
<!-- L_2&#45;&#45;L_3 -->
<g id="edge5" class="edge">
<title>L_2&#45;&#45;L_3</title>
<path fill="none" stroke="#333333" stroke-width="1.5" d="M63,-315.34C63,-304.64 63,-291.06 63,-280.42"/>
</g>
<!-- L_2&#45;&#45;L_4 -->
<g id="edge4" class="edge">
<title>L_2&#45;&#45;L_4</title>
<path fill="none" stroke="#333333" stroke-width="1.5" d="M72.68,-319.17C81.27,-306.9 93.75,-289.06 102.34,-276.8"/>
</g>
<!-- L_4&#45;&#45;L_5 -->
<g id="edge3" class="edge">
<title>L_4&#45;&#45;L_5</title>
<path fill="none" stroke="#333333" stroke-width="1.5" d="M112,-243.34C112,-232.64 112,-219.06 112,-208.42"/>
</g>
<!-- R_0 -->
<g id="node7" class="node">
<title>R_0</title>
<ellipse fill="#ffffff" stroke="#333333" stroke-width="1.5" cx="284" cy="-406" rx="15.27" ry="18"/>
<text xml:space="preserve" text-anchor="middle" x="284" y="-400.2" font-family="Helvetica,sans-Serif" font-size="14.00">1</text>
</g>
<!-- R_1 -->
<g id="node8" class="node">
<title>R_1</title>
<ellipse fill="#ffffff" stroke="#333333" stroke-width="1.5" cx="220" cy="-334" rx="15.27" ry="18"/>
<text xml:space="preserve" text-anchor="middle" x="220" y="-328.2" font-family="Helvetica,sans-Serif" font-size="14.00">2</text>
</g>
<!-- R_0&#45;&#45;R_1 -->
<g id="edge20" class="edge">
<title>R_0&#45;&#45;R_1</title>
<path fill="none" stroke="#ff5733" stroke-width="2.5" d="M272.85,-392.81C261.11,-379.96 242.72,-359.85 231.02,-347.05"/>
</g>
<!-- R_2 -->
<g id="node9" class="node">
<title>R_2</title>
<ellipse fill="#ffffff" stroke="#333333" stroke-width="1.5" cx="250" cy="-262" rx="15.27" ry="18"/>
<text xml:space="preserve" text-anchor="middle" x="250" y="-256.2" font-family="Helvetica,sans-Serif" font-size="14.00">3</text>
</g>
<!-- R_0&#45;&#45;R_2 -->
<g id="edge16" class="edge">
<title>R_0&#45;&#45;R_2</title>
<path fill="none" stroke="#333333" stroke-width="1.5" d="M279.97,-388.15C273.42,-360.82 260.57,-307.14 254.03,-279.82"/>
</g>
<!-- R_3 -->
<g id="node10" class="node">
<title>R_3</title>
<ellipse fill="#ffffff" stroke="#333333" stroke-width="1.5" cx="270" cy="-190" rx="15.27" ry="18"/>
<text xml:space="preserve" text-anchor="middle" x="270" y="-184.2" font-family="Helvetica,sans-Serif" font-size="14.00">4</text>
</g>
<!-- R_0&#45;&#45;R_3 -->
<g id="edge17" class="edge">
<title>R_0&#45;&#45;R_3</title>
<path fill="none" stroke="#ff5733" stroke-width="2.5" d="M283,-387.6C281.27,-358.07 277.59,-296.25 274,-244 273.19,-232.22 272.19,-218.97 271.39,-208.66"/>
</g>
<!-- R_4 -->
<g id="node11" class="node">
<title>R_4</title>
<ellipse fill="#ffffff" stroke="#333333" stroke-width="1.5" cx="253" cy="-118" rx="15.27" ry="18"/>
<text xml:space="preserve" text-anchor="middle" x="253" y="-112.2" font-family="Helvetica,sans-Serif" font-size="14.00">5</text>
</g>
<!-- R_0&#45;&#45;R_4 -->
<g id="edge18" class="edge">
<title>R_0&#45;&#45;R_4</title>
<path fill="none" stroke="#333333" stroke-width="1.5" d="M289.67,-388.55C303.09,-346.62 332.92,-233.28 294,-152 288.48,-140.46 276.73,-131.67 267.22,-126.08"/>
</g>
<!-- R_5 -->
<g id="node12" class="node">
<title>R_5</title>
<ellipse fill="#ffffff" stroke="#333333" stroke-width="1.5" cx="253" cy="-46" rx="15.27" ry="18"/>
<text xml:space="preserve" text-anchor="middle" x="253" y="-40.2" font-family="Helvetica,sans-Serif" font-size="14.00">6</text>
</g>
<!-- R_0&#45;&#45;R_5 -->
<g id="edge19" class="edge">
<title>R_0&#45;&#45;R_5</title>
<path fill="none" stroke="#333333" stroke-width="1.5" d="M292.36,-390.14C297.86,-379.75 304.8,-365.4 309,-352 321,-313.72 324,-303.11 324,-263 324,-263 324,-263 324,-189 324,-136.08 284.06,-82.66 264.09,-59.26"/>
</g>
<!-- R_1&#45;&#45;R_2 -->
<g id="edge10" class="edge">
<title>R_1&#45;&#45;R_2</title>
<path fill="none" stroke="#ff5733" stroke-width="2.5" d="M226.81,-317.12C231.72,-305.66 238.32,-290.26 243.22,-278.82"/>
</g>
<!-- R_1&#45;&#45;R_4 -->
<g id="edge9" class="edge">
<title>R_1&#45;&#45;R_4</title>
<path fill="none" stroke="#333333" stroke-width="1.5" d="M220.17,-315.45C220.87,-282.74 224.25,-210.46 240,-152 241.57,-146.17 243.84,-139.97 246.05,-134.54"/>
</g>
<!-- R_1&#45;&#45;R_5 -->
<g id="edge11" class="edge">
<title>R_1&#45;&#45;R_5</title>
<path fill="none" stroke="#333333" stroke-width="1.5" d="M218.19,-315.39C214.68,-276.03 208.94,-178.23 229,-100 232.46,-86.5 239.17,-72.15 244.61,-61.79"/>
</g>
<!-- R_2&#45;&#45;R_3 -->
<g id="edge15" class="edge">
<title>R_2&#45;&#45;R_3</title>
<path fill="none" stroke="#333333" stroke-width="1.5" d="M254.74,-244.41C257.93,-233.25 262.11,-218.6 265.29,-207.47"/>
</g>
<!-- R_2&#45;&#45;R_4 -->
<g id="edge14" class="edge">
<title>R_2&#45;&#45;R_4</title>
<path fill="none" stroke="#333333" stroke-width="1.5" d="M247.85,-243.58C245.54,-222.02 242.62,-184.2 246,-152 246.55,-146.76 247.58,-141.12 248.68,-136.02"/>
</g>
<!-- R_3&#45;&#45;R_4 -->
<g id="edge13" class="edge">
<title>R_3&#45;&#45;R_4</title>
<path fill="none" stroke="#ff5733" stroke-width="2.5" d="M265.88,-172.05C263.21,-161.05 259.74,-146.76 257.08,-135.79"/>
</g>
<!-- R_4&#45;&#45;R_5 -->
<g id="edge12" class="edge">
<title>R_4&#45;&#45;R_5</title>
<path fill="none" stroke="#333333" stroke-width="1.5" d="M253,-99.34C253,-88.64 253,-75.06 253,-64.42"/>
</g>
</g>
</svg>
