<?xml version="1.0" encoding="UTF-8" standalone="no"?>
<!DOCTYPE svg PUBLIC "-//W3C//DTD SVG 1.1//EN"
 "http://www.w3.org/Graphics/SVG/1.1/DTD/svg11.dtd">
<!-- Generated by graphviz version 14.1.1 (20251213.1925)
 -->
<!-- Title: triangulation Pages: 1 -->
<svg width="324pt" height="341pt"
 viewBox="0.00 0.00 324.00 341.00" xmlns="http://www.w3.org/2000/svg" xmlns:xlink="http://www.w3.org/1999/xlink">
<g id="graph0" class="graph" transform="scale(1 1) rotate(0) translate(4 336.5)">
<title>triangulation</title>
<polygon fill="#ffffff" stroke="none" points="-4,4 -4,-336.5 320,-336.5 320,4 -4,4"/>
<g id="clust1" class="cluster">
<title>cluster_original</title>
<polygon fill="#f9f9f9" stroke="#dddddd" points="8,-8 8,-324.5 137,-324.5 137,-8 8,-8"/>
<text xml:space="preserve" text-anchor="middle" x="72.5" y="-305.3" font-family="Helvetica,sans-Serif" font-weight="bold" font-size="16.00">Original Graph</text>
</g>
<g id="clust2" class="cluster">
<title>cluster_triangulated</title>
<polygon fill="#f0f8ff" stroke="#dddddd" points="145,-8 145,-324.5 308,-324.5 308,-8 145,-8"/>
<text xml:space="preserve" text-anchor="middle" x="226.5" y="-305.3" font-family="Helvetica,sans-Serif" font-weight="bold" font-size="16.00">Triangulated Graph</text>
</g>
<!-- L_0 -->
<g id="node1" class="node">
<title>L_0</title>
<ellipse fill="#ffffff" stroke="#333333" stroke-width="1.5" cx="60" cy="-262" rx="15.27" ry="18"/>
<text xml:space="preserve" text-anchor="middle" x="60" y="-256.2" font-family="Helvetica,sans-Serif" font-size="14.00">1</text>
</g>
<!-- L_1 -->
<g id="node2" class="node">
<title>L_1</title>
<ellipse fill="#ffffff" stroke="#333333" stroke-width="1.5" cx="43" cy="-190" rx="15.27" ry="18"/>
<text xml:space="preserve" text-anchor="middle" x="43" y="-184.2" font-family="Helvetica,sans-Serif" font-size="14.00">2</text>
</g>
<!-- L_0&#45;&#45;L_1 -->
<g id="edge3" class="edge">
<title>L_0&#45;&#45;L_1</title>
<path fill="none" stroke="#333333" stroke-width="1.5" d="M55.88,-244.05C53.21,-233.05 49.74,-218.76 47.08,-207.79"/>
</g>
<!-- L_3 -->
<g id="node4" class="node">
<title>L_3</title>
<ellipse fill="#ffffff" stroke="#333333" stroke-width="1.5" cx="60" cy="-46" rx="15.27" ry="18"/>
<text xml:space="preserve" text-anchor="middle" x="60" y="-40.2" font-family="Helvetica,sans-Serif" font-size="14.00">4</text>
</g>
<!-- L_0&#45;&#45;L_3 -->
<g id="edge4" class="edge">
<title>L_0&#45;&#45;L_3</title>
<path fill="none" stroke="#333333" stroke-width="1.5" d="M62.84,-243.87C64.42,-233.52 66.21,-220.04 67,-208 70.15,-160.1 70.15,-147.9 67,-100 66.21,-87.96 64.42,-74.48 62.84,-64.13"/>
</g>
<!-- L_2 -->
<g id="node3" class="node">
<title>L_2</title>
<ellipse fill="#ffffff" stroke="#333333" stroke-width="1.5" cx="43" cy="-118" rx="15.27" ry="18"/>
<text xml:space="preserve" text-anchor="middle" x="43" y="-112.2" font-family="Helvetica,sans-Serif" font-size="14.00">3</text>
</g>
<!-- L_1&#45;&#45;L_2 -->
<g id="edge2" class="edge">
<title>L_1&#45;&#45;L_2</title>
<path fill="none" stroke="#333333" stroke-width="1.5" d="M43,-171.34C43,-160.64 43,-147.06 43,-136.42"/>
</g>
<!-- L_2&#45;&#45;L_3 -->
<g id="edge1" class="edge">
<title>L_2&#45;&#45;L_3</title>
<path fill="none" stroke="#333333" stroke-width="1.5" d="M47.12,-100.05C49.79,-89.05 53.26,-74.76 55.92,-63.79"/>
</g>
<!-- R_0 -->
<g id="node5" class="node">
<title>R_0</title>
<ellipse fill="#ffffff" stroke="#333333" stroke-width="1.5" cx="240" cy="-262" rx="15.27" ry="18"/>
<text xml:space="preserve" text-anchor="middle" x="240" y="-256.2" font-family="Helvetica,sans-Serif" font-size="14.00">1</text>
</g>
<!-- R_1 -->
<g id="node6" class="node">
<title>R_1</title>
<ellipse fill="#ffffff" stroke="#333333" stroke-width="1.5" cx="206" cy="-190" rx="15.27" ry="18"/>
<text xml:space="preserve" text-anchor="middle" x="206" y="-184.2" font-family="Helvetica,sans-Serif" font-size="14.00">2</text>
</g>
<!-- R_0&#45;&#45;R_1 -->
<g id="edge8" class="edge">
<title>R_0&#45;&#45;R_1</title>
<path fill="none" stroke="#333333" stroke-width="1.5" d="M232.45,-245.46C226.82,-233.86 219.15,-218.08 213.52,-206.49"/>
</g>
<!-- R_2 -->
<g id="node7" class="node">
<title>R_2</title>
<ellipse fill="#ffffff" stroke="#333333" stroke-width="1.5" cx="226" cy="-118" rx="15.27" ry="18"/>
<text xml:space="preserve" text-anchor="middle" x="226" y="-112.2" font-family="Helvetica,sans-Serif" font-size="14.00">3</text>
</g>
<!-- R_0&#45;&#45;R_2 -->
<g id="edge10" class="edge">
<title>R_0&#45;&#45;R_2</title>
<path fill="none" stroke="#ff5733" stroke-width="2.5" d="M238.28,-243.59C235.6,-216.33 230.43,-163.9 227.73,-136.55"/>
</g>
<!-- R_3 -->
<g id="node8" class="node">
<title>R_3</title>
<ellipse fill="#ffffff" stroke="#333333" stroke-width="1.5" cx="226" cy="-46" rx="15.27" ry="18"/>
<text xml:space="preserve" text-anchor="middle" x="226" y="-40.2" font-family="Helvetica,sans-Serif" font-size="14.00">4</text>
</g>
<!-- R_0&#45;&#45;R_3 -->
<g id="edge9" class="edge">
<title>R_0&#45;&#45;R_3</title>
<path fill="none" stroke="#333333" stroke-width="1.5" d="M243.99,-244.32C250.4,-214.84 261.17,-151.74 250,-100 247.06,-86.37 240.31,-72.04 234.72,-61.72"/>
</g>
<!-- R_1&#45;&#45;R_2 -->
<g id="edge6" class="edge">
<title>R_1&#45;&#45;R_2</title>
<path fill="none" stroke="#333333" stroke-width="1.5" d="M210.74,-172.41C213.93,-161.25 218.11,-146.6 221.29,-135.47"/>
</g>
<!-- R_1&#45;&#45;R_3 -->
<g id="edge7" class="edge">
<title>R_1&#45;&#45;R_3</title>
<path fill="none" stroke="#ff5733" stroke-width="2.5" d="M202.64,-171.72C199.72,-153.63 196.71,-124.49 202,-100 204.94,-86.37 211.69,-72.04 217.28,-61.72"/>
</g>
<!-- R_2&#45;&#45;R_3 -->
<g id="edge5" class="edge">
<title>R_2&#45;&#45;R_3</title>
<path fill="none" stroke="#333333" stroke-width="1.5" d="M226,-99.34C226,-88.64 226,-75.06 226,-64.42"/>
</g>
</g>
</svg>
