<?xml version="1.0" encoding="UTF-8" standalone="no"?>
<!DOCTYPE svg PUBLIC "-//W3C//DTD SVG 1.1//EN"
 "http://www.w3.org/Graphics/SVG/1.1/DTD/svg11.dtd">
<!-- Generated by graphviz version 13.1.0 (20250701.0955)
 -->
<!-- Pages: 1 -->
<svg width="130pt" height="130pt"
 viewBox="0.00 0.00 130.00 130.00" xmlns="http://www.w3.org/2000/svg" xmlns:xlink="http://www.w3.org/1999/xlink">
<g id="graph0" class="graph" transform="scale(1 1) rotate(0) translate(4 125.68)">
<polygon fill="white" stroke="none" points="-4,4 -4,-125.68 125.68,-125.68 125.68,4 -4,4"/>
<!-- 0 -->
<g id="node1" class="node">
<title>0</title>
<ellipse fill="lightblue" stroke="black" cx="18" cy="-68.13" rx="18" ry="18"/>
<text xml:space="preserve" text-anchor="middle" x="18" y="-63.08" font-family="Times,serif" font-size="14.00">1</text>
</g>
<!-- 1 -->
<g id="node2" class="node">
<title>1</title>
<ellipse fill="lightblue" stroke="black" cx="103.68" cy="-53.54" rx="18" ry="18"/>
<text xml:space="preserve" text-anchor="middle" x="103.68" y="-48.49" font-family="Times,serif" font-size="14.00">2</text>
</g>
<!-- 0&#45;&#45;1 -->
<g id="edge1" class="edge">
<title>0&#45;&#45;1</title>
<path fill="none" stroke="black" d="M36.17,-65.04C50.71,-62.56 71,-59.11 85.53,-56.63"/>
</g>
<!-- 2 -->
<g id="node3" class="node">
<title>2</title>
<ellipse fill="lightblue" stroke="black" cx="53.55" cy="-18" rx="18" ry="18"/>
<text xml:space="preserve" text-anchor="middle" x="53.55" y="-12.95" font-family="Times,serif" font-size="14.00">3</text>
</g>
<!-- 0&#45;&#45;2 -->
<g id="edge2" class="edge">
<title>0&#45;&#45;2</title>
<path fill="none" stroke="black" d="M28.67,-53.09C33.17,-46.74 38.39,-39.37 42.89,-33.03"/>
</g>
<!-- 3 -->
<g id="node4" class="node">
<title>3</title>
<ellipse fill="lightblue" stroke="black" cx="68.13" cy="-103.68" rx="18" ry="18"/>
<text xml:space="preserve" text-anchor="middle" x="68.13" y="-98.63" font-family="Times,serif" font-size="14.00">4</text>
</g>
<!-- 0&#45;&#45;3 -->
<g id="edge3" class="edge">
<title>0&#45;&#45;3</title>
<path fill="none" stroke="black" d="M33.04,-78.8C39.38,-83.29 46.76,-88.52 53.1,-93.02"/>
</g>
<!-- 1&#45;&#45;2 -->
<g id="edge4" class="edge">
<title>1&#45;&#45;2</title>
<path fill="none" stroke="black" d="M88.64,-42.88C82.29,-38.38 74.92,-33.15 68.58,-28.66"/>
</g>
<!-- 1&#45;&#45;3 -->
<g id="edge5" class="edge">
<title>1&#45;&#45;3</title>
<path fill="none" stroke="black" d="M93.01,-68.58C88.51,-74.93 83.28,-82.3 78.79,-88.65"/>
</g>
<!-- 2&#45;&#45;3 -->
<g id="edge6" class="edge">
<title>2&#45;&#45;3</title>
<path fill="none" stroke="black" d="M56.64,-36.17C59.12,-50.71 62.57,-71 65.04,-85.53"/>
</g>
</g>
</svg>
