<?xml version="1.0" encoding="UTF-8" standalone="no"?>
<!DOCTYPE svg PUBLIC "-//W3C//DTD SVG 1.1//EN"
 "http://www.w3.org/Graphics/SVG/1.1/DTD/svg11.dtd">
<!-- Generated by graphviz version 13.1.0 (20250701.0955)
 -->
<!-- Pages: 1 -->
<svg width="148pt" height="130pt"
 viewBox="0.00 0.00 148.00 130.00" xmlns="http://www.w3.org/2000/svg" xmlns:xlink="http://www.w3.org/1999/xlink">
<g id="graph0" class="graph" transform="scale(1 1) rotate(0) translate(4 126.01)">
<polygon fill="white" stroke="none" points="-4,4 -4,-126.01 143.94,-126.01 143.94,4 -4,4"/>
<!-- 0 -->
<g id="node1" class="node">
<title>0</title>
<ellipse fill="lightblue" stroke="black" cx="27" cy="-54.63" rx="27" ry="18"/>
<text xml:space="preserve" text-anchor="middle" x="27" y="-49.58" font-family="Times,serif" font-size="14.00">1</text>
</g>
<!-- 1 -->
<g id="node2" class="node">
<title>1</title>
<ellipse fill="lightblue" stroke="black" cx="112.94" cy="-67.35" rx="27" ry="18"/>
<text xml:space="preserve" text-anchor="middle" x="112.94" y="-62.3" font-family="Times,serif" font-size="14.00">2</text>
</g>
<!-- 0&#45;&#45;1 -->
<g id="edge1" class="edge">
<title>0&#45;&#45;1</title>
<path fill="none" stroke="black" d="M53.72,-58.59C64.07,-60.12 75.89,-61.87 86.23,-63.4"/>
</g>
<!-- 2 -->
<g id="node3" class="node">
<title>2</title>
<ellipse fill="lightblue" stroke="black" cx="76.29" cy="-18" rx="27" ry="18"/>
<text xml:space="preserve" text-anchor="middle" x="76.29" y="-12.95" font-family="Times,serif" font-size="14.00">3</text>
</g>
<!-- 0&#45;&#45;2 -->
<g id="edge2" class="edge">
<title>0&#45;&#45;2</title>
<path fill="none" stroke="black" d="M45.35,-40.99C49.51,-37.9 53.93,-34.62 58.09,-31.53"/>
</g>
<!-- 3 -->
<g id="node4" class="node">
<title>3</title>
<ellipse fill="lightblue" stroke="black" cx="63.56" cy="-104.01" rx="27" ry="18"/>
<text xml:space="preserve" text-anchor="middle" x="63.56" y="-98.96" font-family="Times,serif" font-size="14.00">4</text>
</g>
<!-- 0&#45;&#45;3 -->
<g id="edge3" class="edge">
<title>0&#45;&#45;3</title>
<path fill="none" stroke="black" d="M39.17,-71.07C43.08,-76.35 47.4,-82.19 51.31,-87.47"/>
</g>
<!-- 1&#45;&#45;2 -->
<g id="edge4" class="edge">
<title>1&#45;&#45;2</title>
<path fill="none" stroke="black" d="M100.73,-50.92C96.82,-45.65 92.48,-39.81 88.57,-34.53"/>
</g>
<!-- 1&#45;&#45;3 -->
<g id="edge5" class="edge">
<title>1&#45;&#45;3</title>
<path fill="none" stroke="black" d="M94.55,-81C90.38,-84.1 85.96,-87.38 81.79,-90.47"/>
</g>
<!-- 2&#45;&#45;3 -->
<g id="edge6" class="edge">
<title>2&#45;&#45;3</title>
<path fill="none" stroke="black" d="M73.59,-36.24C71.43,-50.84 68.41,-71.21 66.25,-85.8"/>
</g>
</g>
</svg>
