<?xml version="1.0" encoding="UTF-8" standalone="no"?>
<!DOCTYPE svg PUBLIC "-//W3C//DTD SVG 1.1//EN"
 "http://www.w3.org/Graphics/SVG/1.1/DTD/svg11.dtd">
<!-- Generated by graphviz version 13.1.0 (20250701.0955)
 -->
<!-- Pages: 1 -->
<svg width="122pt" height="260pt"
 viewBox="0.00 0.00 122.00 260.00" xmlns="http://www.w3.org/2000/svg" xmlns:xlink="http://www.w3.org/1999/xlink">
<g id="graph0" class="graph" transform="scale(1 1) rotate(0) translate(4 256)">
<polygon fill="white" stroke="none" points="-4,4 -4,-256 118.47,-256 118.47,4 -4,4"/>
<!-- 0 -->
<g id="node1" class="node">
<title>0</title>
<ellipse fill="lightblue" stroke="black" cx="73" cy="-234" rx="27" ry="18"/>
<text xml:space="preserve" text-anchor="middle" x="73" y="-228.95" font-family="Times,serif" font-size="14.00">1</text>
</g>
<!-- 1 -->
<g id="node2" class="node">
<title>1</title>
<ellipse fill="lightblue" stroke="black" cx="73" cy="-162" rx="27" ry="18"/>
<text xml:space="preserve" text-anchor="middle" x="73" y="-156.95" font-family="Times,serif" font-size="14.00">2</text>
</g>
<!-- 0&#45;&#45;1 -->
<g id="edge1" class="edge">
<title>0&#45;&#45;1</title>
<path fill="none" stroke="black" d="M73,-215.7C73,-204.85 73,-190.92 73,-180.1"/>
</g>
<!-- 2 -->
<g id="node3" class="node">
<title>2</title>
<ellipse fill="lightblue" stroke="black" cx="27" cy="-90" rx="27" ry="18"/>
<text xml:space="preserve" text-anchor="middle" x="27" y="-84.95" font-family="Times,serif" font-size="14.00">3</text>
</g>
<!-- 0&#45;&#45;2 -->
<g id="edge2" class="edge">
<title>0&#45;&#45;2</title>
<path fill="none" stroke="black" d="M59.79,-217.89C51.79,-207.85 42.17,-193.98 37,-180 28.21,-156.23 26.56,-126.65 26.52,-108.29"/>
</g>
<!-- 3 -->
<g id="node4" class="node">
<title>3</title>
<ellipse fill="lightblue" stroke="black" cx="82" cy="-18" rx="27" ry="18"/>
<text xml:space="preserve" text-anchor="middle" x="82" y="-12.95" font-family="Times,serif" font-size="14.00">4</text>
</g>
<!-- 0&#45;&#45;3 -->
<g id="edge3" class="edge">
<title>0&#45;&#45;3</title>
<path fill="none" stroke="black" d="M86.75,-218.07C94.96,-208.1 104.62,-194.25 109,-180 124.83,-128.53 102.29,-64.77 89.61,-35.32"/>
</g>
<!-- 1&#45;&#45;2 -->
<g id="edge4" class="edge">
<title>1&#45;&#45;2</title>
<path fill="none" stroke="black" d="M62.56,-145.12C55.03,-133.66 44.92,-118.26 37.4,-106.82"/>
</g>
<!-- 1&#45;&#45;3 -->
<g id="edge5" class="edge">
<title>1&#45;&#45;3</title>
<path fill="none" stroke="black" d="M74.1,-143.59C75.84,-116.19 79.19,-63.32 80.92,-36.11"/>
</g>
<!-- 2&#45;&#45;3 -->
<g id="edge6" class="edge">
<title>2&#45;&#45;3</title>
<path fill="none" stroke="black" d="M39.21,-73.46C48.32,-61.86 60.72,-46.08 69.83,-34.49"/>
</g>
</g>
</svg>
